STARTFONT 2.3
FONT -FontForge-Source Sans Pro-Book-I-Normal-SansPro--16-160-72-72-P-69-ISO10646-1
SIZE 16 72 72  4
FONTBOUNDINGBOX 22 21 -4 -5
COMMENT "Generated by fontforge, http://fontforge.sourceforge.net"
COMMENT "Copyright 2010, 2012, 2014 Adobe Systems Incorporated (http://www.adobe.com/), with Reserved Font Name `Source'."
STARTPROPERTIES 42
FOUNDRY "FontForge"
FAMILY_NAME "Source Sans Pro"
WEIGHT_NAME "Book"
SLANT "I"
SETWIDTH_NAME "Normal"
ADD_STYLE_NAME "SansPro"
PIXEL_SIZE 16
POINT_SIZE 160
RESOLUTION_X 72
RESOLUTION_Y 72
SPACING "P"
AVERAGE_WIDTH 69
CHARSET_REGISTRY "ISO10646"
CHARSET_ENCODING "1"
FONTNAME_REGISTRY ""
CHARSET_COLLECTIONS "ISO8859-2 ISO8859-9 ISO8859-4 ISO10646-1"
BITS_PER_PIXEL 4
FONT_NAME "SourceSansPro-Italic"
FACE_NAME "Source Sans Pro Italic"
COPYRIGHT "Copyright 2010, 2012, 2014 Adobe Systems Incorporated (http://www.adobe.com/), with Reserved Font Name `Source'."
FONT_VERSION "1.076;PS 2.000;hotconv 1.0.86;makeotf.lib2.5.63406"
FONT_ASCENT 12
FONT_DESCENT 4
UNDERLINE_POSITION -2
UNDERLINE_THICKNESS 1
X_HEIGHT 7
CAP_HEIGHT 9
RAW_ASCENT 750
RAW_DESCENT 250
ITALIC_ANGLE 5056
NORM_SPACE 3
RELATIVE_WEIGHT 40
RELATIVE_SETWIDTH 50
SUPERSCRIPT_X 1
SUPERSCRIPT_Y 5
SUPERSCRIPT_SIZE 9
SUBSCRIPT_X 0
SUBSCRIPT_Y 1
SUBSCRIPT_SIZE 9
FIGURE_WIDTH 8
AVG_LOWERCASE_WIDTH 75
AVG_UPPERCASE_WIDTH 86
ENDPROPERTIES
CHARS 856
STARTCHAR space
ENCODING 32
SWIDTH 192 0
DWIDTH 3 0
BBX 1 1 0 0
BITMAP
00
ENDCHAR
STARTCHAR exclam
ENCODING 33
SWIDTH 282 0
DWIDTH 5 0
BBX 5 11 0 0
BITMAP
001B10
004E00
007B00
009700
00C400
00E100
02C000
048000
000000
000000
2D4000
ENDCHAR
STARTCHAR quotedbl
ENCODING 34
SWIDTH 408 0
DWIDTH 7 0
BBX 5 4 2 7
BITMAP
6B0C60
980E30
B41E00
D13A00
ENDCHAR
STARTCHAR numbersign
ENCODING 35
SWIDTH 479 0
DWIDTH 8 0
BBX 8 10 0 0
BITMAP
00057084
000C11B0
08FFFFFB
00750930
00B10C00
00C02A00
8FFFFFC0
0840A200
0C01B000
39067000
ENDCHAR
STARTCHAR dollar
ENCODING 36
SWIDTH 480 0
DWIDTH 8 0
BBX 8 14 0 -2
BITMAP
00002C00
00004900
002AEE60
00D913D2
01F20000
00D80000
003D9100
0001BB00
00001E50
01000C60
7C216E20
08EFC400
00760000
00A40000
ENDCHAR
STARTCHAR percent
ENCODING 37
SWIDTH 791 0
DWIDTH 13 0
BBX 11 11 1 0
BITMAP
06EC20007500
4C17A003A000
A402C01B1000
E003B0940000
E0078484DD40
D42D3B2D24D0
4DD4A38700E0
000670B300E0
002A00C204A0
00B100A71C40
0850002DE600
ENDCHAR
STARTCHAR ampersand
ENCODING 38
SWIDTH 582 0
DWIDTH 9 0
BBX 10 10 0 0
BITMAP
0003CE9000
001E42F100
005B03C000
005C6C2000
005F910051
08DB8005C0
6C12E31D30
B8006EC500
9C215EE600
1AEEA34C30
ENDCHAR
STARTCHAR quotesingle
ENCODING 39
SWIDTH 242 0
DWIDTH 4 0
BBX 2 4 2 7
BITMAP
6B
98
B4
D1
ENDCHAR
STARTCHAR parenleft
ENCODING 40
SWIDTH 291 0
DWIDTH 5 0
BBX 5 15 1 -3
BITMAP
000840
004B00
00D200
069000
0D3000
3C0000
880000
B40000
D30000
E20000
E10000
C20000
B40000
760000
380000
ENDCHAR
STARTCHAR parenright
ENCODING 41
SWIDTH 293 0
DWIDTH 5 0
BBX 5 15 -1 -3
BITMAP
000B00
000A40
000770
0006A0
0005B0
0005B0
000690
000880
000C50
001E10
006A00
00D300
05A000
1D2000
750000
ENDCHAR
STARTCHAR asterisk
ENCODING 42
SWIDTH 403 0
DWIDTH 6 0
BBX 5 5 2 6
BITMAP
00B000
97E530
2DF930
5CC400
313400
ENDCHAR
STARTCHAR plus
ENCODING 43
SWIDTH 480 0
DWIDTH 8 0
BBX 8 9 0 1
BITMAP
00011000
00078000
00078000
00078000
4FFFFFF5
00078000
00078000
00078000
00011000
ENDCHAR
STARTCHAR comma
ENCODING 44
SWIDTH 242 0
DWIDTH 4 0
BBX 4 5 -1 -3
BITMAP
04B1
06F4
01D1
2B60
3300
ENDCHAR
STARTCHAR hyphen
ENCODING 45
SWIDTH 299 0
DWIDTH 5 0
BBX 5 1 0 4
BITMAP
5FFF20
ENDCHAR
STARTCHAR period
ENCODING 46
SWIDTH 242 0
DWIDTH 4 0
BBX 3 2 0 0
BITMAP
5D10
7D10
ENDCHAR
STARTCHAR slash
ENCODING 47
SWIDTH 340 0
DWIDTH 5 0
BBX 8 14 -1 -3
BITMAP
00000077
000001C1
00000770
00001C10
00007700
0000C100
00067000
000C1000
00670000
00C10000
06700000
0C100000
67000000
C1000000
ENDCHAR
STARTCHAR zero
ENCODING 48
SWIDTH 480 0
DWIDTH 8 0
BBX 8 10 0 0
BITMAP
0008ED40
00AA15E1
05D100D4
0B7000C6
1F2000D5
4E0001F2
5D0006C0
3E000C60
0E619B00
04DE9100
ENDCHAR
STARTCHAR one
ENCODING 49
SWIDTH 480 0
DWIDTH 8 0
BBX 7 10 0 0
BITMAP
0004BC00
005FF900
0000B600
0000E300
0002F000
0006C000
00099000
000C6000
001F2000
7FFFFF10
ENDCHAR
STARTCHAR two
ENCODING 50
SWIDTH 480 0
DWIDTH 8 0
BBX 9 10 -1 0
BITMAP
0005CFC400
002C317E10
0000000F30
0000002F10
000000A900
000008C100
00009C1000
001BA10000
03D8000000
1EFFFFF400
ENDCHAR
STARTCHAR three
ENCODING 51
SWIDTH 480 0
DWIDTH 8 0
BBX 8 10 0 0
BITMAP
006CED70
009415F3
000001F3
00014BA0
006FF700
00026E40
000009A0
20000A90
D9117E30
1AEEB300
ENDCHAR
STARTCHAR four
ENCODING 52
SWIDTH 480 0
DWIDTH 8 0
BBX 8 10 0 0
BITMAP
00000AF0
00009DC0
0007B980
006C1C50
04D20F20
3D203E00
CFFFFFF1
00009800
0000C500
0000F200
ENDCHAR
STARTCHAR five
ENCODING 53
SWIDTH 480 0
DWIDTH 8 0
BBX 8 10 0 0
BITMAP
006FFFF6
00970000
00D30000
02E00000
06EDEA10
03413D90
000008B0
20000A90
C8117E20
1AEEA200
ENDCHAR
STARTCHAR six
ENCODING 54
SWIDTH 480 0
DWIDTH 8 0
BBX 8 10 0 0
BITMAP
0005CFC2
007D4177
03F20000
0A900000
0E8CEB20
2FA31AB0
2F0003D0
1F1006B0
0B914E40
02BED500
ENDCHAR
STARTCHAR seven
ENCODING 55
SWIDTH 480 0
DWIDTH 8 0
BBX 8 10 1 0
BITMAP
3FFFFFF2
00001C50
0000B700
0007B000
001E2000
00890000
01E30000
05D00000
0A900000
0E500000
ENDCHAR
STARTCHAR eight
ENCODING 56
SWIDTH 480 0
DWIDTH 8 0
BBX 8 10 0 0
BITMAP
002AEE80
00B912C5
00D30097
006C35F3
02CFFE50
1DA28D30
5D0007C0
6B0004E0
2E513C80
04CED700
ENDCHAR
STARTCHAR nine
ENCODING 57
SWIDTH 480 0
DWIDTH 8 0
BBX 8 10 0 0
BITMAP
004CEB20
03E518C0
0A7000F2
0C5000D4
0AB129F3
02BEC7F1
000007B0
00002E40
5813D900
2CFD6000
ENDCHAR
STARTCHAR colon
ENCODING 58
SWIDTH 242 0
DWIDTH 4 0
BBX 4 8 0 0
BITMAP
04D1
07D1
0000
0000
0000
0000
5D10
7D10
ENDCHAR
STARTCHAR semicolon
ENCODING 59
SWIDTH 242 0
DWIDTH 4 0
BBX 5 11 -1 -3
BITMAP
004D10
007D10
000000
000000
000000
000000
04B100
06F400
01D100
2B6000
330000
ENDCHAR
STARTCHAR less
ENCODING 60
SWIDTH 480 0
DWIDTH 8 0
BBX 8 7 0 1
BITMAP
000004A5
0017DC61
1AD82000
3EB40000
005BD820
000028E4
00000001
ENDCHAR
STARTCHAR equal
ENCODING 61
SWIDTH 480 0
DWIDTH 8 0
BBX 8 5 0 3
BITMAP
4FFFFFF5
00000000
00000000
00000000
4FFFFFF5
ENDCHAR
STARTCHAR greater
ENCODING 62
SWIDTH 480 0
DWIDTH 8 0
BBX 8 7 0 1
BITMAP
3B400000
05BD7100
00028DA2
00004AE4
017DB500
3E920000
11000000
ENDCHAR
STARTCHAR question
ENCODING 63
SWIDTH 409 0
DWIDTH 7 0
BBX 6 11 1 0
BITMAP
06DEB1
1931C8
000099
0001D5
001B90
00BA00
05C000
065000
000000
000000
4D2000
ENDCHAR
STARTCHAR at
ENCODING 64
SWIDTH 814 0
DWIDTH 13 0
BBX 13 13 0 -3
BITMAP
000028DFEB4000
0005E82016E600
005D2000002D10
02D206EC820A50
09605C24E00760
0D00C303B00950
2B01E007700D20
4A00E33D819900
3B006EC4DE9000
1E100000000000
0A900000000000
01D93016000000
0018DFD8100000
ENDCHAR
STARTCHAR A
ENCODING 65
SWIDTH 510 0
DWIDTH 8 0
BBX 9 10 -1 0
BITMAP
000007F500
00001DA700
0000988900
0002E16B00
000B805C00
004E103E00
00DFFFFF10
06D1000F30
1E50000E50
8C00000D70
ENDCHAR
STARTCHAR B
ENCODING 66
SWIDTH 583 0
DWIDTH 9 0
BBX 9 10 0 0
BITMAP
007FFFD910
00A9003D80
00D5000A90
01F2016D20
04FFFFC200
07B0029C10
0B80000F40
0E40002F20
2F1014CB00
5FFFEC7000
ENDCHAR
STARTCHAR C
ENCODING 67
SWIDTH 550 0
DWIDTH 9 0
BBX 9 10 0 0
BITMAP
00029DEB20
003E8218A0
01E7000000
08D0000000
0D60000000
1F30000000
1F40000000
0D70000000
05E5128600
005DFE8100
ENDCHAR
STARTCHAR D
ENCODING 68
SWIDTH 592 0
DWIDTH 9 0
BBX 9 10 0 0
BITMAP
007FFEB400
00A9028F50
00D60009C0
01F30004F0
04E00004F0
07B00006D0
0B80000B90
0E50005E20
2F2028E500
5FFFD92000
ENDCHAR
STARTCHAR E
ENCODING 69
SWIDTH 503 0
DWIDTH 8 0
BBX 9 10 0 0
BITMAP
007FFFFF50
00A9000000
00D5000000
01F2000000
04FFFFB000
07B0000000
0B80000000
0E50000000
2F20000000
5FFFFF9000
ENDCHAR
STARTCHAR F
ENCODING 70
SWIDTH 473 0
DWIDTH 8 0
BBX 9 10 0 0
BITMAP
007FFFFF50
00A8000000
00D5000000
01F1000000
04FFFFB000
07A0000000
0B70000000
0E40000000
2F10000000
5E00000000
ENDCHAR
STARTCHAR G
ENCODING 71
SWIDTH 588 0
DWIDTH 9 0
BBX 9 10 0 0
BITMAP
00029DFC30
003E9206C0
01E7000000
08D0000000
0D60000000
1F300BFF90
1F40000B50
0D80000F20
05E6117E00
005CFEA300
ENDCHAR
STARTCHAR H
ENCODING 72
SWIDTH 622 0
DWIDTH 10 0
BBX 10 10 0 0
BITMAP
007C00007C
00A90000A8
00D50000E5
01F20002F2
04FFFFFFE0
07A00009B0
0B80000C80
0E50000E50
2F20003F10
5E00006D00
ENDCHAR
STARTCHAR I
ENCODING 73
SWIDTH 252 0
DWIDTH 4 0
BBX 4 10 0 0
BITMAP
007C
00A9
00D6
01F3
04E0
07B0
0B80
0E50
2F20
5E00
ENDCHAR
STARTCHAR J
ENCODING 74
SWIDTH 456 0
DWIDTH 7 0
BBX 8 10 0 0
BITMAP
000001F3
000004E0
000007B0
00000B80
00000E50
00002F20
00005E00
10009A00
C615E300
4CFC4000
ENDCHAR
STARTCHAR K
ENCODING 75
SWIDTH 559 0
DWIDTH 9 0
BBX 10 10 0 0
BITMAP
007C0006D2
00A9007D20
00D607D200
01F28D2000
04E9DD0000
07FB1E4000
0BB009A000
0E5003F100
2F2000C700
5E00007D00
ENDCHAR
STARTCHAR L
ENCODING 76
SWIDTH 462 0
DWIDTH 7 0
BBX 7 10 0 0
BITMAP
007C0000
00A90000
00D60000
01F30000
04E00000
07B00000
0B800000
0E500000
2F200000
5FFFFF50
ENDCHAR
STARTCHAR M
ENCODING 77
SWIDTH 705 0
DWIDTH 11 0
BBX 12 10 0 0
BITMAP
007F300009F1
00AE60003ED0
00D99000B9A0
01F4B0059A70
04D1E00C1E40
07A0D1772F10
0B70B5C05D00
0E408D408900
2F105A00C600
5D000000F300
ENDCHAR
STARTCHAR N
ENCODING 78
SWIDTH 619 0
DWIDTH 10 0
BBX 10 10 0 0
BITMAP
007F20007B
00AE7000A8
00D7D000E5
01F1E302F1
04D08905D0
07A03E08A0
0B700C5A70
0E4006AD40
2F1001EE10
5D0000AD00
ENDCHAR
STARTCHAR O
ENCODING 79
SWIDTH 633 0
DWIDTH 10 0
BBX 9 10 1 0
BITMAP
003AEEB200
04E7119E10
1E50000D70
8C00000A90
D6000009A0
F400000B80
F400003F30
C80000BA00
5E512BC100
05DFD81000
ENDCHAR
STARTCHAR P
ENCODING 80
SWIDTH 550 0
DWIDTH 9 0
BBX 9 10 0 0
BITMAP
007FFFE910
00A9003CA0
00D60006D0
01F20008B0
04E0027E40
07FFFDA300
0B80000000
0E50000000
2F20000000
5E00000000
ENDCHAR
STARTCHAR Q
ENCODING 81
SWIDTH 633 0
DWIDTH 10 0
BBX 9 12 1 -2
BITMAP
003AEEB200
04E7119E10
1E50000D70
8C00000A90
D6000009A0
F400000B80
F400003F30
C80000BB00
6E512BD200
07EFE91000
001E720000
0002AEE500
ENDCHAR
STARTCHAR R
ENCODING 82
SWIDTH 555 0
DWIDTH 9 0
BBX 9 10 0 0
BITMAP
007FFFE910
00A9003D90
00D60007B0
01F3000A80
04F0028B10
07FFFE4000
0B904F2000
0E500D8000
2F2006E000
5E0001E500
ENDCHAR
STARTCHAR S
ENCODING 83
SWIDTH 506 0
DWIDTH 8 0
BBX 8 10 0 0
BITMAP
0019DEB3
00AB217D
00F40000
00DA1000
003DD500
00017FA0
000003F4
220000F4
8D412AC0
06CFD910
ENDCHAR
STARTCHAR T
ENCODING 84
SWIDTH 510 0
DWIDTH 8 0
BBX 8 10 1 0
BITMAP
6FFFFFFE
0009A000
000C7000
000F4000
003F1000
006D0000
009A0000
00C60000
01F30000
04F00000
ENDCHAR
STARTCHAR U
ENCODING 85
SWIDTH 616 0
DWIDTH 10 0
BBX 9 10 1 0
BITMAP
08B00008B0
0B80000B80
0E50000E40
2F20002F10
5D00005D00
9A00009A00
B80000D600
A90003F100
5E413D7000
06DED60000
ENDCHAR
STARTCHAR V
ENCODING 86
SWIDTH 496 0
DWIDTH 8 0
BBX 9 10 1 0
BITMAP
A900006E10
8A0000D600
7C0006D000
5D001E5000
4E007B0000
3F01E30000
1F17A00000
0F3E200000
0DB9000000
0CE1000000
ENDCHAR
STARTCHAR W
ENCODING 87
SWIDTH 756 0
DWIDTH 12 0
BBX 12 10 1 0
BITMAP
5E0007E0007C
6D000CF000D5
6D0069F004D0
6D00D2F00A70
6C05A0F12E10
6C0C30F18900
7B4B00F2E300
7AB400E6B000
7DC000ED5000
7F5000ED0000
ENDCHAR
STARTCHAR X
ENCODING 88
SWIDTH 494 0
DWIDTH 8 0
BBX 10 10 -1 0
BITMAP
001F4001D5
000B900A90
0006E06C00
0001E6D200
0000AF4000
0002DF2000
001C5B8000
00A906D000
06C101F400
3E2000B900
ENDCHAR
STARTCHAR Y
ENCODING 89
SWIDTH 461 0
DWIDTH 7 0
BBX 8 10 1 0
BITMAP
8B0001E5
4E000A90
0E306D10
0A72E300
06BB6000
02FB0000
01F30000
04E00000
07C00000
0A800000
ENDCHAR
STARTCHAR Z
ENCODING 90
SWIDTH 512 0
DWIDTH 8 0
BBX 9 10 0 0
BITMAP
00BFFFFF80
0000007C10
000004E200
00002E4000
0001D60000
000B900000
009B000000
06D1000000
3E30000000
DFFFFFE000
ENDCHAR
STARTCHAR bracketleft
ENCODING 91
SWIDTH 292 0
DWIDTH 5 0
BBX 6 14 0 -3
BITMAP
003FF8
006800
009500
00C200
00E000
03B000
068000
095000
0C2000
0E0000
3B0000
680000
950000
CFE000
ENDCHAR
STARTCHAR backslash
ENCODING 92
SWIDTH 340 0
DWIDTH 5 0
BBX 4 14 1 -3
BITMAP
8500
6700
4900
2B00
0C00
0D00
0B20
0940
0760
0580
03A0
01C0
00D0
00C1
ENDCHAR
STARTCHAR bracketright
ENCODING 93
SWIDTH 293 0
DWIDTH 5 0
BBX 6 14 -1 -3
BITMAP
001FF9
000076
0000A3
0000D0
0001C0
000590
000860
000B30
000E10
002D00
005A00
008700
00B400
BFF100
ENDCHAR
STARTCHAR asciicircum
ENCODING 94
SWIDTH 479 0
DWIDTH 8 0
BBX 6 7 1 3
BITMAP
008D00
00DC30
04B590
0A51E0
1E10A5
6A004B
210003
ENDCHAR
STARTCHAR underscore
ENCODING 95
SWIDTH 483 0
DWIDTH 8 0
BBX 8 1 -1 -2
BITMAP
7FFFFFFC
ENDCHAR
STARTCHAR grave
ENCODING 96
SWIDTH 517 0
DWIDTH 8 0
BBX 4 3 3 9
BITMAP
1C30
08D1
0095
ENDCHAR
STARTCHAR a
ENCODING 97
SWIDTH 537 0
DWIDTH 9 0
BBX 8 8 0 0
BITMAP
002AED4E
02E913DC
0AA00099
2F3000C6
5F0000F3
5E0004F0
2F515CC0
07EE7790
ENDCHAR
STARTCHAR b
ENCODING 98
SWIDTH 536 0
DWIDTH 9 0
BBX 8 11 0 0
BITMAP
005D0000
008A0000
00B60000
00E5BEC2
02FA21BB
06C0006D
0990006D
0C60009A
0F3002F3
3F913D90
6A8ED700
ENDCHAR
STARTCHAR c
ENCODING 99
SWIDTH 435 0
DWIDTH 7 0
BBX 7 8 0 0
BITMAP
002AEE60
02E81350
0B900000
3F200000
6E000000
5E000000
1E713600
04CFD600
ENDCHAR
STARTCHAR d
ENCODING 100
SWIDTH 535 0
DWIDTH 9 0
BBX 9 11 0 0
BITMAP
00000008B0
0000000B70
0000000E40
002AED5F10
02E913DD00
0AA0009A00
2F3000C700
5F0000F400
5E0004F100
2F515CC000
07EE779000
ENDCHAR
STARTCHAR e
ENCODING 101
SWIDTH 481 0
DWIDTH 8 0
BBX 8 8 0 0
BITMAP
003BED40
04D414E0
0D3000E2
3FFFFFF0
6D000000
5E000000
1E812700
03CED800
ENDCHAR
STARTCHAR f
ENCODING 102
SWIDTH 282 0
DWIDTH 5 0
BBX 7 11 0 0
BITMAP
0008EE20
004E3200
00990000
0CFFE000
01F30000
04E00000
07C00000
0A900000
0C600000
1F300000
3F000000
ENDCHAR
STARTCHAR g
ENCODING 103
SWIDTH 531 0
DWIDTH 9 0
BBX 8 11 0 -3
BITMAP
003BED5D
03E714EA
0C7000B7
3F1000E4
5E0004F1
3F415DD0
08EE8990
00000C60
00003F20
A513C900
4CFD8000
ENDCHAR
STARTCHAR h
ENCODING 104
SWIDTH 519 0
DWIDTH 8 0
BBX 8 11 0 0
BITMAP
005D0000
008A0000
00B70000
00E49EC2
02FA31D7
06D100B7
099000E5
0C6001F2
0F3004E0
3F1007B0
6C000A80
ENDCHAR
STARTCHAR i
ENCODING 105
SWIDTH 237 0
DWIDTH 4 0
BBX 4 12 0 0
BITMAP
0047
008C
0000
0000
01F3
04F0
07C0
0990
0C60
0F30
3F00
6C00
ENDCHAR
STARTCHAR j
ENCODING 106
SWIDTH 238 0
DWIDTH 4 0
BBX 6 15 -2 -3
BITMAP
000047
00008C
000000
000000
0001F3
0004E0
0007C0
000A90
000D50
001F20
004E00
008B00
00B800
12F300
BE7000
ENDCHAR
STARTCHAR k
ENCODING 107
SWIDTH 476 0
DWIDTH 8 0
BBX 8 11 0 0
BITMAP
005D0000
008A0000
00B70000
00E401D6
02F11C70
06D0B800
09AAE000
0CEBE400
0FB09A00
3F103F10
6C000C70
ENDCHAR
STARTCHAR l
ENCODING 108
SWIDTH 248 0
DWIDTH 4 0
BBX 4 11 0 0
BITMAP
005D
008A
00B7
00E4
03F1
06D0
0990
0C60
0F30
3F00
2E70
ENDCHAR
STARTCHAR m
ENCODING 109
SWIDTH 799 0
DWIDTH 13 0
BBX 12 8 0 0
BITMAP
01F2BEB16DE6
04FA22FC718D
07C000E7005D
0A9001F2008B
0C6004E000B8
1F3007B000E5
3F000A8002F2
6C000D5005E0
ENDCHAR
STARTCHAR n
ENCODING 110
SWIDTH 525 0
DWIDTH 8 0
BBX 8 8 0 0
BITMAP
01F2AEC2
04FA31D7
07C000B7
0A9000E5
0C6001F2
1F3004E0
3F0007B0
6C000A80
ENDCHAR
STARTCHAR o
ENCODING 111
SWIDTH 515 0
DWIDTH 8 0
BBX 8 8 0 0
BITMAP
002BED60
02E714F3
0B8000B8
3F1000B8
5E0000D6
4E0005E1
1E615E50
04CFC400
ENDCHAR
STARTCHAR p
ENCODING 112
SWIDTH 535 0
DWIDTH 9 0
BBX 9 11 -1 -3
BITMAP
001F3BEC20
004FA21BB0
007C0006D0
00A90006D0
00D60009A0
01F3002F30
04F913D900
07B8ED7000
0A80000000
0D50000000
1F20000000
ENDCHAR
STARTCHAR q
ENCODING 113
SWIDTH 537 0
DWIDTH 9 0
BBX 8 11 0 -3
BITMAP
002AED4E
02E913DB
0AA00098
2F3000C5
5F0000F2
5E0004E0
2F515DB0
07ED7980
00000D50
00001F20
00004E00
ENDCHAR
STARTCHAR r
ENCODING 114
SWIDTH 342 0
DWIDTH 5 0
BBX 6 8 0 0
BITMAP
01F2CD
04E821
07C000
0A8000
0C5000
1F3000
3F0000
6C0000
ENDCHAR
STARTCHAR s
ENCODING 115
SWIDTH 402 0
DWIDTH 6 0
BBX 6 8 0 0
BITMAP
01AED6
0AA138
0C8000
04EB20
002BE2
0000B7
C613E4
2BED60
ENDCHAR
STARTCHAR t
ENCODING 116
SWIDTH 325 0
DWIDTH 5 0
BBX 5 11 1 0
BITMAP
002000
04D000
08A000
DFFF60
0F3000
3F0000
6C0000
990000
C60000
D81100
6EE400
ENDCHAR
STARTCHAR u
ENCODING 117
SWIDTH 528 0
DWIDTH 8 0
BBX 8 8 0 0
BITMAP
01F2006C
04E00099
07B000C7
0A8000F4
0D5003F1
1F3007D0
1F617DA0
08ED5970
ENDCHAR
STARTCHAR v
ENCODING 118
SWIDTH 448 0
DWIDTH 7 0
BBX 7 8 1 0
BITMAP
F3000C70
D5004D00
B700C600
8904D000
6B0C5000
4C4D0000
2EB50000
0FC00000
ENDCHAR
STARTCHAR w
ENCODING 119
SWIDTH 707 0
DWIDTH 11 0
BBX 11 8 1 0
BITMAP
D6008E001E20
C601CE006B00
B7067E00D400
980C2E14C000
894A0D2B6000
79B40C5E0000
6BC00BB80000
5F600BF10000
ENDCHAR
STARTCHAR x
ENCODING 120
SWIDTH 429 0
DWIDTH 7 0
BBX 9 8 -1 0
BITMAP
007C004E20
002F22E400
000B7B7000
0005FA0000
001CE70000
00A95D0000
07C01E4000
5E2009A000
ENDCHAR
STARTCHAR y
ENCODING 121
SWIDTH 448 0
DWIDTH 7 0
BBX 9 11 -1 -3
BITMAP
00E4000B70
00C6004D00
009800C500
006A05C000
004C0C4000
001E5B0000
000DD30000
000C900000
003E200000
12D6000000
CD60000000
ENDCHAR
STARTCHAR z
ENCODING 122
SWIDTH 410 0
DWIDTH 7 0
BBX 8 8 -1 0
BITMAP
004FFFFC
000004E3
00002E40
0001D700
000BA000
009C0000
06D10000
1FFFFF80
ENDCHAR
STARTCHAR braceleft
ENCODING 123
SWIDTH 290 0
DWIDTH 5 0
BBX 6 14 0 -3
BITMAP
0008E8
002E20
005A00
008700
00A500
03E100
6F4000
098000
077000
0A4000
0D1000
1D0000
3D0000
1DE000
ENDCHAR
STARTCHAR bar
ENCODING 124
SWIDTH 231 0
DWIDTH 4 0
BBX 2 16 1 -4
BITMAP
75
75
75
75
75
75
75
75
75
75
75
75
75
75
75
75
ENDCHAR
STARTCHAR braceright
ENCODING 125
SWIDTH 293 0
DWIDTH 5 0
BBX 6 14 -1 -3
BITMAP
002FB0
0001F0
0002C0
000680
000A40
000B50
0007F3
002D20
007800
009600
00C400
00E100
05C000
BE4000
ENDCHAR
STARTCHAR asciitilde
ENCODING 126
SWIDTH 480 0
DWIDTH 8 0
BBX 8 2 0 4
BITMAP
07EC41A1
1A15CE60
ENDCHAR
STARTCHAR uni00A0
ENCODING 160
SWIDTH 192 0
DWIDTH 3 0
BBX 1 1 0 0
BITMAP
00
ENDCHAR
STARTCHAR exclamdown
ENCODING 161
SWIDTH 282 0
DWIDTH 5 0
BBX 4 11 0 -3
BITMAP
00B9
0000
0000
0180
04A0
0780
0A50
0E20
2F00
5C00
8900
ENDCHAR
STARTCHAR cent
ENCODING 162
SWIDTH 480 0
DWIDTH 8 0
BBX 7 11 1 0
BITMAP
0000A200
0001C000
01ADFE30
0B749530
4C076000
980A3000
B80D1000
AD2D0000
5FEA4500
08EEB400
00930000
ENDCHAR
STARTCHAR sterling
ENCODING 163
SWIDTH 480 0
DWIDTH 8 0
BBX 8 10 0 0
BITMAP
0005CEC2
004E4178
00990000
00980000
0DFFFF00
00890000
00B70000
02F20000
2C800000
CFFFFF40
ENDCHAR
STARTCHAR currency
ENCODING 164
SWIDTH 480 0
DWIDTH 8 0
BBX 8 8 0 1
BITMAP
01100002
07BBECB8
03E518D0
0B7003F0
0D4006C0
0C914E50
7BBEC9A0
20000020
ENDCHAR
STARTCHAR yen
ENCODING 165
SWIDTH 480 0
DWIDTH 8 0
BBX 9 10 0 0
BITMAP
03F1002E20
00E400B600
009705B000
005B1D1000
001EA50000
2FFFFFF100
000C600000
7FFFFFB000
003F100000
007B000000
ENDCHAR
STARTCHAR brokenbar
ENCODING 166
SWIDTH 231 0
DWIDTH 4 0
BBX 2 16 1 -4
BITMAP
75
75
75
75
75
75
75
32
32
75
75
75
75
75
75
75
ENDCHAR
STARTCHAR section
ENCODING 167
SWIDTH 477 0
DWIDTH 8 0
BBX 8 12 0 -1
BITMAP
0009ED50
007B13A1
00890000
01BF8000
0C62CD20
1F0009C0
0D8002F0
02CC37B0
0007FA10
0000A700
7912D400
1AED7000
ENDCHAR
STARTCHAR dieresis
ENCODING 168
SWIDTH 517 0
DWIDTH 8 0
BBX 5 1 3 10
BITMAP
880870
ENDCHAR
STARTCHAR copyright
ENCODING 169
SWIDTH 665 0
DWIDTH 11 0
BBX 11 11 0 0
BITMAP
0002AEFC6000
005D6103B800
03C100000B20
0B206DE50570
2906C2240280
550E10000370
651D00000740
570E41511C00
1C15DE91A500
06C4015C7000
005CFEA30000
ENDCHAR
STARTCHAR ordfeminine
ENCODING 170
SWIDTH 354 0
DWIDTH 6 0
BBX 6 5 1 6
BITMAP
04DD63
2D42E2
8701D0
9719A0
4ED750
ENDCHAR
STARTCHAR guillemotleft
ENCODING 171
SWIDTH 411 0
DWIDTH 7 0
BBX 7 6 0 1
BITMAP
00470920
04B1A600
2C197000
4B0A4000
0A42C000
01907300
ENDCHAR
STARTCHAR logicalnot
ENCODING 172
SWIDTH 480 0
DWIDTH 8 0
BBX 8 5 0 1
BITMAP
4FFFFFF5
00000095
00000095
00000095
00000021
ENDCHAR
STARTCHAR uni00AD
ENCODING 173
SWIDTH 299 0
DWIDTH 5 0
BBX 5 1 0 4
BITMAP
5FFF20
ENDCHAR
STARTCHAR registered
ENCODING 174
SWIDTH 406 0
DWIDTH 7 0
BBX 6 6 1 5
BITMAP
04DEA1
3BDF89
919659
91FD19
897BA5
1AFE60
ENDCHAR
STARTCHAR macron
ENCODING 175
SWIDTH 517 0
DWIDTH 8 0
BBX 5 1 3 9
BITMAP
9FFF70
ENDCHAR
STARTCHAR degree
ENCODING 176
SWIDTH 313 0
DWIDTH 5 0
BBX 5 4 1 7
BITMAP
07EB10
3A1850
591A30
1BE800
ENDCHAR
STARTCHAR plusminus
ENCODING 177
SWIDTH 480 0
DWIDTH 8 0
BBX 8 9 0 0
BITMAP
00067000
00078000
00078000
4FFFFFF5
00078000
00078000
00077000
00000000
4FFFFFF5
ENDCHAR
STARTCHAR two.sups
ENCODING 178
SWIDTH 353 0
DWIDTH 6 0
BBX 5 7 1 6
BITMAP
03CE70
0632E0
0001D0
000860
006900
088000
9FFF70
ENDCHAR
STARTCHAR three.sups
ENCODING 179
SWIDTH 351 0
DWIDTH 6 0
BBX 5 7 1 6
BITMAP
04DE70
0322E0
0016B0
00ED20
001970
751980
2BEB10
ENDCHAR
STARTCHAR acute
ENCODING 180
SWIDTH 517 0
DWIDTH 8 0
BBX 4 3 4 9
BITMAP
0096
1BC2
7800
ENDCHAR
STARTCHAR uni00B5
ENCODING 181
SWIDTH 526 0
DWIDTH 8 0
BBX 9 11 -1 -3
BITMAP
001E2006B0
004E000990
007B000C60
00A8000F30
00D5003F10
01F2007C00
04F517E900
07CDE68600
0A80000000
0D50000000
1E20000000
ENDCHAR
STARTCHAR paragraph
ENCODING 182
SWIDTH 535 0
DWIDTH 9 0
BBX 8 12 1 -2
BITMAP
018DF3E4
1DFFF3F1
8FFFC5D0
CFFF98A0
CFFF6B70
5FFF3E40
04AC3F10
00005D00
00008A00
0000B700
0000E400
0001C100
ENDCHAR
STARTCHAR periodcentered
ENCODING 183
SWIDTH 242 0
DWIDTH 4 0
BBX 2 2 1 4
BITMAP
6C
9C
ENDCHAR
STARTCHAR cedilla
ENCODING 184
SWIDTH 517 0
DWIDTH 8 0
BBX 4 4 1 -4
BITMAP
0490
06D1
03E2
AC60
ENDCHAR
STARTCHAR one.sups
ENCODING 185
SWIDTH 356 0
DWIDTH 6 0
BBX 4 6 2 6
BITMAP
29E4
00E1
02C0
0590
0860
0B30
ENDCHAR
STARTCHAR ordmasculine
ENCODING 186
SWIDTH 348 0
DWIDTH 6 0
BBX 5 5 1 6
BITMAP
19ED30
981790
D00590
E23D40
7ED500
ENDCHAR
STARTCHAR guillemotright
ENCODING 187
SWIDTH 411 0
DWIDTH 7 0
BBX 6 6 0 1
BITMAP
0831A0
02C095
00952D
01C44C
0A63C1
650A10
ENDCHAR
STARTCHAR onequarter
ENCODING 188
SWIDTH 748 0
DWIDTH 12 0
BBX 10 11 2 0
BITMAP
0000000A30
9D70006700
0B4002A000
0E100B2000
2C00750000
59039008D0
861B107890
0094064750
05806FFFF1
1B00000D00
A200000900
ENDCHAR
STARTCHAR onehalf
ENCODING 189
SWIDTH 772 0
DWIDTH 12 0
BBX 11 11 1 0
BITMAP
00000001B000
19D6000A2000
00C300760000
00E003A00000
03B00B18EC10
068084271A70
095490000950
001B10002C00
00A30001B200
0670003B2000
2A0002FFFE00
ENDCHAR
STARTCHAR threequarters
ENCODING 190
SWIDTH 764 0
DWIDTH 12 0
BBX 12 11 0 0
BITMAP
009EC20002A0
005197000B10
0002C4008500
007F70049000
0003D11B1000
1A13E19304F2
06ED657049C0
00002B0363A0
0000A22EFFF5
000760000940
003A00000810
ENDCHAR
STARTCHAR questiondown
ENCODING 191
SWIDTH 409 0
DWIDTH 7 0
BBX 5 11 0 -3
BITMAP
0007C0
000000
000000
000A20
004E00
02D500
2D6000
A80000
F30000
E71560
4DFC30
ENDCHAR
STARTCHAR Agrave
ENCODING 192
SWIDTH 510 0
DWIDTH 8 0
BBX 9 14 -1 0
BITMAP
00001B2000
000008D100
0000008500
0000000000
000007F500
00001DA700
0000988900
0002E16B00
000B805C00
004E103E00
00DFFFFF10
06D1000F30
1E50000E50
8C00000D70
ENDCHAR
STARTCHAR Aacute
ENCODING 193
SWIDTH 510 0
DWIDTH 8 0
BBX 9 14 -1 0
BITMAP
0000000490
0000006E70
000001B300
0000000000
000007F500
00001DA700
0000988900
0002E16B00
000B805C00
004E103E00
00DFFFFF10
06D1000F30
1E50000E50
8C00000D70
ENDCHAR
STARTCHAR Acircumflex
ENCODING 194
SWIDTH 510 0
DWIDTH 8 0
BBX 9 14 -1 0
BITMAP
000004FD10
00004D4990
0000410040
0000000000
000007F500
00001DA700
0000988900
0002E16B00
000B805C00
004E103E00
00DFFFFF10
06D1000F30
1E50000E50
8C00000D70
ENDCHAR
STARTCHAR Atilde
ENCODING 195
SWIDTH 510 0
DWIDTH 8 0
BBX 10 14 -1 0
BITMAP
0000020001
00008ED378
0001B06EB1
0000000000
000007F500
00001DA700
0000988900
0002E16B00
000B805C00
004E103E00
00DFFFFF10
06D1000F30
1E50000E50
8C00000D70
ENDCHAR
STARTCHAR Adieresis
ENCODING 196
SWIDTH 510 0
DWIDTH 8 0
BBX 9 13 -1 0
BITMAP
00005A05A0
0000000000
0000000000
000007F500
00001DA700
0000988900
0002E16B00
000B805C00
004E103E00
00DFFFFF10
06D1000F30
1E50000E50
8C00000D70
ENDCHAR
STARTCHAR Aring
ENCODING 197
SWIDTH 510 0
DWIDTH 8 0
BBX 9 14 -1 0
BITMAP
000004DD10
00000B3940
000007EB00
0000000000
000007F500
00001DA700
0000988900
0002E16B00
000B805C00
004E103E00
00DFFFFF10
06D1000F30
1E50000E50
8C00000D70
ENDCHAR
STARTCHAR AE
ENCODING 198
SWIDTH 803 0
DWIDTH 13 0
BBX 15 10 -1 0
BITMAP
00000008FFFFFF20
0000004DB8000000
000002E4E5000000
00000B72F1000000
00007B05FFFF8000
0004E208A0000000
001DFFFF70000000
00AA000E40000000
06D1002F10000000
3E40005FFFFF6000
ENDCHAR
STARTCHAR Ccedilla
ENCODING 199
SWIDTH 550 0
DWIDTH 9 0
BBX 9 14 0 -4
BITMAP
00029DEB20
003E8218A0
01E7000000
08D0000000
0D60000000
1F30000000
1F40000000
0D70000000
05E5128600
005DFE8100
0003A00000
0006D10000
0003D20000
009D600000
ENDCHAR
STARTCHAR Egrave
ENCODING 200
SWIDTH 503 0
DWIDTH 8 0
BBX 9 14 0 0
BITMAP
0000940000
00006E2000
0000068000
0000000000
007FFFFF50
00A9000000
00D5000000
01F2000000
04FFFFB000
07B0000000
0B80000000
0E50000000
2F20000000
5FFFFF9000
ENDCHAR
STARTCHAR Eacute
ENCODING 201
SWIDTH 503 0
DWIDTH 8 0
BBX 9 14 0 0
BITMAP
0000002A00
000004E900
00000B4000
0000000000
007FFFFF50
00A9000000
00D5000000
01F2000000
04FFFFB000
07B0000000
0B80000000
0E50000000
2F20000000
5FFFFF9000
ENDCHAR
STARTCHAR Ecircumflex
ENCODING 202
SWIDTH 503 0
DWIDTH 8 0
BBX 9 14 0 0
BITMAP
00002EF200
0002D66B00
0002200400
0000000000
007FFFFF50
00A9000000
00D5000000
01F2000000
04FFFFB000
07B0000000
0B80000000
0E50000000
2F20000000
5FFFFF9000
ENDCHAR
STARTCHAR Edieresis
ENCODING 203
SWIDTH 503 0
DWIDTH 8 0
BBX 9 13 0 0
BITMAP
0003C03C00
0000000000
0000000000
007FFFFF50
00A9000000
00D5000000
01F2000000
04FFFFB000
07B0000000
0B80000000
0E50000000
2F20000000
5FFFFF9000
ENDCHAR
STARTCHAR Igrave
ENCODING 204
SWIDTH 252 0
DWIDTH 4 0
BBX 5 14 0 0
BITMAP
02B100
01BB00
001B30
000000
007C00
00A900
00D600
01F300
04E000
07B000
0B8000
0E5000
2F2000
5E0000
ENDCHAR
STARTCHAR Iacute
ENCODING 205
SWIDTH 252 0
DWIDTH 4 0
BBX 6 14 0 0
BITMAP
000067
0009E5
003A10
000000
007C00
00A900
00D600
01F300
04E000
07B000
0B8000
0E5000
2F2000
5E0000
ENDCHAR
STARTCHAR Icircumflex
ENCODING 206
SWIDTH 252 0
DWIDTH 4 0
BBX 6 14 0 0
BITMAP
007FB0
06C3C6
040014
000000
007C00
00A900
00D600
01F300
04E000
07B000
0B8000
0E5000
2F2000
5E0000
ENDCHAR
STARTCHAR Idieresis
ENCODING 207
SWIDTH 252 0
DWIDTH 4 0
BBX 6 13 0 0
BITMAP
088087
000000
000000
007C00
00A900
00D600
01F300
04E000
07B000
0B8000
0E5000
2F2000
5E0000
ENDCHAR
STARTCHAR Eth
ENCODING 208
SWIDTH 610 0
DWIDTH 10 0
BBX 10 10 0 0
BITMAP
003FFEC600
006D015E90
00A90004F2
00D60000F5
2EFEE800E4
04F11002F3
06C00007D0
0990002E60
0D6016E900
1FFFEB5000
ENDCHAR
STARTCHAR Ntilde
ENCODING 209
SWIDTH 619 0
DWIDTH 10 0
BBX 10 14 0 0
BITMAP
0000020000
0000AEC295
0003A08EA0
0000000000
007F20007B
00AE7000A8
00D7D000E5
01F1E302F1
04D08905D0
07A03E08A0
0B700C5A70
0E4006AD40
2F1001EE10
5D0000AD00
ENDCHAR
STARTCHAR Ograve
ENCODING 210
SWIDTH 633 0
DWIDTH 10 0
BBX 9 14 1 0
BITMAP
0001B20000
00009C1000
0000095000
0000000000
003AEEB200
04E7119E10
1E50000D70
8C00000A90
D6000009A0
F400000B80
F400003F30
C80000BA00
5E512BC100
05DFD81000
ENDCHAR
STARTCHAR Oacute
ENCODING 211
SWIDTH 633 0
DWIDTH 10 0
BBX 9 14 1 0
BITMAP
0000005900
000007E600
00001B2000
0000000000
003AEEB200
04E7119E10
1E50000D70
8C00000A90
D6000009A0
F400000B80
F400003F30
C80000BA00
5E512BC100
05DFD81000
ENDCHAR
STARTCHAR Ocircumflex
ENCODING 212
SWIDTH 633 0
DWIDTH 10 0
BBX 9 14 1 0
BITMAP
00005FD100
0004D3A800
0004100400
0000000000
003AEEB200
04E7119E10
1E50000D70
8C00000A90
D6000009A0
F400000B80
F400003F30
C80000BA00
5E512BC100
05DFD81000
ENDCHAR
STARTCHAR Otilde
ENCODING 213
SWIDTH 633 0
DWIDTH 10 0
BBX 9 14 1 0
BITMAP
0000200010
0009ED2870
002B06EB10
0000000000
003AEEB200
04E7119E10
1E50000D70
8C00000A90
D6000009A0
F400000B80
F400003F30
C80000BA00
5E512BC100
05DFD81000
ENDCHAR
STARTCHAR Odieresis
ENCODING 214
SWIDTH 633 0
DWIDTH 10 0
BBX 9 13 1 0
BITMAP
0006A06900
0000000000
0000000000
003AEEB200
04E7119E10
1E50000D70
8C00000A90
D6000009A0
F400000B80
F400003F30
C80000BA00
5E512BC100
05DFD81000
ENDCHAR
STARTCHAR multiply
ENCODING 215
SWIDTH 480 0
DWIDTH 8 0
BBX 6 7 1 1
BITMAP
A3002B
3D32D4
03DD50
01DD20
1C54D2
B6005C
100001
ENDCHAR
STARTCHAR Oslash
ENCODING 216
SWIDTH 633 0
DWIDTH 10 0
BBX 11 12 0 -1
BITMAP
000000000020
0003AEEB3A70
005E7119FB00
02E50008F500
09B0009BB900
0D501BA09A00
0F42C800B800
0E8D6002F400
0BF5000AB000
1DF602AD2000
B65DFD810000
200000000000
ENDCHAR
STARTCHAR Ugrave
ENCODING 217
SWIDTH 616 0
DWIDTH 10 0
BBX 9 14 1 0
BITMAP
0002B10000
0001BA0000
00001B3000
0000000000
08B00008B0
0B80000B80
0E50000E40
2F20002F10
5D00005D00
9A00009A00
B80000D600
A90003F100
5E413D7000
06DED60000
ENDCHAR
STARTCHAR Uacute
ENCODING 218
SWIDTH 616 0
DWIDTH 10 0
BBX 9 14 1 0
BITMAP
0000007700
000009E500
00004A1000
0000000000
08B00008B0
0B80000B80
0E50000E40
2F20002F10
5D00005D00
9A00009A00
B80000D600
A90003F100
5E413D7000
06DED60000
ENDCHAR
STARTCHAR Ucircumflex
ENCODING 219
SWIDTH 616 0
DWIDTH 10 0
BBX 9 14 1 0
BITMAP
00007FB000
0006C3C600
0004001300
0000000000
08B00008B0
0B80000B80
0E50000E40
2F20002F10
5D00005D00
9A00009A00
B80000D600
A90003F100
5E413D7000
06DED60000
ENDCHAR
STARTCHAR Udieresis
ENCODING 220
SWIDTH 616 0
DWIDTH 10 0
BBX 9 13 1 0
BITMAP
0008708700
0000000000
0000000000
08B00008B0
0B80000B80
0E50000E40
2F20002F10
5D00005D00
9A00009A00
B80000D600
A90003F100
5E413D7000
06DED60000
ENDCHAR
STARTCHAR Yacute
ENCODING 221
SWIDTH 461 0
DWIDTH 7 0
BBX 8 14 1 0
BITMAP
00001A20
0002DB20
00096000
00000000
8B0001E5
4E000A90
0E306D10
0A72E300
06BB6000
02FB0000
01F30000
04E00000
07C00000
0A800000
ENDCHAR
STARTCHAR Thorn
ENCODING 222
SWIDTH 562 0
DWIDTH 9 0
BBX 9 10 0 0
BITMAP
007B000000
00AFFFC600
00D4016F30
01F1000B70
04E0000B80
07B0001E40
0B9014CA00
0EFFEC6000
2F20000000
5E00000000
ENDCHAR
STARTCHAR germandbls
ENCODING 223
SWIDTH 555 0
DWIDTH 9 0
BBX 8 11 0 0
BITMAP
0003CEC3
003E619B
00AA007B
00E502D3
02F11D40
05D06C00
08A02E80
0C7002C9
0E40002F
3F14317D
6C05CEB2
ENDCHAR
STARTCHAR agrave
ENCODING 224
SWIDTH 537 0
DWIDTH 9 0
BBX 8 12 0 0
BITMAP
0001C200
00009C00
00000A40
00000000
002AED4E
02E913DC
0AA00099
2F3000C6
5F0000F3
5E0004F0
2F515CC0
07EE7790
ENDCHAR
STARTCHAR aacute
ENCODING 225
SWIDTH 537 0
DWIDTH 9 0
BBX 8 12 0 0
BITMAP
00000095
00001BB2
00007800
00000000
002AED4E
02E913DC
0AA00099
2F3000C6
5F0000F3
5E0004F0
2F515CC0
07EE7790
ENDCHAR
STARTCHAR acircumflex
ENCODING 226
SWIDTH 537 0
DWIDTH 9 0
BBX 8 12 0 0
BITMAP
00007FA0
0006D3D4
00091027
00000000
002AED4E
02E913DC
0AA00099
2F3000C6
5F0000F3
5E0004F0
2F515CC0
07EE7790
ENDCHAR
STARTCHAR atilde
ENCODING 227
SWIDTH 537 0
DWIDTH 9 0
BBX 9 12 0 0
BITMAP
0001510320
000CAC2C30
003906E800
0000000000
002AED4E00
02E913DC00
0AA0009900
2F3000C600
5F0000F300
5E0004F000
2F515CC000
07EE779000
ENDCHAR
STARTCHAR adieresis
ENCODING 228
SWIDTH 537 0
DWIDTH 9 0
BBX 8 11 0 0
BITMAP
00097096
00000000
00000000
002AED4E
02E913DC
0AA00099
2F3000C6
5F0000F3
5E0004F0
2F515CC0
07EE7790
ENDCHAR
STARTCHAR aring
ENCODING 229
SWIDTH 537 0
DWIDTH 9 0
BBX 8 12 0 0
BITMAP
00009EB1
0002C2C2
0001CE80
00000000
002AED4E
02E913DC
0AA00099
2F3000C6
5F0000F3
5E0004F0
2F515CC0
07EE7790
ENDCHAR
STARTCHAR ae
ENCODING 230
SWIDTH 761 0
DWIDTH 12 0
BBX 12 8 0 0
BITMAP
007CEC26DEA1
008219DB21B6
000005D00079
017BDFFFFFF7
1DB419800000
6D000A900000
6D229CE51530
1BFD606DEB30
ENDCHAR
STARTCHAR ccedilla
ENCODING 231
SWIDTH 435 0
DWIDTH 7 0
BBX 7 12 0 -4
BITMAP
002AEE60
02E81350
0B900000
3F200000
6E000000
5E000000
1E713600
04CFD600
00670000
008C0000
004E0000
0CC40000
ENDCHAR
STARTCHAR egrave
ENCODING 232
SWIDTH 481 0
DWIDTH 8 0
BBX 8 12 0 0
BITMAP
0003B100
0001C900
00001B20
00000000
003BED40
04D414E0
0D3000E2
3FFFFFF0
6D000000
5E000000
1E812700
03CED800
ENDCHAR
STARTCHAR eacute
ENCODING 233
SWIDTH 481 0
DWIDTH 8 0
BBX 8 12 0 0
BITMAP
000001B2
00002D91
0000A500
00000000
003BED40
04D414E0
0D3000E2
3FFFFFF0
6D000000
5E000000
1E812700
03CED800
ENDCHAR
STARTCHAR ecircumflex
ENCODING 234
SWIDTH 481 0
DWIDTH 8 0
BBX 8 12 0 0
BITMAP
0000AF60
0009A4E1
00380054
00000000
003BED40
04D414E0
0D3000E2
3FFFFFF0
6D000000
5E000000
1E812700
03CED800
ENDCHAR
STARTCHAR edieresis
ENCODING 235
SWIDTH 481 0
DWIDTH 8 0
BBX 8 11 0 0
BITMAP
000C40C3
00000000
00000000
003BED40
04D414E0
0D3000E2
3FFFFFF0
6D000000
5E000000
1E812700
03CED800
ENDCHAR
STARTCHAR igrave
ENCODING 236
SWIDTH 237 0
DWIDTH 4 0
BBX 5 12 0 0
BITMAP
04B000
01C800
001C10
000000
01F300
04F000
07C000
099000
0C6000
0F3000
3F0000
6C0000
ENDCHAR
STARTCHAR iacute
ENCODING 237
SWIDTH 237 0
DWIDTH 4 0
BBX 6 12 0 0
BITMAP
0002B2
003D90
00B400
000000
01F300
04F000
07C000
099000
0C6000
0F3000
3F0000
6C0000
ENDCHAR
STARTCHAR icircumflex
ENCODING 238
SWIDTH 237 0
DWIDTH 4 0
BBX 6 12 0 0
BITMAP
00BF60
0AA4D1
370064
000000
01F300
04F000
07C000
099000
0C6000
0F3000
3F0000
6C0000
ENDCHAR
STARTCHAR idieresis
ENCODING 239
SWIDTH 237 0
DWIDTH 4 0
BBX 6 11 0 0
BITMAP
0C30D3
000000
000000
01F300
04F000
07C000
099000
0C6000
0F3000
3F0000
6C0000
ENDCHAR
STARTCHAR eth
ENCODING 240
SWIDTH 524 0
DWIDTH 8 0
BBX 9 11 0 0
BITMAP
0005B44A40
00009FD400
0004CF9000
002C56F200
000000E600
007DEAC700
08C314E700
1F2000C400
4D0003C000
2E513D5000
04CFC50000
ENDCHAR
STARTCHAR ntilde
ENCODING 241
SWIDTH 525 0
DWIDTH 8 0
BBX 9 12 0 0
BITMAP
0000520130
0009BD3870
000C03EB10
0000000000
01F2AEC200
04FA31D700
07C000B700
0A9000E500
0C6001F200
1F3004E000
3F0007B000
6C000A8000
ENDCHAR
STARTCHAR ograve
ENCODING 242
SWIDTH 515 0
DWIDTH 8 0
BBX 8 12 0 0
BITMAP
0001C300
00008D10
00000950
00000000
002BED60
02E714F3
0B8000B8
3F1000B8
5E0000D6
4E0005E1
1E615E50
04CFC400
ENDCHAR
STARTCHAR oacute
ENCODING 243
SWIDTH 515 0
DWIDTH 8 0
BBX 8 12 0 0
BITMAP
00000096
00001BC2
00007800
00000000
002BED60
02E714F3
0B8000B8
3F1000B8
5E0000D6
4E0005E1
1E615E50
04CFC400
ENDCHAR
STARTCHAR ocircumflex
ENCODING 244
SWIDTH 515 0
DWIDTH 8 0
BBX 8 12 0 0
BITMAP
00006FB0
0005D3D5
00091027
00000000
002BED60
02E714F3
0B8000B8
3F1000B8
5E0000D6
4E0005E1
1E615E50
04CFC400
ENDCHAR
STARTCHAR otilde
ENCODING 245
SWIDTH 515 0
DWIDTH 8 0
BBX 9 12 0 0
BITMAP
0001510220
000CAC2B40
003A06E900
0000000000
002BED6000
02E714F300
0B8000B800
3F1000B800
5E0000D600
4E0005E100
1E615E5000
04CFC40000
ENDCHAR
STARTCHAR odieresis
ENCODING 246
SWIDTH 515 0
DWIDTH 8 0
BBX 8 11 0 0
BITMAP
00088087
00000000
00000000
002BED60
02E714F3
0B8000B8
3F1000B8
5E0000D6
4E0005E1
1E615E50
04CFC400
ENDCHAR
STARTCHAR divide
ENCODING 247
SWIDTH 480 0
DWIDTH 8 0
BBX 8 7 0 2
BITMAP
00089000
00000000
00000000
4FFFFFF5
00000000
00000000
00089000
ENDCHAR
STARTCHAR oslash
ENCODING 248
SWIDTH 515 0
DWIDTH 8 0
BBX 9 9 0 -1
BITMAP
003BED6B20
03E615F700
0D601BF700
4E02D89900
5D4D50B700
3FD303E200
3F814D6000
B6CFC50000
1000000000
ENDCHAR
STARTCHAR ugrave
ENCODING 249
SWIDTH 528 0
DWIDTH 8 0
BBX 8 12 0 0
BITMAP
0002C200
0000AB00
00000A40
00000000
01F2006C
04E00099
07B000C7
0A8000F4
0D5003F1
1F3007D0
1F617DA0
08ED5970
ENDCHAR
STARTCHAR uacute
ENCODING 250
SWIDTH 528 0
DWIDTH 8 0
BBX 8 12 0 0
BITMAP
000001A4
00001CB1
00008700
00000000
01F2006C
04E00099
07B000C7
0A8000F4
0D5003F1
1F3007D0
1F617DA0
08ED5970
ENDCHAR
STARTCHAR ucircumflex
ENCODING 251
SWIDTH 528 0
DWIDTH 8 0
BBX 8 12 0 0
BITMAP
00008F90
0007C3D3
00191036
00000000
01F2006C
04E00099
07B000C7
0A8000F4
0D5003F1
1F3007D0
1F617DA0
08ED5970
ENDCHAR
STARTCHAR udieresis
ENCODING 252
SWIDTH 528 0
DWIDTH 8 0
BBX 8 11 0 0
BITMAP
000A60A5
00000000
00000000
01F2006C
04E00099
07B000C7
0A8000F4
0D5003F1
1F3007D0
1F617DA0
08ED5970
ENDCHAR
STARTCHAR yacute
ENCODING 253
SWIDTH 448 0
DWIDTH 7 0
BBX 9 15 -1 -3
BITMAP
0000007800
000009D300
00005A1000
0000000000
00E4000B70
00C6004D00
009800C500
006A05C000
004C0C4000
001E5B0000
000DD30000
000C900000
003E200000
12D6000000
CD60000000
ENDCHAR
STARTCHAR thorn
ENCODING 254
SWIDTH 535 0
DWIDTH 9 0
BBX 9 14 -1 -3
BITMAP
0005D00000
0008A00000
000B600000
000E5BEC20
003FA21BB0
006C0006D0
00990006D0
00C60009A0
00F3002F30
03F913D900
06B8ED7000
0A80000000
0D50000000
1F20000000
ENDCHAR
STARTCHAR ydieresis
ENCODING 255
SWIDTH 448 0
DWIDTH 7 0
BBX 9 14 -1 -3
BITMAP
0006A06900
0000000000
0000000000
00E4000B70
00C6004D00
009800C500
006A05C000
004C0C4000
001E5B0000
000DD30000
000C900000
003E200000
12D6000000
CD60000000
ENDCHAR
STARTCHAR Amacron
ENCODING 256
SWIDTH 510 0
DWIDTH 8 0
BBX 9 13 -1 0
BITMAP
00006FFFA0
0000000000
0000000000
000007F500
00001DA700
0000988900
0002E16B00
000B805C00
004E103E00
00DFFFFF10
06D1000F30
1E50000E50
8C00000D70
ENDCHAR
STARTCHAR amacron
ENCODING 257
SWIDTH 537 0
DWIDTH 9 0
BBX 8 10 0 0
BITMAP
000AFFF6
00000000
002AED4E
02E913DC
0AA00099
2F3000C6
5F0000F3
5E0004F0
2F515CC0
07EE7790
ENDCHAR
STARTCHAR Abreve
ENCODING 258
SWIDTH 510 0
DWIDTH 8 0
BBX 10 14 -1 0
BITMAP
0000220031
00005A14C0
00001AEB20
0000000000
000007F500
00001DA700
0000988900
0002E16B00
000B805C00
004E103E00
00DFFFFF10
06D1000F30
1E50000E50
8C00000D70
ENDCHAR
STARTCHAR abreve
ENCODING 259
SWIDTH 537 0
DWIDTH 9 0
BBX 9 12 0 0
BITMAP
0007100710
000B617A00
0003CEA100
0000000000
002AED4E00
02E913DC00
0AA0009900
2F3000C600
5F0000F300
5E0004F000
2F515CC000
07EE779000
ENDCHAR
STARTCHAR Aogonek
ENCODING 260
SWIDTH 510 0
DWIDTH 8 0
BBX 9 13 -1 -3
BITMAP
000007F500
00001DA700
0000988900
0002E16B00
000B805C00
004E103E00
00DFFFFF10
06D1000F30
1E50000E50
8C00000D70
0000004910
000000E100
000000CE30
ENDCHAR
STARTCHAR aogonek
ENCODING 261
SWIDTH 537 0
DWIDTH 9 0
BBX 8 11 0 -3
BITMAP
002AED4E
02E913DC
0AA00099
2F3000C6
5F0000F3
5E0004F0
2F515DC0
07ED7790
00005710
0001C100
0001DD10
ENDCHAR
STARTCHAR Cacute
ENCODING 262
SWIDTH 550 0
DWIDTH 9 0
BBX 9 14 0 0
BITMAP
0000000490
0000006E70
000001B300
0000000000
00029DEB20
003E8218A0
01E7000000
08D0000000
0D60000000
1F30000000
1F40000000
0D70000000
05E5128600
005DFE8100
ENDCHAR
STARTCHAR cacute
ENCODING 263
SWIDTH 435 0
DWIDTH 7 0
BBX 8 12 0 0
BITMAP
000001B3
00002DA1
00009600
00000000
002AEE60
02E81350
0B900000
3F200000
6E000000
5E000000
1E713600
04CFD600
ENDCHAR
STARTCHAR Ccircumflex
ENCODING 264
SWIDTH 550 0
DWIDTH 9 0
BBX 9 14 0 0
BITMAP
000004EE10
00003D48A0
0000310040
0000000000
00029DEB20
003E8218A0
01E7000000
08D0000000
0D60000000
1F30000000
1F40000000
0D70000000
05E5128600
005DFE8100
ENDCHAR
STARTCHAR ccircumflex
ENCODING 265
SWIDTH 435 0
DWIDTH 7 0
BBX 8 12 0 0
BITMAP
00009F70
0009B4E2
00280045
00000000
002AEE60
02E81350
0B900000
3F200000
6E000000
5E000000
1E713600
04CFD600
ENDCHAR
STARTCHAR Cdotaccent
ENCODING 266
SWIDTH 550 0
DWIDTH 9 0
BBX 9 13 0 0
BITMAP
000000D600
0000000000
0000000000
00029DEB20
003E8218A0
01E7000000
08D0000000
0D60000000
1F30000000
1F40000000
0D70000000
05E5128600
005DFE8100
ENDCHAR
STARTCHAR cdotaccent
ENCODING 267
SWIDTH 435 0
DWIDTH 7 0
BBX 7 11 0 0
BITMAP
00006C00
00000000
00000000
002AEE60
02E81350
0B900000
3F200000
6E000000
5E000000
1E713600
04CFD600
ENDCHAR
STARTCHAR Ccaron
ENCODING 268
SWIDTH 550 0
DWIDTH 9 0
BBX 9 14 0 0
BITMAP
0000220040
00002D3AA0
000007FA00
0000000000
00029DEB20
003E8218A0
01E7000000
08D0000000
0D60000000
1F30000000
1F40000000
0D70000000
05E5128600
005DFE8100
ENDCHAR
STARTCHAR ccaron
ENCODING 269
SWIDTH 435 0
DWIDTH 7 0
BBX 8 12 0 0
BITMAP
00090037
000995D2
0001EE30
00000000
002AEE60
02E81350
0B900000
3F200000
6E000000
5E000000
1E713600
04CFD600
ENDCHAR
STARTCHAR Dcaron
ENCODING 270
SWIDTH 592 0
DWIDTH 9 0
BBX 9 14 0 0
BITMAP
0000400230
0000B75D20
00002EE300
0000000000
007FFEB400
00A9028F50
00D60009C0
01F30004F0
04E00004F0
07B00006D0
0B80000B90
0E50005E20
2F2028E500
5FFFD92000
ENDCHAR
STARTCHAR dcaron
ENCODING 271
SWIDTH 542 0
DWIDTH 9 0
BBX 11 12 0 0
BITMAP
000000000670
00000008B930
0000000B7A00
0000000E4000
002AED5F1000
02E913DD0000
0AA0009A0000
2F3000C70000
5F0000F40000
5E0004F10000
2F515CC00000
07EE77900000
ENDCHAR
STARTCHAR Dcroat
ENCODING 272
SWIDTH 610 0
DWIDTH 10 0
BBX 10 10 0 0
BITMAP
003FFEC600
006D015E90
00A90004F2
00D60000F5
2EFEE800E4
04F11002F3
06C00007D0
0990002E60
0D6016E900
1FFFEB5000
ENDCHAR
STARTCHAR dcroat
ENCODING 273
SWIDTH 535 0
DWIDTH 9 0
BBX 10 12 0 -1
BITMAP
00000007B0
0000000A90
00004FFFF8
0000000E40
0000002F10
003BEC8C00
05E613D900
1E5000C500
5E0001F200
4F414CD000
09EE98A000
0000011000
ENDCHAR
STARTCHAR Emacron
ENCODING 274
SWIDTH 503 0
DWIDTH 8 0
BBX 9 13 0 0
BITMAP
0003FFFD00
0000000000
0000000000
007FFFFF50
00A9000000
00D5000000
01F2000000
04FFFFB000
07B0000000
0B80000000
0E50000000
2F20000000
5FFFFF9000
ENDCHAR
STARTCHAR emacron
ENCODING 275
SWIDTH 481 0
DWIDTH 8 0
BBX 8 10 0 0
BITMAP
000DFFF3
00000000
003BED40
04D414E0
0D3000E2
3FFFFFF0
6D000000
5E000000
1E812700
03CED800
ENDCHAR
STARTCHAR Ebreve
ENCODING 276
SWIDTH 503 0
DWIDTH 8 0
BBX 9 14 0 0
BITMAP
0001300210
0003C12D20
00009EC400
0000000000
007FFFFF50
00A9000000
00D5000000
01F2000000
04FFFFB000
07B0000000
0B80000000
0E50000000
2F20000000
5FFFFF9000
ENDCHAR
STARTCHAR ebreve
ENCODING 277
SWIDTH 481 0
DWIDTH 8 0
BBX 8 12 0 0
BITMAP
00080017
000E31A7
0005DE80
00000000
003BED40
04D414E0
0D3000E2
3FFFFFF0
6D000000
5E000000
1E812700
03CED800
ENDCHAR
STARTCHAR Edotaccent
ENCODING 278
SWIDTH 503 0
DWIDTH 8 0
BBX 9 13 0 0
BITMAP
00000B8000
0000000000
0000000000
007FFFFF50
00A9000000
00D5000000
01F2000000
04FFFFB000
07B0000000
0B80000000
0E50000000
2F20000000
5FFFFF9000
ENDCHAR
STARTCHAR edotaccent
ENCODING 279
SWIDTH 481 0
DWIDTH 8 0
BBX 8 11 0 0
BITMAP
00007C00
00000000
00000000
003BED40
04D414E0
0D3000E2
3FFFFFF0
6D000000
5E000000
1E812700
03CED800
ENDCHAR
STARTCHAR Eogonek
ENCODING 280
SWIDTH 503 0
DWIDTH 8 0
BBX 9 13 0 -3
BITMAP
007FFFFF50
00A9000000
00D5000000
01F2000000
04FFFFB000
07B0000000
0B80000000
0E50000000
2F20000000
5FFFFF9000
0000760000
0003C10000
0003DD0000
ENDCHAR
STARTCHAR eogonek
ENCODING 281
SWIDTH 481 0
DWIDTH 8 0
BBX 8 11 0 -3
BITMAP
003BED40
04D414E0
0D3000E2
3FFFFFF0
6D000000
5E000000
1E812700
03CEF800
00065000
001D1000
001DD200
ENDCHAR
STARTCHAR Ecaron
ENCODING 282
SWIDTH 503 0
DWIDTH 8 0
BBX 9 14 0 0
BITMAP
0001300410
0001D48B10
00005FC100
0000000000
007FFFFF50
00A9000000
00D5000000
01F2000000
04FFFFB000
07B0000000
0B80000000
0E50000000
2F20000000
5FFFFF9000
ENDCHAR
STARTCHAR ecaron
ENCODING 283
SWIDTH 481 0
DWIDTH 8 0
BBX 8 12 0 0
BITMAP
00190047
000A86D2
0002EE20
00000000
003BED40
04D414E0
0D3000E2
3FFFFFF0
6D000000
5E000000
1E812700
03CED800
ENDCHAR
STARTCHAR Gcircumflex
ENCODING 284
SWIDTH 588 0
DWIDTH 9 0
BBX 9 14 0 0
BITMAP
000004FE10
00004D4990
0000410040
0000000000
00029DFC30
003E9206C0
01E7000000
08D0000000
0D60000000
1F300BFF90
1F40000B50
0D80000F20
05E6117E00
005CFEA300
ENDCHAR
STARTCHAR gcircumflex
ENCODING 285
SWIDTH 531 0
DWIDTH 9 0
BBX 8 15 0 -3
BITMAP
00008F90
0007C3D3
00190036
00000000
003BED5D
03E714EA
0C7000B7
3F1000E4
5E0004F1
3F415DD0
08EE8990
00000C60
00003F20
A513C900
4CFD8000
ENDCHAR
STARTCHAR Gbreve
ENCODING 286
SWIDTH 588 0
DWIDTH 9 0
BBX 10 14 0 0
BITMAP
0000220031
00005A14C0
00000AEB20
0000000000
00029DFC30
003E9206C0
01E7000000
08D0000000
0D60000000
1F300BFF90
1F40000B50
0D80000F20
05E6117E00
005CFEA300
ENDCHAR
STARTCHAR gbreve
ENCODING 287
SWIDTH 531 0
DWIDTH 9 0
BBX 8 15 0 -3
BITMAP
00080008
000C5189
0003DE91
00000000
003BED5D
03E714EA
0C7000B7
3F1000E4
5E0004F1
3F415DD0
08EE8990
00000C60
00003F20
A513C900
4CFD8000
ENDCHAR
STARTCHAR Gdotaccent
ENCODING 288
SWIDTH 588 0
DWIDTH 9 0
BBX 9 13 0 0
BITMAP
000001D500
0000000000
0000000000
00029DFC30
003E9206C0
01E7000000
08D0000000
0D60000000
1F300BFF90
1F40000B50
0D80000F20
05E6117E00
005CFEA300
ENDCHAR
STARTCHAR gdotaccent
ENCODING 289
SWIDTH 531 0
DWIDTH 9 0
BBX 8 14 0 -3
BITMAP
00005D10
00000000
00000000
003BED5D
03E714EA
0C7000B7
3F1000E4
5E0004F1
3F415DD0
08EE8990
00000C60
00003F20
A513C900
4CFD8000
ENDCHAR
STARTCHAR uni0122
ENCODING 290
SWIDTH 588 0
DWIDTH 9 0
BBX 9 14 0 -4
BITMAP
00029DFC30
003E9206C0
01E7000000
08D0000000
0D60000000
1F300BFF90
1F40000B50
0D80000F20
05E6117E00
005CFEA300
0000000000
0003D50000
0001A80000
004EA10000
ENDCHAR
STARTCHAR uni0123
ENCODING 291
SWIDTH 531 0
DWIDTH 9 0
BBX 8 15 0 -3
BITMAP
00002BE1
0000B710
00007E10
00000000
003BED5D
03E714EA
0C7000B7
3F1000E4
5E0004F1
3F415DD0
08EE8990
00000C60
00003F20
A513C900
4CFD8000
ENDCHAR
STARTCHAR Hcircumflex
ENCODING 292
SWIDTH 622 0
DWIDTH 10 0
BBX 10 14 0 0
BITMAP
000008FA00
00008B3D40
0000500130
0000000000
007C00007C
00A90000A8
00D50000E5
01F20002F2
04FFFFFFE0
07A00009B0
0B80000C80
0E50000E50
2F20003F10
5E00006D00
ENDCHAR
STARTCHAR hcircumflex
ENCODING 293
SWIDTH 519 0
DWIDTH 8 0
BBX 8 15 0 0
BITMAP
005FD000
05D3A800
04100400
00000000
005D0000
008A0000
00B70000
00E49EC2
02FA31D7
06D100B7
099000E5
0C6001F2
0F3004E0
3F1007B0
6C000A80
ENDCHAR
STARTCHAR Hbar
ENCODING 294
SWIDTH 643 0
DWIDTH 10 0
BBX 11 10 0 0
BITMAP
004E00005E00
007B00008B00
0AFFFFFFFFE0
00D60000D600
01F40000F200
04FFFFFFE000
08C00007B000
0B90000A7000
0E50000E4000
3F10003F1000
ENDCHAR
STARTCHAR hbar
ENCODING 295
SWIDTH 519 0
DWIDTH 8 0
BBX 8 11 0 0
BITMAP
005E0000
007C0000
0AFFFF60
00C70000
01F40000
04F5CFD2
07F821D7
0B9000D5
0E6002F1
2F2006C0
6D000A80
ENDCHAR
STARTCHAR Itilde
ENCODING 296
SWIDTH 252 0
DWIDTH 4 0
BBX 7 14 0 0
BITMAP
00200100
0BEB1A50
4908E900
00000000
007C0000
00A90000
00D60000
01F30000
04E00000
07B00000
0B800000
0E500000
2F200000
5E000000
ENDCHAR
STARTCHAR itilde
ENCODING 297
SWIDTH 237 0
DWIDTH 4 0
BBX 6 12 0 0
BITMAP
035004
2DB92D
750AE5
000000
01F300
04F000
07C000
099000
0C6000
0F3000
3F0000
6C0000
ENDCHAR
STARTCHAR Imacron
ENCODING 298
SWIDTH 252 0
DWIDTH 4 0
BBX 6 13 0 0
BITMAP
09FFF7
000000
000000
007C00
00A900
00D600
01F300
04E000
07B000
0B8000
0E5000
2F2000
5E0000
ENDCHAR
STARTCHAR imacron
ENCODING 299
SWIDTH 237 0
DWIDTH 4 0
BBX 6 10 0 0
BITMAP
0EFFF2
000000
01F300
04F000
07C000
099000
0C6000
0F3000
3F0000
6C0000
ENDCHAR
STARTCHAR uni012C
ENCODING 300
SWIDTH 252 0
DWIDTH 4 0
BBX 6 14 0 0
BITMAP
031004
08716A
02CEA1
000000
007C00
00A900
00D600
01F300
04E000
07B000
0B8000
0E5000
2F2000
5E0000
ENDCHAR
STARTCHAR uni012D
ENCODING 301
SWIDTH 237 0
DWIDTH 4 0
BBX 6 12 0 0
BITMAP
170017
0E31A6
06ED70
000000
01F300
04F000
07C000
099000
0C6000
0F3000
3F0000
6C0000
ENDCHAR
STARTCHAR Iogonek
ENCODING 302
SWIDTH 252 0
DWIDTH 4 0
BBX 5 13 -1 -3
BITMAP
0007C0
000A90
000D60
001F30
004E00
007B00
00B800
00E500
02F200
05E000
1A4000
781000
6E9000
ENDCHAR
STARTCHAR iogonek
ENCODING 303
SWIDTH 237 0
DWIDTH 4 0
BBX 5 15 -1 -3
BITMAP
000120
0009E0
000230
000000
001F30
004F00
007C00
009900
00C600
00F300
03F000
06C000
192000
861000
7E7000
ENDCHAR
STARTCHAR Idotaccent
ENCODING 304
SWIDTH 252 0
DWIDTH 4 0
BBX 5 13 0 0
BITMAP
003D30
000000
000000
007C00
00A900
00D600
01F300
04E000
07B000
0B8000
0E5000
2F2000
5E0000
ENDCHAR
STARTCHAR dotlessi
ENCODING 305
SWIDTH 237 0
DWIDTH 4 0
BBX 4 8 0 0
BITMAP
01F3
04F0
07C0
0990
0C60
0F30
3F00
6C00
ENDCHAR
STARTCHAR Jcircumflex
ENCODING 308
SWIDTH 456 0
DWIDTH 7 0
BBX 9 14 0 0
BITMAP
000002EF20
00002D57B0
0000320040
0000000000
000001F300
000004E000
000007B000
00000B8000
00000E5000
00002F2000
00005E0000
10009A0000
C615E30000
4CFC400000
ENDCHAR
STARTCHAR jcircumflex
ENCODING 309
SWIDTH 238 0
DWIDTH 4 0
BBX 8 15 -2 -3
BITMAP
0000BF50
000B95D1
00470063
00000000
0001F300
0004E000
0007C000
000A9000
000D5000
001F2000
004E0000
008B0000
00B80000
12F30000
BE700000
ENDCHAR
STARTCHAR uni0136
ENCODING 310
SWIDTH 559 0
DWIDTH 9 0
BBX 10 14 0 -4
BITMAP
007C0006D2
00A9007D20
00D607D200
01F28D2000
04E9DD0000
07FB1E4000
0BB009A000
0E5003F100
2F2000C700
5E00007D00
0000000000
0008C10000
0002E30000
009D600000
ENDCHAR
STARTCHAR uni0137
ENCODING 311
SWIDTH 476 0
DWIDTH 8 0
BBX 8 15 0 -4
BITMAP
005D0000
008A0000
00B70000
00E401D6
02F11C70
06D0B800
09AAE000
0CEBE400
0FB09A00
3F103F10
6C000C70
00000000
007C2000
002D4000
08D70000
ENDCHAR
STARTCHAR kgreenlandic
ENCODING 312
SWIDTH 476 0
DWIDTH 8 0
BBX 8 8 0 0
BITMAP
01F302D6
04F01D70
07C1C800
0AACE000
0CF8E400
1F908A00
3F002F10
6C000C70
ENDCHAR
STARTCHAR Lacute
ENCODING 313
SWIDTH 462 0
DWIDTH 7 0
BBX 7 14 0 0
BITMAP
00005800
0008E600
002B2000
00000000
007C0000
00A90000
00D60000
01F30000
04E00000
07B00000
0B800000
0E500000
2F200000
5FFFFF50
ENDCHAR
STARTCHAR lacute
ENCODING 314
SWIDTH 248 0
DWIDTH 4 0
BBX 6 15 0 0
BITMAP
000049
0006E7
001B30
000000
005D00
008A00
00B700
00E400
03F100
06D000
099000
0C6000
0F3000
3F0000
2E7000
ENDCHAR
STARTCHAR uni013B
ENCODING 315
SWIDTH 462 0
DWIDTH 7 0
BBX 7 14 0 -4
BITMAP
007C0000
00A90000
00D60000
01F30000
04E00000
07B00000
0B800000
0E500000
2F200000
5FFFFF50
00000000
005D3000
001C6000
06D80000
ENDCHAR
STARTCHAR uni013C
ENCODING 316
SWIDTH 248 0
DWIDTH 4 0
BBX 5 15 -1 -4
BITMAP
0005D0
0008A0
000B70
000E40
003F10
006D00
009900
00C600
00F300
03F000
02E700
000000
0CA000
05E000
DC4000
ENDCHAR
STARTCHAR Lcaron
ENCODING 317
SWIDTH 462 0
DWIDTH 7 0
BBX 8 11 0 0
BITMAP
00000085
007C00B1
00A900A0
00D60000
01F30000
04E00000
07B00000
0B800000
0E500000
2F200000
5FFFFF50
ENDCHAR
STARTCHAR lcaron
ENCODING 318
SWIDTH 242 0
DWIDTH 4 0
BBX 6 12 0 0
BITMAP
00003A
005D66
008A91
00B700
00E400
03F100
06D000
099000
0C6000
0F3000
3F0000
2E7000
ENDCHAR
STARTCHAR Ldot
ENCODING 319
SWIDTH 462 0
DWIDTH 7 0
BBX 7 10 0 0
BITMAP
007C0000
00A90000
00D60000
01F30000
04E008A0
07B00BA0
0B800000
0E500000
2F200000
5FFFFF50
ENDCHAR
STARTCHAR ldot
ENCODING 320
SWIDTH 331 0
DWIDTH 5 0
BBX 6 11 0 0
BITMAP
005D00
008A00
00B700
00E400
03F1B7
06D0D7
099000
0C6000
0F3000
3F0000
2E7000
ENDCHAR
STARTCHAR Lslash
ENCODING 321
SWIDTH 462 0
DWIDTH 7 0
BBX 8 10 -1 0
BITMAP
0007C000
000A9000
000D6000
001F3020
004F7CA0
01AD7100
1DD80000
02E50000
02F20000
05FFFFF5
ENDCHAR
STARTCHAR lslash
ENCODING 322
SWIDTH 252 0
DWIDTH 4 0
BBX 5 11 0 0
BITMAP
004E00
007B00
00A800
00E850
02FB20
4ED000
49A000
0B7000
0E4000
2F1000
2D8000
ENDCHAR
STARTCHAR Nacute
ENCODING 323
SWIDTH 619 0
DWIDTH 10 0
BBX 10 14 0 0
BITMAP
0000000670
0000008E50
000003B200
0000000000
007F20007B
00AE7000A8
00D7D000E5
01F1E302F1
04D08905D0
07A03E08A0
0B700C5A70
0E4006AD40
2F1001EE10
5D0000AD00
ENDCHAR
STARTCHAR nacute
ENCODING 324
SWIDTH 525 0
DWIDTH 8 0
BBX 8 12 0 0
BITMAP
00000069
000008D4
00004A10
00000000
01F2AEC2
04FA31D7
07C000B7
0A9000E5
0C6001F2
1F3004E0
3F0007B0
6C000A80
ENDCHAR
STARTCHAR uni0145
ENCODING 325
SWIDTH 619 0
DWIDTH 10 0
BBX 10 14 0 -4
BITMAP
007F20007B
00AE7000A8
00D7D000E5
01F1E302F1
04D08905D0
07A03E08A0
0B700C5A70
0E4006AD40
2F1001EE10
5D0000AD00
0000000000
0008C10000
0002E30000
009D600000
ENDCHAR
STARTCHAR uni0146
ENCODING 326
SWIDTH 525 0
DWIDTH 8 0
BBX 8 12 0 -4
BITMAP
01F2AEC2
04FA31D7
07C000B7
0A9000E5
0C6001F2
1F3004E0
3F0007B0
6C000A80
00000000
005D3000
001C6000
06D80000
ENDCHAR
STARTCHAR Ncaron
ENCODING 327
SWIDTH 619 0
DWIDTH 10 0
BBX 10 14 0 0
BITMAP
0000310050
00005C3C70
00000AF700
0000000000
007F20007B
00AE7000A8
00D7D000E5
01F1E302F1
04D08905D0
07A03E08A0
0B700C5A70
0E4006AD40
2F1001EE10
5D0000AD00
ENDCHAR
STARTCHAR ncaron
ENCODING 328
SWIDTH 525 0
DWIDTH 8 0
BBX 9 12 0 0
BITMAP
0006300910
0003D3C700
00009F8000
0000000000
01F2AEC200
04FA31D700
07C000B700
0A9000E500
0C6001F200
1F3004E000
3F0007B000
6C000A8000
ENDCHAR
STARTCHAR napostrophe
ENCODING 329
SWIDTH 739 0
DWIDTH 12 0
BBX 10 11 1 0
BITMAP
05E1000000
00C0000000
1950000000
0300976DE7
0000CD617E
0000E5004E
0003F1006C
0005D00099
0008A000C6
000B7000F3
000E4003F0
ENDCHAR
STARTCHAR Omacron
ENCODING 332
SWIDTH 633 0
DWIDTH 10 0
BBX 9 13 1 0
BITMAP
0007FFFA00
0000000000
0000000000
003AEEB200
04E7119E10
1E50000D70
8C00000A90
D6000009A0
F400000B80
F400003F30
C80000BA00
5E512BC100
05DFD81000
ENDCHAR
STARTCHAR omacron
ENCODING 333
SWIDTH 515 0
DWIDTH 8 0
BBX 8 10 0 0
BITMAP
0009FFF7
00000000
002BED60
02E714F3
0B8000B8
3F1000B8
5E0000D6
4E0005E1
1E615E50
04CFC400
ENDCHAR
STARTCHAR uni014E
ENCODING 334
SWIDTH 633 0
DWIDTH 10 0
BBX 9 14 1 0
BITMAP
0002200300
0006914C00
0001BEB200
0000000000
003AEEB200
04E7119E10
1E50000D70
8C00000A90
D6000009A0
F400000B80
F400003F30
C80000BA00
5E512BC100
05DFD81000
ENDCHAR
STARTCHAR uni014F
ENCODING 335
SWIDTH 515 0
DWIDTH 8 0
BBX 9 12 0 0
BITMAP
0007100710
000A716B00
0002CEA100
0000000000
002BED6000
02E714F300
0B8000B800
3F1000B800
5E0000D600
4E0005E100
1E615E5000
04CFC40000
ENDCHAR
STARTCHAR Ohungarumlaut
ENCODING 336
SWIDTH 633 0
DWIDTH 10 0
BBX 10 14 1 0
BITMAP
00000751B1
00004C1B50
0000A23500
0000000000
003AEEB200
04E7119E10
1E50000D70
8C00000A90
D6000009A0
F400000B80
F400003F30
C80000BA00
5E512BC100
05DFD81000
ENDCHAR
STARTCHAR ohungarumlaut
ENCODING 337
SWIDTH 515 0
DWIDTH 8 0
BBX 9 12 0 0
BITMAP
00000A4490
00006B1D30
0000B18500
0000000000
002BED6000
02E714F300
0B8000B800
3F1000B800
5E0000D600
4E0005E100
1E615E5000
04CFC40000
ENDCHAR
STARTCHAR OE
ENCODING 338
SWIDTH 816 0
DWIDTH 13 0
BBX 13 10 1 0
BITMAP
0029DFFFFFFF50
05E8205D000000
2E50008A000000
9B0000B6000000
D60000EFFFB000
F40003F0000000
F40006C0000000
C9000990000000
5F720C60000000
04BEFFFFFF9000
ENDCHAR
STARTCHAR oe
ENCODING 339
SWIDTH 812 0
DWIDTH 13 0
BBX 13 8 0 0
BITMAP
003BED407DE800
03E715E8912D40
0B8000CB000960
3F1000BFFFFF50
5E0000E6000000
4E0006F7000000
1E615E6D316200
04DEB307EEA200
ENDCHAR
STARTCHAR Racute
ENCODING 340
SWIDTH 555 0
DWIDTH 9 0
BBX 9 14 0 0
BITMAP
0000002B10
000003EA10
00000A5000
0000000000
007FFFE910
00A9003D90
00D60007B0
01F3000A80
04F0028B10
07FFFE4000
0B904F2000
0E500D8000
2F2006E000
5E0001E500
ENDCHAR
STARTCHAR racute
ENCODING 341
SWIDTH 342 0
DWIDTH 5 0
BBX 7 12 0 0
BITMAP
00000A50
0001BB20
00087000
00000000
01F2CD00
04E82100
07C00000
0A800000
0C500000
1F300000
3F000000
6C000000
ENDCHAR
STARTCHAR uni0156
ENCODING 342
SWIDTH 555 0
DWIDTH 9 0
BBX 9 14 0 -4
BITMAP
007FFFE910
00A9003D90
00D60007B0
01F3000A80
04F0028B10
07FFFE4000
0B904F2000
0E500D8000
2F2006E000
5E0001E500
0000000000
000CA00000
0005E00000
00DC400000
ENDCHAR
STARTCHAR uni0157
ENCODING 343
SWIDTH 342 0
DWIDTH 5 0
BBX 7 12 -1 -4
BITMAP
001F2CD0
004E8210
007C0000
00A80000
00C50000
01F30000
03F00000
06C00000
00000000
0BA00000
04E00000
CC400000
ENDCHAR
STARTCHAR Rcaron
ENCODING 344
SWIDTH 555 0
DWIDTH 9 0
BBX 9 14 0 0
BITMAP
0001400320
0000D57C10
00004FD100
0000000000
007FFFE910
00A9003D90
00D60007B0
01F3000A80
04F0028B10
07FFFE4000
0B904F2000
0E500D8000
2F2006E000
5E0001E500
ENDCHAR
STARTCHAR rcaron
ENCODING 345
SWIDTH 342 0
DWIDTH 5 0
BBX 7 12 0 0
BITMAP
00910290
007B4D40
000CF400
00000000
01F2CD00
04E82100
07C00000
0A800000
0C500000
1F300000
3F000000
6C000000
ENDCHAR
STARTCHAR Sacute
ENCODING 346
SWIDTH 506 0
DWIDTH 8 0
BBX 8 14 0 0
BITMAP
00000049
000006E7
00001B30
00000000
0019DEB3
00AB217D
00F40000
00DA1000
003DD500
00017FA0
000003F4
220000F4
8D412AC0
06CFD910
ENDCHAR
STARTCHAR sacute
ENCODING 347
SWIDTH 402 0
DWIDTH 6 0
BBX 7 12 0 0
BITMAP
00000960
0001BC20
00068000
00000000
01AED600
0AA13800
0C800000
04EB2000
002BE200
0000B700
C613E400
2BED6000
ENDCHAR
STARTCHAR Scircumflex
ENCODING 348
SWIDTH 506 0
DWIDTH 8 0
BBX 8 14 0 0
BITMAP
00004EE1
0003D499
00031004
00000000
0019DEB3
00AB217D
00F40000
00DA1000
003DD500
00017FA0
000003F4
220000F4
8D412AC0
06CFD910
ENDCHAR
STARTCHAR scircumflex
ENCODING 349
SWIDTH 402 0
DWIDTH 6 0
BBX 7 12 0 0
BITMAP
0006FB00
005D3C50
00910280
00000000
01AED600
0AA13800
0C800000
04EB2000
002BE200
0000B700
C613E400
2BED6000
ENDCHAR
STARTCHAR uni015E
ENCODING 350
SWIDTH 506 0
DWIDTH 8 0
BBX 8 14 0 -4
BITMAP
0019DEB3
00AB217D
00F40000
00DA1000
003DD500
00017FA0
000003F4
220000F4
8D412AC0
06CFD910
001B0000
004D3000
002C5000
06D80000
ENDCHAR
STARTCHAR uni015F
ENCODING 351
SWIDTH 402 0
DWIDTH 6 0
BBX 6 12 0 -4
BITMAP
01AED6
0AA138
0C8000
04EB20
002BE2
0000B7
C613E4
2BED60
01C100
03D400
02B600
5D9000
ENDCHAR
STARTCHAR Scaron
ENCODING 352
SWIDTH 506 0
DWIDTH 8 0
BBX 8 14 0 0
BITMAP
00022004
0003D3AA
00008FA0
00000000
0019DEB3
00AB217D
00F40000
00DA1000
003DD500
00017FA0
000003F4
220000F4
8D412AC0
06CFD910
ENDCHAR
STARTCHAR scaron
ENCODING 353
SWIDTH 402 0
DWIDTH 6 0
BBX 7 12 0 0
BITMAP
00820190
006C3D50
000BF500
00000000
01AED600
0AA13800
0C800000
04EB2000
002BE200
0000B700
C613E400
2BED6000
ENDCHAR
STARTCHAR uni0162
ENCODING 354
SWIDTH 510 0
DWIDTH 8 0
BBX 8 14 1 -4
BITMAP
6FFFFFFE
0009A000
000C7000
000F4000
003F1000
006D0000
009A0000
00C60000
01F30000
04F00000
08500000
0AA00000
15D00000
DB300000
ENDCHAR
STARTCHAR uni0163
ENCODING 355
SWIDTH 325 0
DWIDTH 5 0
BBX 6 15 0 -4
BITMAP
000200
004D00
008A00
0DFFF6
00F300
03F000
06C000
099000
0C6000
0D8110
06EE40
01C100
03C500
02B700
5E9000
ENDCHAR
STARTCHAR Tcaron
ENCODING 356
SWIDTH 510 0
DWIDTH 8 0
BBX 8 14 1 0
BITMAP
00310050
005C3C70
000AF700
00000000
6FFFFFFE
0009A000
000C7000
000F4000
003F1000
006D0000
009A0000
00C60000
01F30000
04F00000
ENDCHAR
STARTCHAR tcaron
ENCODING 357
SWIDTH 325 0
DWIDTH 5 0
BBX 6 12 1 0
BITMAP
000076
0020A2
04D0A0
08A000
DFFF60
0F3000
3F0000
6C0000
990000
C60000
D81100
6EE400
ENDCHAR
STARTCHAR Utilde
ENCODING 360
SWIDTH 616 0
DWIDTH 10 0
BBX 9 14 1 0
BITMAP
0000200100
000BEB1A40
004908E900
0000000000
08B00008B0
0B80000B80
0E50000E40
2F20002F10
5D00005D00
9A00009A00
B80000D600
A90003F100
5E413D7000
06DED60000
ENDCHAR
STARTCHAR utilde
ENCODING 361
SWIDTH 528 0
DWIDTH 8 0
BBX 9 12 0 0
BITMAP
0002510310
001DAB1D20
004807E800
0000000000
01F2006C00
04E0009900
07B000C700
0A8000F400
0D5003F100
1F3007D000
1F617DA000
08ED597000
ENDCHAR
STARTCHAR Umacron
ENCODING 362
SWIDTH 616 0
DWIDTH 10 0
BBX 9 13 1 0
BITMAP
0009FFF700
0000000000
0000000000
08B00008B0
0B80000B80
0E50000E40
2F20002F10
5D00005D00
9A00009A00
B80000D600
A90003F100
5E413D7000
06DED60000
ENDCHAR
STARTCHAR umacron
ENCODING 363
SWIDTH 528 0
DWIDTH 8 0
BBX 8 10 0 0
BITMAP
000BFFF5
00000000
01F2006C
04E00099
07B000C7
0A8000F4
0D5003F1
1F3007D0
1F617DA0
08ED5970
ENDCHAR
STARTCHAR Ubreve
ENCODING 364
SWIDTH 616 0
DWIDTH 10 0
BBX 9 14 1 0
BITMAP
0003100400
0009717A00
0002CEA100
0000000000
08B00008B0
0B80000B80
0E50000E40
2F20002F10
5D00005D00
9A00009A00
B80000D600
A90003F100
5E413D7000
06DED60000
ENDCHAR
STARTCHAR ubreve
ENCODING 365
SWIDTH 528 0
DWIDTH 8 0
BBX 8 12 0 0
BITMAP
00080008
000B6179
0003DE91
00000000
01F2006C
04E00099
07B000C7
0A8000F4
0D5003F1
1F3007D0
1F617DA0
08ED5970
ENDCHAR
STARTCHAR Uring
ENCODING 366
SWIDTH 616 0
DWIDTH 10 0
BBX 9 14 1 0
BITMAP
00006EB000
0000C2C100
0000AE8000
0000000000
08B00008B0
0B80000B80
0E50000E40
2F20002F10
5D00005D00
9A00009A00
B80000D600
A90003F100
5E413D7000
06DED60000
ENDCHAR
STARTCHAR uring
ENCODING 367
SWIDTH 528 0
DWIDTH 8 0
BBX 8 12 0 0
BITMAP
00009EB0
0003B2D1
0001CE70
00000000
01F2006C
04E00099
07B000C7
0A8000F4
0D5003F1
1F3007D0
1F617DA0
08ED5970
ENDCHAR
STARTCHAR Uhungarumlaut
ENCODING 368
SWIDTH 616 0
DWIDTH 10 0
BBX 9 14 1 0
BITMAP
00000A33A0
00006B2C30
0001B14300
0000000000
08B00008B0
0B80000B80
0E50000E40
2F20002F10
5D00005D00
9A00009A00
B80000D600
A90003F100
5E413D7000
06DED60000
ENDCHAR
STARTCHAR uhungarumlaut
ENCODING 369
SWIDTH 528 0
DWIDTH 8 0
BBX 9 12 0 0
BITMAP
00000B2580
0000792D20
0001B09300
0000000000
01F2006C00
04E0009900
07B000C700
0A8000F400
0D5003F100
1F3007D000
1F617DA000
08ED597000
ENDCHAR
STARTCHAR Uogonek
ENCODING 370
SWIDTH 616 0
DWIDTH 10 0
BBX 9 13 1 -3
BITMAP
07B00008B0
0B80000B80
0E50000E40
2F20002F10
5D00005D00
9A00009A00
B80000D600
A90003F200
5E413D8000
07DFD60000
0086000000
03C1000000
03DC000000
ENDCHAR
STARTCHAR uogonek
ENCODING 371
SWIDTH 528 0
DWIDTH 8 0
BBX 8 11 0 -3
BITMAP
01F2006C
04E00099
07B000C7
0A8000F4
0D5003F1
1F3007D0
1F617DA0
08ED5A70
00009700
0004B100
0003EC00
ENDCHAR
STARTCHAR Wcircumflex
ENCODING 372
SWIDTH 756 0
DWIDTH 12 0
BBX 12 14 1 0
BITMAP
000006FC0000
00006C3B6000
000040014000
000000000000
5E0007E0007C
6D000CF000D5
6D0069F004D0
6D00D2F00A70
6C05A0F12E10
6C0C30F18900
7B4B00F2E300
7AB400E6B000
7DC000ED5000
7F5000ED0000
ENDCHAR
STARTCHAR wcircumflex
ENCODING 373
SWIDTH 707 0
DWIDTH 11 0
BBX 11 12 1 0
BITMAP
00002EE20000
0002D68A0000
000740091000
000000000000
D6008E001E20
C601CE006B00
B7067E00D400
980C2E14C000
894A0D2B6000
79B40C5E0000
6BC00BB80000
5F600BF10000
ENDCHAR
STARTCHAR Ycircumflex
ENCODING 374
SWIDTH 461 0
DWIDTH 7 0
BBX 8 14 1 0
BITMAP
001CF500
01B84D10
01400310
00000000
8B0001E5
4E000A90
0E306D10
0A72E300
06BB6000
02FB0000
01F30000
04E00000
07C00000
0A800000
ENDCHAR
STARTCHAR ycircumflex
ENCODING 375
SWIDTH 448 0
DWIDTH 7 0
BBX 9 15 -1 -3
BITMAP
00004FC000
0004D4B700
0008201800
0000000000
00E4000B70
00C6004D00
009800C500
006A05C000
004C0C4000
001E5B0000
000DD30000
000C900000
003E200000
12D6000000
CD60000000
ENDCHAR
STARTCHAR Ydieresis
ENCODING 376
SWIDTH 461 0
DWIDTH 7 0
BBX 8 13 1 0
BITMAP
00D21D20
00000000
00000000
8B0001E5
4E000A90
0E306D10
0A72E300
06BB6000
02FB0000
01F30000
04E00000
07C00000
0A800000
ENDCHAR
STARTCHAR Zacute
ENCODING 377
SWIDTH 512 0
DWIDTH 8 0
BBX 9 14 0 0
BITMAP
0000004900
000006E700
00001B3000
0000000000
00BFFFFF80
0000007C10
000004E200
00002E4000
0001D60000
000B900000
009B000000
06D1000000
3E30000000
DFFFFFE000
ENDCHAR
STARTCHAR zacute
ENCODING 378
SWIDTH 410 0
DWIDTH 7 0
BBX 8 12 -1 0
BITMAP
00000069
000008D4
00004A10
00000000
004FFFFC
000004E3
00002E40
0001D700
000BA000
009C0000
06D10000
1FFFFF80
ENDCHAR
STARTCHAR Zdotaccent
ENCODING 379
SWIDTH 512 0
DWIDTH 8 0
BBX 9 13 0 0
BITMAP
00001D5000
0000000000
0000000000
00BFFFFF80
0000007C10
000004E200
00002E4000
0001D60000
000B900000
009B000000
06D1000000
3E30000000
DFFFFFE000
ENDCHAR
STARTCHAR zdotaccent
ENCODING 380
SWIDTH 410 0
DWIDTH 7 0
BBX 8 11 -1 0
BITMAP
00001D50
00000000
00000000
004FFFFC
000004E3
00002E40
0001D700
000BA000
009C0000
06D10000
1FFFFF80
ENDCHAR
STARTCHAR Zcaron
ENCODING 381
SWIDTH 512 0
DWIDTH 8 0
BBX 9 14 0 0
BITMAP
0002200400
0003D3A900
00008FA000
0000000000
00BFFFFF80
0000007C10
000004E200
00002E4000
0001D60000
000B900000
009B000000
06D1000000
3E30000000
DFFFFFE000
ENDCHAR
STARTCHAR zcaron
ENCODING 382
SWIDTH 410 0
DWIDTH 7 0
BBX 9 12 -1 0
BITMAP
0006400910
0003E3C800
00008F8000
0000000000
004FFFFC00
000004E300
00002E4000
0001D70000
000BA00000
009C000000
06D1000000
1FFFFF8000
ENDCHAR
STARTCHAR uni0180
ENCODING 384
SWIDTH 519 0
DWIDTH 8 0
BBX 8 11 0 0
BITMAP
006D0000
0AFFFF60
00C70000
00F4AEC2
03F721CA
06C0007D
0980007C
0C5000B9
0F3003F2
3F913D80
6A8ED600
ENDCHAR
STARTCHAR uni018F
ENCODING 399
SWIDTH 636 0
DWIDTH 10 0
BBX 9 10 1 0
BITMAP
0029EFC300
00A7117F20
0000000C80
00000008B0
00000007B0
DFFFFFFF90
E300000D40
D500007B00
6D4139D200
07DFD81000
ENDCHAR
STARTCHAR uni0192
ENCODING 402
SWIDTH 480 0
DWIDTH 8 0
BBX 10 13 -1 -2
BITMAP
0000006DC1
000004E321
00000B7000
00002F2000
000CFFFB00
0000A80000
0000E40000
0003E00000
0007A00000
000C600000
002F100000
11A9000000
8EA1000000
ENDCHAR
STARTCHAR Ohorn
ENCODING 416
SWIDTH 633 0
DWIDTH 10 0
BBX 10 12 1 0
BITMAP
0000000076
00000000A6
003AEEBA80
04E7119E10
1E50000D70
8C00000AA0
D6000009A0
F400000B80
F400003F30
C80000BA00
5E512BC100
05DFD81000
ENDCHAR
STARTCHAR ohorn
ENCODING 417
SWIDTH 517 0
DWIDTH 8 0
BBX 9 10 0 0
BITMAP
00000002B0
00000006A0
002BEDBA20
02E714F300
0B8000B800
3F1000B800
5E0000D600
4E0005E100
1E615E5000
04CFC40000
ENDCHAR
STARTCHAR Uhorn
ENCODING 431
SWIDTH 629 0
DWIDTH 10 0
BBX 11 12 1 0
BITMAP
0000000003B0
0000000019A0
08B00008E810
0B80000B8000
0E50000E5000
2F20002F2000
5D00005D0000
9A00009A0000
B80000D60000
A90003F20000
5E413D800000
06DED7000000
ENDCHAR
STARTCHAR uhorn
ENCODING 432
SWIDTH 543 0
DWIDTH 9 0
BBX 10 11 0 0
BITMAP
0000000058
0000000078
00000002C2
01F2006D20
04E0009900
07B000C600
0A8000F300
0D5003F100
1F3007D000
1F617DA000
08ED597000
ENDCHAR
STARTCHAR uni01CD
ENCODING 461
SWIDTH 510 0
DWIDTH 8 0
BBX 9 14 -1 0
BITMAP
0000220040
00003D3A90
000008FA00
0000000000
000007F500
00001DA700
0000988900
0002E16B00
000B805C00
004E103E00
00DFFFFF10
06D1000F30
1E50000E50
8C00000D70
ENDCHAR
STARTCHAR uni01CE
ENCODING 462
SWIDTH 537 0
DWIDTH 9 0
BBX 8 12 0 0
BITMAP
00081029
0006B4D4
0000CF50
00000000
002AED4E
02E913DC
0AA00099
2F3000C6
5F0000F3
5E0004F0
2F515CC0
07EE7790
ENDCHAR
STARTCHAR uni01CF
ENCODING 463
SWIDTH 252 0
DWIDTH 4 0
BBX 6 14 0 0
BITMAP
041004
06C3C6
00BF70
000000
007C00
00A900
00D600
01F300
04E000
07B000
0B8000
0E5000
2F2000
5E0000
ENDCHAR
STARTCHAR uni01D0
ENCODING 464
SWIDTH 237 0
DWIDTH 4 0
BBX 6 12 0 0
BITMAP
180046
0B77D1
02FD20
000000
01F300
04F000
07C000
099000
0C6000
0F3000
3F0000
6C0000
ENDCHAR
STARTCHAR uni01D1
ENCODING 465
SWIDTH 633 0
DWIDTH 10 0
BBX 9 14 1 0
BITMAP
0003200500
0004D3B800
00009F9000
0000000000
003AEEB200
04E7119E10
1E50000D70
8C00000A90
D6000009A0
F400000B80
F400003F30
C80000BA00
5E512BC100
05DFD81000
ENDCHAR
STARTCHAR uni01D2
ENCODING 466
SWIDTH 515 0
DWIDTH 8 0
BBX 8 12 0 0
BITMAP
00082019
0006C4D5
0000CF50
00000000
002BED60
02E714F3
0B8000B8
3F1000B8
5E0000D6
4E0005E1
1E615E50
04CFC400
ENDCHAR
STARTCHAR uni01D3
ENCODING 467
SWIDTH 616 0
DWIDTH 10 0
BBX 9 14 1 0
BITMAP
0004100400
0006B3C600
0000BF7000
0000000000
08B00008B0
0B80000B80
0E50000E40
2F20002F10
5D00005D00
9A00009A00
B80000D600
A90003F100
5E413D7000
06DED60000
ENDCHAR
STARTCHAR uni01D4
ENCODING 468
SWIDTH 528 0
DWIDTH 8 0
BBX 8 12 0 0
BITMAP
00091028
0007B4D3
0000DF40
00000000
01F2006C
04E00099
07B000C7
0A8000F4
0D5003F1
1F3007D0
1F617DA0
08ED5970
ENDCHAR
STARTCHAR uni01D5
ENCODING 469
SWIDTH 616 0
DWIDTH 10 0
BBX 9 15 1 0
BITMAP
0003FFFE00
0000000000
0007708600
0000000000
0000000000
08B00008B0
0B80000B80
0E50000E40
2F20002F10
5D00005D00
9A00009A00
B80000D600
A90003F100
5E413D7000
06DED60000
ENDCHAR
STARTCHAR uni01D6
ENCODING 470
SWIDTH 528 0
DWIDTH 8 0
BBX 8 13 0 0
BITMAP
0003FFFD
00000000
000950A5
00000000
00000000
01F2006C
04E00099
07B000C7
0A8000F4
0D5003F1
1F3007D0
1F617DA0
08ED5970
ENDCHAR
STARTCHAR uni01D7
ENCODING 471
SWIDTH 616 0
DWIDTH 10 0
BBX 9 16 1 0
BITMAP
0000002200
000002C500
0000073000
0007708600
0000000000
0000000000
08B00008B0
0B80000B80
0E50000E40
2F20002F10
5D00005D00
9A00009A00
B80000D600
A90003F100
5E413D7000
06DED60000
ENDCHAR
STARTCHAR uni01D8
ENCODING 472
SWIDTH 528 0
DWIDTH 8 0
BBX 8 14 0 0
BITMAP
00000031
000003C2
00000610
000950A5
00000000
00000000
01F2006C
04E00099
07B000C7
0A8000F4
0D5003F1
1F3007D0
1F617DA0
08ED5970
ENDCHAR
STARTCHAR uni01D9
ENCODING 473
SWIDTH 616 0
DWIDTH 10 0
BBX 9 15 1 0
BITMAP
0000C46B00
00003FB100
0007708600
0000000000
0000000000
08B00008B0
0B80000B80
0E50000E40
2F20002F10
5D00005D00
9A00009A00
B80000D600
A90003F100
5E413D7000
06DED60000
ENDCHAR
STARTCHAR uni01DA
ENCODING 474
SWIDTH 528 0
DWIDTH 8 0
BBX 8 14 0 0
BITMAP
00001001
0001C37A
00005FA0
000950A5
00000000
00000000
01F2006C
04E00099
07B000C7
0A8000F4
0D5003F1
1F3007D0
1F617DA0
08ED5970
ENDCHAR
STARTCHAR uni01DB
ENCODING 475
SWIDTH 616 0
DWIDTH 10 0
BBX 9 16 1 0
BITMAP
0000220000
00005B0000
0000082000
0007708600
0000000000
0000000000
08B00008B0
0B80000B80
0E50000E40
2F20002F10
5D00005D00
9A00009A00
B80000D600
A90003F100
5E413D7000
06DED60000
ENDCHAR
STARTCHAR uni01DC
ENCODING 476
SWIDTH 528 0
DWIDTH 8 0
BBX 8 14 0 0
BITMAP
00002200
00004B00
00000710
000950A5
00000000
00000000
01F2006C
04E00099
07B000C7
0A8000F4
0D5003F1
1F3007D0
1F617DA0
08ED5970
ENDCHAR
STARTCHAR Gcaron
ENCODING 486
SWIDTH 588 0
DWIDTH 9 0
BBX 9 14 0 0
BITMAP
0000220040
00003D3A90
000008FA00
0000000000
00029DFC30
003E9206C0
01E7000000
08D0000000
0D60000000
1F300BFF90
1F40000B50
0D80000F20
05E6117E00
005CFEA300
ENDCHAR
STARTCHAR gcaron
ENCODING 487
SWIDTH 531 0
DWIDTH 9 0
BBX 8 15 0 -3
BITMAP
00091028
0008A4D3
0000DE40
00000000
003BED5D
03E714EA
0C7000B7
3F1000E4
5E0004F1
3F415DD0
08EE8990
00000C60
00003F20
A513C900
4CFD8000
ENDCHAR
STARTCHAR uni01EA
ENCODING 490
SWIDTH 633 0
DWIDTH 10 0
BBX 9 13 1 -3
BITMAP
003AEEB200
04E7119E10
1E50000D70
8C00000A90
D6000009A0
F400000B80
F400003F20
C80000BA00
5E512BC100
06CFE81000
0068000000
01E1000000
01DE200000
ENDCHAR
STARTCHAR uni01EB
ENCODING 491
SWIDTH 515 0
DWIDTH 8 0
BBX 8 11 0 -3
BITMAP
002BED60
03E714F3
0C8000B8
3F1000B8
5E0000D6
5E0005E1
1E615E50
04DFD400
00760000
02C10000
01DD1000
ENDCHAR
STARTCHAR uni0218
ENCODING 536
SWIDTH 506 0
DWIDTH 8 0
BBX 8 14 0 -4
BITMAP
0019DEB3
00AB217D
00F40000
00DA1000
003DD500
00017FA0
000003F4
220000F4
8D412AC0
06CFD910
00000000
006D3000
001C6000
06D80000
ENDCHAR
STARTCHAR uni0219
ENCODING 537
SWIDTH 402 0
DWIDTH 6 0
BBX 6 12 0 -4
BITMAP
01AED6
0AA138
0C8000
04EB20
002BE2
0000B7
C613E4
2BED60
000000
03D500
01A800
4EA100
ENDCHAR
STARTCHAR uni021A
ENCODING 538
SWIDTH 510 0
DWIDTH 8 0
BBX 8 14 1 -4
BITMAP
6FFFFFFE
0009A000
000C7000
000F4000
003F1000
006D0000
009A0000
00C60000
01F30000
04F00000
00000000
0AB10000
03E20000
AC600000
ENDCHAR
STARTCHAR uni021B
ENCODING 539
SWIDTH 325 0
DWIDTH 5 0
BBX 6 15 0 -4
BITMAP
000200
004D00
008A00
0DFFF6
00F300
03F000
06C000
099000
0C6000
0D8110
06EE40
000000
06D300
02C500
7D8000
ENDCHAR
STARTCHAR uni0237
ENCODING 567
SWIDTH 238 0
DWIDTH 4 0
BBX 6 11 -2 -3
BITMAP
0001F3
0004E0
0007C0
000A90
000D50
001F20
004E00
008B00
00B800
12F300
BE7000
ENDCHAR
STARTCHAR uni0243
ENCODING 579
SWIDTH 610 0
DWIDTH 10 0
BBX 9 10 0 0
BITMAP
003FFFEC40
006C0018E0
00A7013A80
00DFFFE500
01F1017E20
05D0000C70
9FFFF20B80
0A80001E50
0D5013CC00
1FFFEC7100
ENDCHAR
STARTCHAR uni0251
ENCODING 593
SWIDTH 537 0
DWIDTH 9 0
BBX 8 8 0 0
BITMAP
002AED4E
02E913DC
0AA00099
2F3000C6
5F0000F3
5E0004F0
2F515CC0
07EE7790
ENDCHAR
STARTCHAR uni0259
ENCODING 601
SWIDTH 478 0
DWIDTH 8 0
BBX 7 8 0 0
BITMAP
019DEA10
00612CA0
000005E0
000003F0
6FFFFFD0
88000960
5B118B00
09EE8100
ENDCHAR
STARTCHAR uni0261
ENCODING 609
SWIDTH 531 0
DWIDTH 9 0
BBX 8 11 0 -3
BITMAP
003BED5D
03E714EA
0C7000B7
3F1000E4
5E0004F1
3F415DD0
08EE8990
00000C60
00003F20
A513C900
4CFD8000
ENDCHAR
STARTCHAR h.sups
ENCODING 688
SWIDTH 353 0
DWIDTH 6 0
BBX 5 8 1 5
BITMAP
0B3000
0D0000
2CAE60
5D36A0
860680
B30950
D00C20
600600
ENDCHAR
STARTCHAR j.sups
ENCODING 690
SWIDTH 164 0
DWIDTH 3 0
BBX 5 10 -1 4
BITMAP
000B20
000000
002800
005900
008600
00B300
00E000
02C000
078000
9D2000
ENDCHAR
STARTCHAR r.sups
ENCODING 691
SWIDTH 224 0
DWIDTH 4 0
BBX 4 6 1 5
BITMAP
29B6
5C10
8600
B300
E000
4000
ENDCHAR
STARTCHAR w.sups
ENCODING 695
SWIDTH 479 0
DWIDTH 8 0
BBX 8 5 1 6
BITMAP
A30C50A3
945A63B0
86B57A40
6B73AB00
5E12F400
ENDCHAR
STARTCHAR y.sups
ENCODING 696
SWIDTH 307 0
DWIDTH 5 0
BBX 6 8 0 4
BITMAP
082037
0940A3
0673A0
039A20
01D900
00D200
087000
EA0000
ENDCHAR
STARTCHAR uni02B9
ENCODING 697
SWIDTH 242 0
DWIDTH 4 0
BBX 4 4 1 7
BITMAP
02E1
07A0
0B40
1C00
ENDCHAR
STARTCHAR uni02BB
ENCODING 699
SWIDTH 242 0
DWIDTH 4 0
BBX 3 4 1 7
BITMAP
0040
0780
1B00
2E40
ENDCHAR
STARTCHAR uni02BC
ENCODING 700
SWIDTH 242 0
DWIDTH 4 0
BBX 4 4 1 7
BITMAP
05E1
00C0
1950
0300
ENDCHAR
STARTCHAR uni02BE
ENCODING 702
SWIDTH 151 0
DWIDTH 2 0
BBX 3 3 1 8
BITMAP
0D40
0580
5C20
ENDCHAR
STARTCHAR uni02BF
ENCODING 703
SWIDTH 163 0
DWIDTH 3 0
BBX 3 3 1 8
BITMAP
1B60
7600
4D00
ENDCHAR
STARTCHAR circumflex
ENCODING 710
SWIDTH 517 0
DWIDTH 8 0
BBX 5 3 3 9
BITMAP
06FB00
5D3D50
910270
ENDCHAR
STARTCHAR caron
ENCODING 711
SWIDTH 517 0
DWIDTH 8 0
BBX 5 3 3 9
BITMAP
820190
6C4D50
0CF500
ENDCHAR
STARTCHAR uni02C8
ENCODING 712
SWIDTH 108 0
DWIDTH 2 0
BBX 2 3 1 9
BITMAP
3D
59
76
ENDCHAR
STARTCHAR uni02C9
ENCODING 713
SWIDTH 262 0
DWIDTH 4 0
BBX 5 1 1 9
BITMAP
BFFF50
ENDCHAR
STARTCHAR uni02CA
ENCODING 714
SWIDTH 213 0
DWIDTH 3 0
BBX 4 3 1 9
BITMAP
004B
05E6
1B20
ENDCHAR
STARTCHAR uni02CB
ENCODING 715
SWIDTH 213 0
DWIDTH 3 0
BBX 3 3 1 9
BITMAP
7900
3E50
03B0
ENDCHAR
STARTCHAR uni02CC
ENCODING 716
SWIDTH 108 0
DWIDTH 2 0
BBX 3 3 -2 -4
BITMAP
0940
0D10
1E00
ENDCHAR
STARTCHAR breve
ENCODING 728
SWIDTH 517 0
DWIDTH 8 0
BBX 6 3 3 9
BITMAP
710071
A716B0
2CEA10
ENDCHAR
STARTCHAR dotaccent
ENCODING 729
SWIDTH 517 0
DWIDTH 8 0
BBX 3 1 4 10
BITMAP
3D20
ENDCHAR
STARTCHAR ring
ENCODING 730
SWIDTH 517 0
DWIDTH 8 0
BBX 5 3 3 9
BITMAP
08EC10
2C2C30
0BE900
ENDCHAR
STARTCHAR ogonek
ENCODING 731
SWIDTH 517 0
DWIDTH 8 0
BBX 4 4 1 -3
BITMAP
0160
0A20
3C10
1DD1
ENDCHAR
STARTCHAR tilde
ENCODING 732
SWIDTH 517 0
DWIDTH 8 0
BBX 7 3 2 9
BITMAP
01510220
0CAC2B40
3A06E900
ENDCHAR
STARTCHAR hungarumlaut
ENCODING 733
SWIDTH 517 0
DWIDTH 8 0
BBX 5 3 4 9
BITMAP
0A4490
6B1D30
B18500
ENDCHAR
STARTCHAR l.sups
ENCODING 737
SWIDTH 165 0
DWIDTH 3 0
BBX 3 8 1 6
BITMAP
0930
0D10
1D00
4A00
7600
A300
D100
B600
ENDCHAR
STARTCHAR s.sups
ENCODING 738
SWIDTH 271 0
DWIDTH 4 0
BBX 5 5 0 6
BITMAP
04DE40
096240
016500
351B30
1BFB10
ENDCHAR
STARTCHAR x.sups
ENCODING 739
SWIDTH 295 0
DWIDTH 5 0
BBX 6 5 0 6
BITMAP
0590B4
00D960
00BA00
096D00
780860
ENDCHAR
STARTCHAR uni0300
ENCODING 768
SWIDTH 0 0
DWIDTH 0 0
BBX 3 3 0 9
BITMAP
5A00
2D60
02C0
ENDCHAR
STARTCHAR uni0301
ENCODING 769
SWIDTH 0 0
DWIDTH 0 0
BBX 4 3 1 9
BITMAP
03B1
4E70
B300
ENDCHAR
STARTCHAR uni0302
ENCODING 770
SWIDTH 0 0
DWIDTH 0 0
BBX 6 3 -1 9
BITMAP
01CF40
1B85D0
560072
ENDCHAR
STARTCHAR uni0303
ENCODING 771
SWIDTH 0 0
DWIDTH 0 0
BBX 6 3 -1 9
BITMAP
034004
4DC73C
941BE3
ENDCHAR
STARTCHAR uni0304
ENCODING 772
SWIDTH 0 0
DWIDTH 0 0
BBX 5 1 -1 9
BITMAP
1FFFF0
ENDCHAR
STARTCHAR uni0306
ENCODING 774
SWIDTH 0 0
DWIDTH 0 0
BBX 6 3 -1 9
BITMAP
260026
2D22B4
07ED60
ENDCHAR
STARTCHAR uni0307
ENCODING 775
SWIDTH 0 0
DWIDTH 0 0
BBX 2 1 1 10
BITMAP
99
ENDCHAR
STARTCHAR uni0308
ENCODING 776
SWIDTH 0 0
DWIDTH 0 0
BBX 6 1 -1 10
BITMAP
1D21D1
ENDCHAR
STARTCHAR uni0309
ENCODING 777
SWIDTH 0 0
DWIDTH 0 0
BBX 3 4 1 8
BITMAP
BB10
1C50
7A10
1000
ENDCHAR
STARTCHAR uni030A
ENCODING 778
SWIDTH 0 0
DWIDTH 0 0
BBX 4 3 0 9
BITMAP
2CE6
874B
5ED3
ENDCHAR
STARTCHAR uni030B
ENCODING 779
SWIDTH 0 0
DWIDTH 0 0
BBX 6 3 0 9
BITMAP
02B0A3
0C46A0
571B10
ENDCHAR
STARTCHAR uni030C
ENCODING 780
SWIDTH 0 0
DWIDTH 0 0
BBX 6 3 -1 9
BITMAP
270065
0C68C1
03FC10
ENDCHAR
STARTCHAR uni030F
ENCODING 783
SWIDTH 0 0
DWIDTH 0 0
BBX 5 4 -1 9
BITMAP
000100
C27900
972D00
3A0920
ENDCHAR
STARTCHAR uni0312
ENCODING 786
SWIDTH 0 0
DWIDTH 0 0
BBX 2 3 1 9
BITMAP
15
A2
D4
ENDCHAR
STARTCHAR uni0313
ENCODING 787
SWIDTH 0 0
DWIDTH 0 0
BBX 2 3 1 9
BITMAP
4C
1C
93
ENDCHAR
STARTCHAR uni031B
ENCODING 795
SWIDTH 0 0
DWIDTH 0 0
BBX 3 3 1 7
BITMAP
02B0
18A0
AA10
ENDCHAR
STARTCHAR uni0323
ENCODING 803
SWIDTH 0 0
DWIDTH 0 0
BBX 3 1 -2 -3
BITMAP
3D20
ENDCHAR
STARTCHAR uni0324
ENCODING 804
SWIDTH 0 0
DWIDTH 0 0
BBX 5 1 -3 -3
BITMAP
780880
ENDCHAR
STARTCHAR uni0326
ENCODING 806
SWIDTH 0 0
DWIDTH 0 0
BBX 4 3 -3 -4
BITMAP
01E7
018A
2EA2
ENDCHAR
STARTCHAR uni0327
ENCODING 807
SWIDTH 0 0
DWIDTH 0 0
BBX 4 4 -3 -4
BITMAP
00A3
01B7
018A
2EA2
ENDCHAR
STARTCHAR uni0328
ENCODING 808
SWIDTH 0 0
DWIDTH 0 0
BBX 3 4 -2 -3
BITMAP
0430
3900
A610
6E70
ENDCHAR
STARTCHAR uni032E
ENCODING 814
SWIDTH 0 0
DWIDTH 0 0
BBX 6 3 -3 -4
BITMAP
610071
9815C0
2CEA10
ENDCHAR
STARTCHAR uni0331
ENCODING 817
SWIDTH 0 0
DWIDTH 0 0
BBX 5 1 -3 -3
BITMAP
8FFF80
ENDCHAR
STARTCHAR pi
ENCODING 960
SWIDTH 558 0
DWIDTH 9 0
BBX 9 8 1 0
BITMAP
CFFFFFFF20
0890089000
0C600C5000
0F201F2000
3E004E0000
7B007B0000
B700990000
E3005E7000
ENDCHAR
STARTCHAR a.sups
ENCODING 7491
SWIDTH 354 0
DWIDTH 6 0
BBX 6 5 1 6
BITMAP
04DD63
2D42E2
8701D0
9719A0
4ED750
ENDCHAR
STARTCHAR b.sups
ENCODING 7495
SWIDTH 360 0
DWIDTH 6 0
BBX 5 7 1 6
BITMAP
0B3000
0E0000
3DAE70
6B23D0
9502C0
D42B60
7BE700
ENDCHAR
STARTCHAR d.sups
ENCODING 7496
SWIDTH 365 0
DWIDTH 6 0
BBX 6 7 1 6
BITMAP
000085
0000C2
08E9C0
8A27A0
D10770
F23D30
9E9900
ENDCHAR
STARTCHAR e.sups
ENCODING 7497
SWIDTH 323 0
DWIDTH 5 0
BBX 5 5 1 6
BITMAP
19EB10
961850
EFFF50
E21200
6ED500
ENDCHAR
STARTCHAR g.sups
ENCODING 7501
SWIDTH 354 0
DWIDTH 6 0
BBX 6 7 0 4
BITMAP
008E97
08A27B
0D1067
0F23C4
09EAE1
2417B0
1BEB20
ENDCHAR
STARTCHAR k.sups
ENCODING 7503
SWIDTH 325 0
DWIDTH 5 0
BBX 5 8 1 6
BITMAP
0B3000
0D1000
1C0250
4A2C20
78C300
ADC200
C35800
D00D00
ENDCHAR
STARTCHAR m.sups
ENCODING 7504
SWIDTH 536 0
DWIDTH 9 0
BBX 8 6 1 5
BITMAP
3AAE6AE5
6C27D269
96076077
B30A40A4
E00D10D1
50050060
ENDCHAR
STARTCHAR o.sups
ENCODING 7506
SWIDTH 348 0
DWIDTH 6 0
BBX 5 5 1 6
BITMAP
19ED30
981790
D00590
E23D40
7ED500
ENDCHAR
STARTCHAR p.sups
ENCODING 7510
SWIDTH 358 0
DWIDTH 6 0
BBX 6 7 0 4
BITMAP
03AAE7
06B23D
09503C
0D42B6
1CBE70
4A0000
660000
ENDCHAR
STARTCHAR t.sups
ENCODING 7511
SWIDTH 222 0
DWIDTH 4 0
BBX 4 7 1 6
BITMAP
0410
0C10
CFF4
3A00
7600
A400
7F60
ENDCHAR
STARTCHAR u.sups
ENCODING 7512
SWIDTH 355 0
DWIDTH 6 0
BBX 5 6 1 6
BITMAP
150050
5903B0
860680
B30950
D34E20
8E8800
ENDCHAR
STARTCHAR v.sups
ENCODING 7515
SWIDTH 307 0
DWIDTH 5 0
BBX 5 6 1 6
BITMAP
510150
A30960
852C00
679500
4AC000
2F5000
ENDCHAR
STARTCHAR c.sups
ENCODING 7580
SWIDTH 292 0
DWIDTH 5 0
BBX 5 5 1 6
BITMAP
09EC10
891300
D00000
E32100
6ED300
ENDCHAR
STARTCHAR f.sups
ENCODING 7584
SWIDTH 194 0
DWIDTH 3 0
BBX 4 9 1 5
BITMAP
03DA
0A61
0D10
BFE0
3A00
6700
A400
D100
6000
ENDCHAR
STARTCHAR z.sups
ENCODING 7611
SWIDTH 279 0
DWIDTH 4 0
BBX 6 5 0 6
BITMAP
06FFD1
000920
008300
083000
6FFF40
ENDCHAR
STARTCHAR uni1E06
ENCODING 7686
SWIDTH 583 0
DWIDTH 9 0
BBX 9 13 0 -3
BITMAP
007FFFD910
00A9003D80
00D5000A90
01F2016D20
04FFFFC200
07B0029C10
0B80000F40
0E40002F20
2F1014CB00
5FFFEC7000
0000000000
0000000000
06FFFA0000
ENDCHAR
STARTCHAR uni1E07
ENCODING 7687
SWIDTH 536 0
DWIDTH 9 0
BBX 8 14 0 -3
BITMAP
005D0000
008A0000
00B60000
00E5BEC2
02FA21BB
06C0006D
0990006D
0C60009A
0F3002F3
3F913D90
6A8ED700
00000000
00000000
0BFFF600
ENDCHAR
STARTCHAR uni1E0C
ENCODING 7692
SWIDTH 592 0
DWIDTH 9 0
BBX 9 13 0 -3
BITMAP
007FFEB400
00A9028F50
00D60009C0
01F30004F0
04E00004F0
07B00006D0
0B80000B90
0E50005E20
2F2028E500
5FFFD92000
0000000000
0000000000
000C600000
ENDCHAR
STARTCHAR uni1E0D
ENCODING 7693
SWIDTH 535 0
DWIDTH 9 0
BBX 9 14 0 -3
BITMAP
00000008B0
0000000B70
0000000E40
002AED5F10
02E913DD00
0AA0009A00
2F3000C700
5F0000F400
5E0004F100
2F515CC000
07EE779000
0000000000
0000000000
006C000000
ENDCHAR
STARTCHAR uni1E0E
ENCODING 7694
SWIDTH 592 0
DWIDTH 9 0
BBX 9 13 0 -3
BITMAP
007FFEB400
00A9028F50
00D60009C0
01F30004F0
04E00004F0
07B00006D0
0B80000B90
0E50005E20
2F2028E500
5FFFD92000
0000000000
0000000000
04FFFD0000
ENDCHAR
STARTCHAR uni1E0F
ENCODING 7695
SWIDTH 535 0
DWIDTH 9 0
BBX 9 14 0 -3
BITMAP
00000008B0
0000000B70
0000000E40
002AED5F10
02E913DD00
0AA0009A00
2F3000C700
5F0000F400
5E0004F100
2F515CC000
07EE779000
0000000000
0000000000
0CFFF50000
ENDCHAR
STARTCHAR uni1E16
ENCODING 7702
SWIDTH 503 0
DWIDTH 8 0
BBX 9 16 0 0
BITMAP
0000000300
0000009A00
0000037000
0003FFFD00
0000000000
0000000000
007FFFFF50
00A9000000
00D5000000
01F2000000
04FFFFB000
07B0000000
0B80000000
0E50000000
2F20000000
5FFFFF9000
ENDCHAR
STARTCHAR uni1E17
ENCODING 7703
SWIDTH 481 0
DWIDTH 8 0
BBX 8 14 0 0
BITMAP
00000030
000006B1
00000700
00000000
000DFFF3
00000000
003BED40
04D414E0
0D3000E2
3FFFFFF0
6D000000
5E000000
1E812700
03CED800
ENDCHAR
STARTCHAR uni1E20
ENCODING 7712
SWIDTH 588 0
DWIDTH 9 0
BBX 9 13 0 0
BITMAP
00006FFFB0
0000000000
0000000000
00029DFC30
003E9206C0
01E7000000
08D0000000
0D60000000
1F300BFF90
1F40000B50
0D80000F20
05E6117E00
005CFEA300
ENDCHAR
STARTCHAR uni1E21
ENCODING 7713
SWIDTH 531 0
DWIDTH 9 0
BBX 8 13 0 -3
BITMAP
000BFFF5
00000000
003BED5D
03E714EA
0C7000B7
3F1000E4
5E0004F1
3F415DD0
08EE8990
00000C60
00003F20
A513C900
4CFD8000
ENDCHAR
STARTCHAR uni1E24
ENCODING 7716
SWIDTH 622 0
DWIDTH 10 0
BBX 10 13 0 -3
BITMAP
007C00007C
00A90000A8
00D50000E5
01F20002F2
04FFFFFFE0
07A00009B0
0B80000C80
0E50000E50
2F20003F10
5E00006D00
0000000000
0000000000
000A900000
ENDCHAR
STARTCHAR uni1E25
ENCODING 7717
SWIDTH 519 0
DWIDTH 8 0
BBX 8 14 0 -3
BITMAP
005D0000
008A0000
00B70000
00E49EC2
02FA31D7
06D100B7
099000E5
0C6001F2
0F3004E0
3F1007B0
6C000A80
00000000
00000000
007C0000
ENDCHAR
STARTCHAR uni1E2A
ENCODING 7722
SWIDTH 622 0
DWIDTH 10 0
BBX 10 13 0 -3
BITMAP
007C00007C
00A90000A8
00D50000E5
01F20002F2
04FFFFFFE0
07A00009B0
0B80000C80
0E50000E50
2F20003F10
5E00006D00
0260026000
02D22C4000
007ED60000
ENDCHAR
STARTCHAR uni1E2B
ENCODING 7723
SWIDTH 519 0
DWIDTH 8 0
BBX 8 14 0 -3
BITMAP
005D0000
008A0000
00B70000
00E49EC2
02FA31D7
06D100B7
099000E5
0C6001F2
0F3004E0
3F1007B0
6C000A80
08000800
0D419700
05DE8000
ENDCHAR
STARTCHAR uni1E34
ENCODING 7732
SWIDTH 559 0
DWIDTH 9 0
BBX 10 13 0 -3
BITMAP
007C0006D2
00A9007D20
00D607D200
01F28D2000
04E9DD0000
07FB1E4000
0BB009A000
0E5003F100
2F2000C700
5E00007D00
0000000000
0000000000
01FFFF1000
ENDCHAR
STARTCHAR uni1E35
ENCODING 7733
SWIDTH 476 0
DWIDTH 8 0
BBX 8 14 0 -3
BITMAP
005D0000
008A0000
00B70000
00E401D6
02F11C70
06D0B800
09AAE000
0CEBE400
0FB09A00
3F103F10
6C000C70
00000000
00000000
0DFFF300
ENDCHAR
STARTCHAR uni1E36
ENCODING 7734
SWIDTH 462 0
DWIDTH 7 0
BBX 7 13 0 -3
BITMAP
007C0000
00A90000
00D60000
01F30000
04E00000
07B00000
0B800000
0E500000
2F200000
5FFFFF50
00000000
00000000
007C0000
ENDCHAR
STARTCHAR uni1E37
ENCODING 7735
SWIDTH 248 0
DWIDTH 4 0
BBX 5 14 -1 -3
BITMAP
0005D0
0008A0
000B70
000E40
003F10
006D00
009900
00C600
00F300
03F000
02E700
000000
000000
1D5000
ENDCHAR
STARTCHAR uni1E38
ENCODING 7736
SWIDTH 462 0
DWIDTH 7 0
BBX 7 16 0 -3
BITMAP
08FFF900
00000000
00000000
007C0000
00A90000
00D60000
01F30000
04E00000
07B00000
0B800000
0E500000
2F200000
5FFFFF50
00000000
00000000
007C0000
ENDCHAR
STARTCHAR uni1E39
ENCODING 7737
SWIDTH 248 0
DWIDTH 4 0
BBX 7 17 -1 -3
BITMAP
004FFFC0
00000000
00000000
0005D000
0008A000
000B7000
000E4000
003F1000
006D0000
00990000
00C60000
00F30000
03F00000
02E70000
00000000
00000000
1D500000
ENDCHAR
STARTCHAR uni1E3A
ENCODING 7738
SWIDTH 462 0
DWIDTH 7 0
BBX 7 13 0 -3
BITMAP
007C0000
00A90000
00D60000
01F30000
04E00000
07B00000
0B800000
0E500000
2F200000
5FFFFF50
00000000
00000000
0CFFF400
ENDCHAR
STARTCHAR uni1E3B
ENCODING 7739
SWIDTH 248 0
DWIDTH 4 0
BBX 6 14 -2 -3
BITMAP
00005D
00008A
0000B7
0000E4
0003F1
0006D0
000990
000C60
000F30
003F00
002E70
000000
000000
4FFFC0
ENDCHAR
STARTCHAR uni1E42
ENCODING 7746
SWIDTH 705 0
DWIDTH 11 0
BBX 12 13 0 -3
BITMAP
007F300009F1
00AE60003ED0
00D99000B9A0
01F4B0059A70
04D1E00C1E40
07A0D1772F10
0B70B5C05D00
0E408D408900
2F105A00C600
5D000000F300
000000000000
000000000000
0002D3000000
ENDCHAR
STARTCHAR uni1E43
ENCODING 7747
SWIDTH 799 0
DWIDTH 13 0
BBX 12 11 0 -3
BITMAP
01F2BEB16DE6
04FA22FC718D
07C000E7005D
0A9001F2008B
0C6004E000B8
1F3007B000E5
3F000A8002F2
6C000D5005E0
000000000000
000000000000
00005D100000
ENDCHAR
STARTCHAR uni1E44
ENCODING 7748
SWIDTH 619 0
DWIDTH 10 0
BBX 10 13 0 0
BITMAP
000002D300
0000000000
0000000000
007F20007B
00AE7000A8
00D7D000E5
01F1E302F1
04D08905D0
07A03E08A0
0B700C5A70
0E4006AD40
2F1001EE10
5D0000AD00
ENDCHAR
STARTCHAR uni1E45
ENCODING 7749
SWIDTH 525 0
DWIDTH 8 0
BBX 8 11 0 0
BITMAP
00001D40
00000000
00000000
01F2AEC2
04FA31D7
07C000B7
0A9000E5
0C6001F2
1F3004E0
3F0007B0
6C000A80
ENDCHAR
STARTCHAR uni1E46
ENCODING 7750
SWIDTH 619 0
DWIDTH 10 0
BBX 10 13 0 -3
BITMAP
007F20007B
00AE7000A8
00D7D000E5
01F1E302F1
04D08905D0
07A03E08A0
0B700C5A70
0E4006AD40
2F1001EE10
5D0000AD00
0000000000
0000000000
000A900000
ENDCHAR
STARTCHAR uni1E47
ENCODING 7751
SWIDTH 525 0
DWIDTH 8 0
BBX 8 11 0 -3
BITMAP
01F2AEC2
04FA31D7
07C000B7
0A9000E5
0C6001F2
1F3004E0
3F0007B0
6C000A80
00000000
00000000
007C0000
ENDCHAR
STARTCHAR uni1E48
ENCODING 7752
SWIDTH 619 0
DWIDTH 10 0
BBX 10 13 0 -3
BITMAP
007F20007B
00AE7000A8
00D7D000E5
01F1E302F1
04D08905D0
07A03E08A0
0B700C5A70
0E4006AD40
2F1001EE10
5D0000AD00
0000000000
0000000000
01FFFF1000
ENDCHAR
STARTCHAR uni1E49
ENCODING 7753
SWIDTH 525 0
DWIDTH 8 0
BBX 8 11 0 -3
BITMAP
01F2AEC2
04FA31D7
07C000B7
0A9000E5
0C6001F2
1F3004E0
3F0007B0
6C000A80
00000000
00000000
0CFFF400
ENDCHAR
STARTCHAR uni1E52
ENCODING 7762
SWIDTH 633 0
DWIDTH 10 0
BBX 9 16 1 0
BITMAP
0000001300
000001B700
0000054000
0007FFFA00
0000000000
0000000000
003AEEB200
04E7119E10
1E50000D70
8C00000A90
D6000009A0
F400000B80
F400003F30
C80000BA00
5E512BC100
05DFD81000
ENDCHAR
STARTCHAR uni1E53
ENCODING 7763
SWIDTH 515 0
DWIDTH 8 0
BBX 8 14 0 0
BITMAP
00000031
000003C3
00000510
00000000
0009FFF7
00000000
002BED60
02E714F3
0B8000B8
3F1000B8
5E0000D6
4E0005E1
1E615E50
04CFC400
ENDCHAR
STARTCHAR uni1E5A
ENCODING 7770
SWIDTH 555 0
DWIDTH 9 0
BBX 9 13 0 -3
BITMAP
007FFFE910
00A9003D90
00D60007B0
01F3000A80
04F0028B10
07FFFE4000
0B904F2000
0E500D8000
2F2006E000
5E0001E500
0000000000
0000000000
001D500000
ENDCHAR
STARTCHAR uni1E5B
ENCODING 7771
SWIDTH 342 0
DWIDTH 5 0
BBX 6 11 0 -3
BITMAP
01F2CD
04E821
07C000
0A8000
0C5000
1F3000
3F0000
6C0000
000000
000000
C60000
ENDCHAR
STARTCHAR uni1E5C
ENCODING 7772
SWIDTH 555 0
DWIDTH 9 0
BBX 9 16 0 -3
BITMAP
0002FFFF00
0000000000
0000000000
007FFFE910
00A9003D90
00D60007B0
01F3000A80
04F0028B10
07FFFE4000
0B904F2000
0E500D8000
2F2006E000
5E0001E500
0000000000
0000000000
001D500000
ENDCHAR
STARTCHAR uni1E5D
ENCODING 7773
SWIDTH 342 0
DWIDTH 5 0
BBX 7 13 0 -3
BITMAP
00AFFF60
00000000
01F2CD00
04E82100
07C00000
0A800000
0C500000
1F300000
3F000000
6C000000
00000000
00000000
C6000000
ENDCHAR
STARTCHAR uni1E5E
ENCODING 7774
SWIDTH 555 0
DWIDTH 9 0
BBX 9 13 0 -3
BITMAP
007FFFE910
00A9003D90
00D60007B0
01F3000A80
04F0028B10
07FFFE4000
0B904F2000
0E500D8000
2F2006E000
5E0001E500
0000000000
0000000000
04FFFC0000
ENDCHAR
STARTCHAR uni1E5F
ENCODING 7775
SWIDTH 342 0
DWIDTH 5 0
BBX 8 11 -2 -3
BITMAP
0001F2CD
0004E821
0007C000
000A8000
000C5000
001F3000
003F0000
006C0000
00000000
00000000
4FFFD000
ENDCHAR
STARTCHAR uni1E60
ENCODING 7776
SWIDTH 506 0
DWIDTH 8 0
BBX 8 13 0 0
BITMAP
00001D50
00000000
00000000
0019DEB3
00AB217D
00F40000
00DA1000
003DD500
00017FA0
000003F4
220000F4
8D412AC0
06CFD910
ENDCHAR
STARTCHAR uni1E61
ENCODING 7777
SWIDTH 402 0
DWIDTH 6 0
BBX 6 11 0 0
BITMAP
0003D2
000000
000000
01AED6
0AA138
0C8000
04EB20
002BE2
0000B7
C613E4
2BED60
ENDCHAR
STARTCHAR uni1E62
ENCODING 7778
SWIDTH 506 0
DWIDTH 8 0
BBX 8 13 0 -3
BITMAP
0019DEB3
00AB217D
00F40000
00DA1000
003DD500
00017FA0
000003F4
220000F4
8D412AC0
06CFD910
00000000
00000000
007B0000
ENDCHAR
STARTCHAR uni1E63
ENCODING 7779
SWIDTH 402 0
DWIDTH 6 0
BBX 6 11 0 -3
BITMAP
01AED6
0AA138
0C8000
04EB20
002BE2
0000B7
C613E4
2BED60
000000
000000
05D100
ENDCHAR
STARTCHAR uni1E6C
ENCODING 7788
SWIDTH 510 0
DWIDTH 8 0
BBX 8 13 1 -3
BITMAP
6FFFFFFE
0009A000
000C7000
000F4000
003F1000
006D0000
009A0000
00C60000
01F30000
04F00000
00000000
00000000
0B800000
ENDCHAR
STARTCHAR uni1E6D
ENCODING 7789
SWIDTH 325 0
DWIDTH 5 0
BBX 5 14 1 -3
BITMAP
002000
04D000
08A000
DFFF60
0F3000
3F0000
6C0000
990000
C60000
D81100
6EE400
000000
000000
7B0000
ENDCHAR
STARTCHAR uni1E6E
ENCODING 7790
SWIDTH 510 0
DWIDTH 8 0
BBX 9 13 0 -3
BITMAP
06FFFFFFE0
00009A0000
0000C70000
0000F40000
0003F10000
0006D00000
0009A00000
000C600000
001F300000
004F000000
0000000000
0000000000
2FFFE00000
ENDCHAR
STARTCHAR uni1E6F
ENCODING 7791
SWIDTH 325 0
DWIDTH 5 0
BBX 6 14 0 -3
BITMAP
000200
004D00
008A00
0DFFF6
00F300
03F000
06C000
099000
0C6000
0D8110
06EE40
000000
000000
DFFF30
ENDCHAR
STARTCHAR Wgrave
ENCODING 7808
SWIDTH 756 0
DWIDTH 12 0
BBX 12 14 1 0
BITMAP
00002B100000
00000BB00000
000000A30000
000000000000
5E0007E0007C
6D000CF000D5
6D0069F004D0
6D00D2F00A70
6C05A0F12E10
6C0C30F18900
7B4B00F2E300
7AB400E6B000
7DC000ED5000
7F5000ED0000
ENDCHAR
STARTCHAR wgrave
ENCODING 7809
SWIDTH 707 0
DWIDTH 11 0
BBX 11 12 1 0
BITMAP
000087000000
00003E400000
000004A00000
000000000000
D6008E001E20
C601CE006B00
B7067E00D400
980C2E14C000
894A0D2B6000
79B40C5E0000
6BC00BB80000
5F600BF10000
ENDCHAR
STARTCHAR Wacute
ENCODING 7810
SWIDTH 756 0
DWIDTH 12 0
BBX 12 14 1 0
BITMAP
000000067000
0000009E5000
000003B10000
000000000000
5E0007E0007C
6D000CF000D5
6D0069F004D0
6D00D2F00A70
6C05A0F12E10
6C0C30F18900
7B4B00F2E300
7AB400E6B000
7DC000ED5000
7F5000ED0000
ENDCHAR
STARTCHAR wacute
ENCODING 7811
SWIDTH 707 0
DWIDTH 11 0
BBX 11 12 1 0
BITMAP
0000004A0000
000006E50000
00002B200000
000000000000
D6008E001E20
C601CE006B00
B7067E00D400
980C2E14C000
894A0D2B6000
79B40C5E0000
6BC00BB80000
5F600BF10000
ENDCHAR
STARTCHAR Wdieresis
ENCODING 7812
SWIDTH 756 0
DWIDTH 12 0
BBX 12 13 1 0
BITMAP
000078088000
000000000000
000000000000
5E0007E0007C
6D000CF000D5
6D0069F004D0
6D00D2F00A70
6C05A0F12E10
6C0C30F18900
7B4B00F2E300
7AB400E6B000
7DC000ED5000
7F5000ED0000
ENDCHAR
STARTCHAR wdieresis
ENCODING 7813
SWIDTH 707 0
DWIDTH 11 0
BBX 11 11 1 0
BITMAP
0003C04C0000
000000000000
000000000000
D6008E001E20
C601CE006B00
B7067E00D400
980C2E14C000
894A0D2B6000
79B40C5E0000
6BC00BB80000
5F600BF10000
ENDCHAR
STARTCHAR uni1E8E
ENCODING 7822
SWIDTH 461 0
DWIDTH 7 0
BBX 8 13 1 0
BITMAP
0008B000
00000000
00000000
8B0001E5
4E000A90
0E306D10
0A72E300
06BB6000
02FB0000
01F30000
04E00000
07C00000
0A800000
ENDCHAR
STARTCHAR uni1E8F
ENCODING 7823
SWIDTH 448 0
DWIDTH 7 0
BBX 9 14 -1 -3
BITMAP
00002D4000
0000000000
0000000000
00E4000B70
00C6004D00
009800C500
006A05C000
004C0C4000
001E5B0000
000DD30000
000C900000
003E200000
12D6000000
CD60000000
ENDCHAR
STARTCHAR uni1E92
ENCODING 7826
SWIDTH 512 0
DWIDTH 8 0
BBX 9 13 0 -3
BITMAP
00BFFFFF80
0000007C10
000004E200
00002E4000
0001D60000
000B900000
009B000000
06D1000000
3E30000000
DFFFFFE000
0000000000
0000000000
00B8000000
ENDCHAR
STARTCHAR uni1E93
ENCODING 7827
SWIDTH 410 0
DWIDTH 7 0
BBX 8 11 -1 -3
BITMAP
004FFFFC
000004E3
00002E40
0001D700
000BA000
009C0000
06D10000
1FFFFF80
00000000
00000000
005D1000
ENDCHAR
STARTCHAR uni1E97
ENCODING 7831
SWIDTH 325 0
DWIDTH 5 0
BBX 5 13 1 0
BITMAP
4C04B0
000000
002000
04D000
08A000
DFFF60
0F3000
3F0000
6C0000
990000
C60000
D81100
6EE400
ENDCHAR
STARTCHAR uni1E9E
ENCODING 7838
SWIDTH 633 0
DWIDTH 10 0
BBX 10 10 0 0
BITMAP
0002AEEC40
002E8216F2
00AA0003D4
01F4007C20
04E006F600
07B0028EB0
0A800002F4
0E500000E5
2F25B218D1
5E008EEB20
ENDCHAR
STARTCHAR uni1EA0
ENCODING 7840
SWIDTH 510 0
DWIDTH 8 0
BBX 9 13 -1 -3
BITMAP
000007F500
00001DA700
0000988900
0002E16B00
000B805C00
004E103E00
00DFFFFF10
06D1000F30
1E50000E50
8C00000D70
0000000000
0000000000
0007B00000
ENDCHAR
STARTCHAR uni1EA1
ENCODING 7841
SWIDTH 537 0
DWIDTH 9 0
BBX 8 11 0 -3
BITMAP
002AED4E
02E913DC
0AA00099
2F3000C6
5F0000F3
5E0004F0
2F515CC0
07EE7790
00000000
00000000
005D1000
ENDCHAR
STARTCHAR uni1EA2
ENCODING 7842
SWIDTH 510 0
DWIDTH 8 0
BBX 9 14 -1 0
BITMAP
000004E600
0000006C00
000002B400
0000000000
000007F500
00001DA700
0000988900
0002E16B00
000B805C00
004E103E00
00DFFFFF10
06D1000F30
1E50000E50
8C00000D70
ENDCHAR
STARTCHAR uni1EA3
ENCODING 7843
SWIDTH 537 0
DWIDTH 9 0
BBX 8 12 0 0
BITMAP
00005D50
000007B0
00003B40
00000000
002AED4E
02E913DC
0AA00099
2F3000C6
5F0000F3
5E0004F0
2F515CC0
07EE7790
ENDCHAR
STARTCHAR uni1EA4
ENCODING 7844
SWIDTH 510 0
DWIDTH 8 0
BBX 11 14 -1 0
BITMAP
000000001B40
000004EC6300
00003B397000
000000000000
000007F50000
00001DA70000
000098890000
0002E16B0000
000B805C0000
004E103E0000
00DFFFFF1000
06D1000F3000
1E50000E5000
8C00000D7000
ENDCHAR
STARTCHAR uni1EA5
ENCODING 7845
SWIDTH 537 0
DWIDTH 9 0
BBX 10 13 0 0
BITMAP
0000000041
00000004C2
00008F8710
000892B400
0001000000
002AED4E00
02E913DC00
0AA0009900
2F3000C600
5F0000F300
5E0004F000
2F515CC000
07EE779000
ENDCHAR
STARTCHAR uni1EA6
ENCODING 7846
SWIDTH 510 0
DWIDTH 8 0
BBX 9 15 -1 0
BITMAP
0000100000
0003B10000
000036EC00
00003B3970
0000000000
000007F500
00001DA700
0000988900
0002E16B00
000B805C00
004E103E00
00DFFFFF10
06D1000F30
1E50000E50
8C00000D70
ENDCHAR
STARTCHAR uni1EA7
ENCODING 7847
SWIDTH 537 0
DWIDTH 9 0
BBX 8 13 0 0
BITMAP
01500000
00C40000
00178F80
000892B4
00010000
002AED4E
02E913DC
0AA00099
2F3000C6
5F0000F3
5E0004F0
2F515CC0
07EE7790
ENDCHAR
STARTCHAR uni1EA8
ENCODING 7848
SWIDTH 510 0
DWIDTH 8 0
BBX 11 15 -1 0
BITMAP
000000009B10
000000001C30
000004EC5600
00003B397000
000000000000
000007F50000
00001DA70000
000098890000
0002E16B0000
000B805C0000
004E103E0000
00DFFFFF1000
06D1000F3000
1E50000E5000
8C00000D7000
ENDCHAR
STARTCHAR uni1EA9
ENCODING 7849
SWIDTH 537 0
DWIDTH 9 0
BBX 9 13 0 0
BITMAP
0000000C80
00000002E0
00008F8750
000892B400
0001000000
002AED4E00
02E913DC00
0AA0009900
2F3000C600
5F0000F300
5E0004F000
2F515CC000
07EE779000
ENDCHAR
STARTCHAR uni1EAA
ENCODING 7850
SWIDTH 510 0
DWIDTH 8 0
BBX 10 15 -1 0
BITMAP
00000AE565
0000293DC1
000004EC00
00003B3870
0000000000
000007F500
00001DA700
0000988900
0002E16B00
000B805C00
004E103E00
00DFFFFF10
06D1000F30
1E50000E50
8C00000D70
ENDCHAR
STARTCHAR uni1EAB
ENCODING 7851
SWIDTH 537 0
DWIDTH 9 0
BBX 8 13 0 0
BITMAP
0001DB2B
000656E7
00008F80
000892B4
00000000
002AED4E
02E913DC
0AA00099
2F3000C6
5F0000F3
5E0004F0
2F515CC0
07EE7790
ENDCHAR
STARTCHAR uni1EAC
ENCODING 7852
SWIDTH 510 0
DWIDTH 8 0
BBX 9 17 -1 -3
BITMAP
000004FD10
00004D4990
0000410040
0000000000
000007F500
00001DA700
0000988900
0002E16B00
000B805C00
004E103E00
00DFFFFF10
06D1000F30
1E50000E50
8C00000D70
0000000000
0000000000
0007B00000
ENDCHAR
STARTCHAR uni1EAD
ENCODING 7853
SWIDTH 537 0
DWIDTH 9 0
BBX 8 15 0 -3
BITMAP
00007FA0
0006D3D4
00091027
00000000
002AED4E
02E913DC
0AA00099
2F3000C6
5F0000F3
5E0004F0
2F515CC0
07EE7790
00000000
00000000
005D1000
ENDCHAR
STARTCHAR uni1EAE
ENCODING 7854
SWIDTH 510 0
DWIDTH 8 0
BBX 10 16 -1 0
BITMAP
0000000110
0000001B70
0000226531
00005A14C0
00000AEB20
0000000000
000007F500
00001DA700
0000988900
0002E16B00
000B805C00
004E103E00
00DFFFFF10
06D1000F30
1E50000E50
8C00000D70
ENDCHAR
STARTCHAR uni1EAF
ENCODING 7855
SWIDTH 537 0
DWIDTH 9 0
BBX 9 14 0 0
BITMAP
0000000400
000000B800
0003535350
0003C12C20
00008EC400
0000000000
002AED4E00
02E913DC00
0AA0009900
2F3000C600
5F0000F300
5E0004F000
2F515CC000
07EE779000
ENDCHAR
STARTCHAR uni1EB0
ENCODING 7856
SWIDTH 510 0
DWIDTH 8 0
BBX 10 16 -1 0
BITMAP
0000002000
000003D100
0000226631
00005A14C0
00000AEB20
0000000000
000007F500
00001DA700
0000988900
0002E16B00
000B805C00
004E103E00
00DFFFFF10
06D1000F30
1E50000E50
8C00000D70
ENDCHAR
STARTCHAR uni1EB1
ENCODING 7857
SWIDTH 537 0
DWIDTH 9 0
BBX 9 14 0 0
BITMAP
0000050000
00001C4000
0003527350
0003C12C20
00008EC400
0000000000
002AED4E00
02E913DC00
0AA0009900
2F3000C600
5F0000F300
5E0004F000
2F515CC000
07EE779000
ENDCHAR
STARTCHAR uni1EB2
ENCODING 7858
SWIDTH 510 0
DWIDTH 8 0
BBX 10 15 -1 0
BITMAP
000000AA00
0000221E51
00005A69C0
00000AEB20
0000000000
000007F500
00001DA700
0000988900
0002E16B00
000B805C00
004E103E00
00DFFFFF10
06D1000F30
1E50000E50
8C00000D70
ENDCHAR
STARTCHAR uni1EB3
ENCODING 7859
SWIDTH 537 0
DWIDTH 9 0
BBX 9 14 0 0
BITMAP
000007C200
000000A600
0003548450
0003C12C20
00009EC400
0000000000
002AED4E00
02E913DC00
0AA0009900
2F3000C600
5F0000F300
5E0004F000
2F515CC000
07EE779000
ENDCHAR
STARTCHAR uni1EB4
ENCODING 7860
SWIDTH 510 0
DWIDTH 8 0
BBX 10 16 -1 0
BITMAP
00000BE565
0000383DD1
0000000000
00005803C0
00001BEC40
0000000000
000007F500
00001DA700
0000988900
0002E16B00
000B805C00
004E103E00
00DFFFFF10
06D1000F30
1E50000E50
8C00000D70
ENDCHAR
STARTCHAR uni1EB5
ENCODING 7861
SWIDTH 537 0
DWIDTH 9 0
BBX 9 14 0 0
BITMAP
00007C5560
0001B4CD10
0000000000
0003A12B20
0000AED500
0000000000
002AED4E00
02E913DC00
0AA0009900
2F3000C600
5F0000F300
5E0004F000
2F515CC000
07EE779000
ENDCHAR
STARTCHAR uni1EB6
ENCODING 7862
SWIDTH 510 0
DWIDTH 8 0
BBX 10 17 -1 -3
BITMAP
0000220031
00005A14C0
00001AEB20
0000000000
000007F500
00001DA700
0000988900
0002E16B00
000B805C00
004E103E00
00DFFFFF10
06D1000F30
1E50000E50
8C00000D70
0000000000
0000000000
0007B00000
ENDCHAR
STARTCHAR uni1EB7
ENCODING 7863
SWIDTH 537 0
DWIDTH 9 0
BBX 9 15 0 -3
BITMAP
0007100710
000B617A00
0003CEA100
0000000000
002AED4E00
02E913DC00
0AA0009900
2F3000C600
5F0000F300
5E0004F000
2F515CC000
07EE779000
0000000000
0000000000
005D100000
ENDCHAR
STARTCHAR uni1EB8
ENCODING 7864
SWIDTH 503 0
DWIDTH 8 0
BBX 9 13 0 -3
BITMAP
007FFFFF50
00A9000000
00D5000000
01F2000000
04FFFFB000
07B0000000
0B80000000
0E50000000
2F20000000
5FFFFF9000
0000000000
0000000000
004D100000
ENDCHAR
STARTCHAR uni1EB9
ENCODING 7865
SWIDTH 481 0
DWIDTH 8 0
BBX 8 11 0 -3
BITMAP
003BED40
04D414E0
0D3000E2
3FFFFFF0
6D000000
5E000000
1E812700
03CED800
00000000
00000000
009A0000
ENDCHAR
STARTCHAR uni1EBA
ENCODING 7866
SWIDTH 503 0
DWIDTH 8 0
BBX 9 14 0 0
BITMAP
00001E8000
000003F000
00000B5000
0000000000
007FFFFF50
00A9000000
00D5000000
01F2000000
04FFFFB000
07B0000000
0B80000000
0E50000000
2F20000000
5FFFFF9000
ENDCHAR
STARTCHAR uni1EBB
ENCODING 7867
SWIDTH 481 0
DWIDTH 8 0
BBX 8 12 0 0
BITMAP
00008D30
00000990
00004B20
00001000
003BED40
04D414E0
0D3000E2
3FFFFFF0
6D000000
5E000000
1E812700
03CED800
ENDCHAR
STARTCHAR uni1EBC
ENCODING 7868
SWIDTH 503 0
DWIDTH 8 0
BBX 9 14 0 0
BITMAP
0000110010
0006EE44A0
000B14DD20
0000000000
007FFFFF50
00A9000000
00D5000000
01F2000000
04FFFFB000
07B0000000
0B80000000
0E50000000
2F20000000
5FFFFF9000
ENDCHAR
STARTCHAR uni1EBD
ENCODING 7869
SWIDTH 481 0
DWIDTH 8 0
BBX 9 12 0 0
BITMAP
0002500410
002DB92D00
007609E500
0000000000
003BED4000
04D414E000
0D3000E200
3FFFFFF000
6D00000000
5E00000000
1E81270000
03CED80000
ENDCHAR
STARTCHAR uni1EBE
ENCODING 7870
SWIDTH 503 0
DWIDTH 8 0
BBX 10 14 0 0
BITMAP
0000000196
00002DE640
0001C46900
0000000000
007FFFFF50
00A9000000
00D5000000
01F2000000
04FFFFB000
07B0000000
0B80000000
0E50000000
2F20000000
5FFFFF9000
ENDCHAR
STARTCHAR uni1EBF
ENCODING 7871
SWIDTH 481 0
DWIDTH 8 0
BBX 9 13 0 0
BITMAP
0000000040
00000008A0
0001AF6700
000B73C100
0001001000
003BED4000
04D414E000
0D3000E200
3FFFFFF000
6D00000000
5E00000000
1E81270000
03CED80000
ENDCHAR
STARTCHAR uni1EC0
ENCODING 7872
SWIDTH 503 0
DWIDTH 8 0
BBX 9 15 0 0
BITMAP
0001000000
001C200000
00026DE100
0001C46900
0000000000
007FFFFF50
00A9000000
00D5000000
01F2000000
04FFFFB000
07B0000000
0B80000000
0E50000000
2F20000000
5FFFFF9000
ENDCHAR
STARTCHAR uni1EC1
ENCODING 7873
SWIDTH 481 0
DWIDTH 8 0
BBX 8 13 0 0
BITMAP
02400000
02D20000
0045AF50
000B73C1
00010010
003BED40
04D414E0
0D3000E2
3FFFFFF0
6D000000
5E000000
1E812700
03CED800
ENDCHAR
STARTCHAR uni1EC2
ENCODING 7874
SWIDTH 503 0
DWIDTH 8 0
BBX 10 15 0 0
BITMAP
00000006C2
00000000A5
00002DE480
0001C46900
0000000000
007FFFFF50
00A9000000
00D5000000
01F2000000
04FFFFB000
07B0000000
0B80000000
0E50000000
2F20000000
5FFFFF9000
ENDCHAR
STARTCHAR uni1EC3
ENCODING 7875
SWIDTH 481 0
DWIDTH 8 0
BBX 9 13 0 0
BITMAP
0000001E50
00000005B0
0001AF5930
000B73C100
0001001000
003BED4000
04D414E000
0D3000E200
3FFFFFF000
6D00000000
5E00000000
1E81270000
03CED80000
ENDCHAR
STARTCHAR uni1EC4
ENCODING 7876
SWIDTH 503 0
DWIDTH 8 0
BBX 9 15 0 0
BITMAP
00008E7480
0001A2BD20
00002DE100
0001B46900
0000000000
007FFFFF50
00A9000000
00D5000000
01F2000000
04FFFFB000
07B0000000
0B80000000
0E50000000
2F20000000
5FFFFF9000
ENDCHAR
STARTCHAR uni1EC5
ENCODING 7877
SWIDTH 481 0
DWIDTH 8 0
BBX 8 13 0 0
BITMAP
0003E92A
000929E4
0001BF50
000B73C1
00000000
003BED40
04D414E0
0D3000E2
3FFFFFF0
6D000000
5E000000
1E812700
03CED800
ENDCHAR
STARTCHAR uni1EC6
ENCODING 7878
SWIDTH 503 0
DWIDTH 8 0
BBX 9 17 0 -3
BITMAP
00002EF200
0002D66B00
0002200400
0000000000
007FFFFF50
00A9000000
00D5000000
01F2000000
04FFFFB000
07B0000000
0B80000000
0E50000000
2F20000000
5FFFFF9000
0000000000
0000000000
004D100000
ENDCHAR
STARTCHAR uni1EC7
ENCODING 7879
SWIDTH 481 0
DWIDTH 8 0
BBX 8 15 0 -3
BITMAP
0000AF60
0009A4E1
00380054
00000000
003BED40
04D414E0
0D3000E2
3FFFFFF0
6D000000
5E000000
1E812700
03CED800
00000000
00000000
009A0000
ENDCHAR
STARTCHAR uni1EC8
ENCODING 7880
SWIDTH 252 0
DWIDTH 4 0
BBX 5 14 0 0
BITMAP
007D40
000990
004A20
000000
007C00
00A900
00D600
01F300
04E000
07B000
0B8000
0E5000
2F2000
5E0000
ENDCHAR
STARTCHAR uni1EC9
ENCODING 7881
SWIDTH 237 0
DWIDTH 4 0
BBX 5 12 0 0
BITMAP
008C30
000A80
005B20
001000
01F300
04F000
07C000
099000
0C6000
0F3000
3F0000
6C0000
ENDCHAR
STARTCHAR uni1ECA
ENCODING 7882
SWIDTH 252 0
DWIDTH 4 0
BBX 4 13 0 -3
BITMAP
007C
00A9
00D6
01F3
04E0
07B0
0B80
0E50
2F20
5E00
0000
0000
B700
ENDCHAR
STARTCHAR uni1ECB
ENCODING 7883
SWIDTH 237 0
DWIDTH 4 0
BBX 4 15 0 -3
BITMAP
0047
008C
0000
0000
01F3
04F0
07C0
0990
0C60
0F30
3F00
6C00
0000
0000
D600
ENDCHAR
STARTCHAR uni1ECC
ENCODING 7884
SWIDTH 633 0
DWIDTH 10 0
BBX 9 13 1 -3
BITMAP
003AEEB200
04E7119E10
1E50000D70
8C00000A90
D6000009A0
F400000B80
F400003F30
C80000BA00
5E512BC100
05DFD81000
0000000000
0000000000
009A000000
ENDCHAR
STARTCHAR uni1ECD
ENCODING 7885
SWIDTH 515 0
DWIDTH 8 0
BBX 8 11 0 -3
BITMAP
002BED60
02E714F3
0B8000B8
3F1000B8
5E0000D6
4E0005E1
1E615E50
04CFC400
00000000
00000000
01D40000
ENDCHAR
STARTCHAR uni1ECE
ENCODING 7886
SWIDTH 633 0
DWIDTH 10 0
BBX 9 14 1 0
BITMAP
00004D5000
000006B000
00002B3000
0000000000
003AEEB200
04E7119E10
1E50000D70
8C00000A90
D6000009A0
F400000B80
F400003F30
C80000BA00
5E512BC100
05DFD81000
ENDCHAR
STARTCHAR uni1ECF
ENCODING 7887
SWIDTH 515 0
DWIDTH 8 0
BBX 8 12 0 0
BITMAP
00005D60
000006C0
00002B40
00000000
002BED60
02E714F3
0B8000B8
3F1000B8
5E0000D6
4E0005E1
1E615E50
04CFC400
ENDCHAR
STARTCHAR uni1ED0
ENCODING 7888
SWIDTH 633 0
DWIDTH 10 0
BBX 10 14 1 0
BITMAP
00000002B3
00004FB620
0003B39600
0000000000
003AEEB200
04E7119E10
1E50000D70
8C00000A90
D6000009A0
F400000B80
F400003F30
C80000BA00
5E512BC100
05DFD81000
ENDCHAR
STARTCHAR uni1ED1
ENCODING 7889
SWIDTH 515 0
DWIDTH 8 0
BBX 10 13 0 0
BITMAP
0000000031
00000004C2
00007F9710
0007A2B500
0001000000
002BED6000
02E714F300
0B8000B800
3F1000B800
5E0000D600
4E0005E100
1E615E5000
04CFC40000
ENDCHAR
STARTCHAR uni1ED2
ENCODING 7890
SWIDTH 633 0
DWIDTH 10 0
BBX 9 15 1 0
BITMAP
0001000000
003B000000
00046FB000
0003B39600
0000000000
003AEEB200
04E7119E10
1E50000D70
8C00000A90
D6000009A0
F400000B80
F400003F30
C80000BA00
5E512BC100
05DFD81000
ENDCHAR
STARTCHAR uni1ED3
ENCODING 7891
SWIDTH 515 0
DWIDTH 8 0
BBX 8 13 0 0
BITMAP
00500000
00B50000
00177F90
0007A2B5
00010000
002BED60
02E714F3
0B8000B8
3F1000B8
5E0000D6
4E0005E1
1E615E50
04CFC400
ENDCHAR
STARTCHAR uni1ED4
ENCODING 7892
SWIDTH 633 0
DWIDTH 10 0
BBX 10 15 1 0
BITMAP
0000000AA0
00000001D2
00004FB560
0003B39600
0000000000
003AEEB200
04E7119E10
1E50000D70
8C00000A90
D6000009A0
F400000B80
F400003F30
C80000BA00
5E512BC100
05DFD81000
ENDCHAR
STARTCHAR uni1ED5
ENCODING 7893
SWIDTH 515 0
DWIDTH 8 0
BBX 9 13 0 0
BITMAP
0000000B90
00000001E0
00007F9650
0007A2B500
0001000000
002BED6000
02E714F300
0B8000B800
3F1000B800
5E0000D600
4E0005E100
1E615E5000
04CFC40000
ENDCHAR
STARTCHAR uni1ED6
ENCODING 7894
SWIDTH 633 0
DWIDTH 10 0
BBX 9 15 1 0
BITMAP
0000BD4740
000384DC00
00005FB000
0003B39600
0000000000
003AEEB200
04E7119E10
1E50000D70
8C00000A90
D6000009A0
F400000B80
F400003F30
C80000BA00
5E512BC100
05DFD81000
ENDCHAR
STARTCHAR uni1ED7
ENCODING 7895
SWIDTH 515 0
DWIDTH 8 0
BBX 8 13 0 0
BITMAP
0001CC2A
000566E8
00008F90
000792B5
00000000
002BED60
02E714F3
0B8000B8
3F1000B8
5E0000D6
4E0005E1
1E615E50
04CFC400
ENDCHAR
STARTCHAR uni1ED8
ENCODING 7896
SWIDTH 633 0
DWIDTH 10 0
BBX 9 17 1 -3
BITMAP
00005FD100
0004D3A800
0004100400
0000000000
003AEEB200
04E7119E10
1E50000D70
8C00000A90
D6000009A0
F400000B80
F400003F30
C80000BA00
5E512BC100
05DFD81000
0000000000
0000000000
009A000000
ENDCHAR
STARTCHAR uni1ED9
ENCODING 7897
SWIDTH 515 0
DWIDTH 8 0
BBX 8 15 0 -3
BITMAP
00006FB0
0005D3D5
00091027
00000000
002BED60
02E714F3
0B8000B8
3F1000B8
5E0000D6
4E0005E1
1E615E50
04CFC400
00000000
00000000
01D40000
ENDCHAR
STARTCHAR uni1EDA
ENCODING 7898
SWIDTH 633 0
DWIDTH 10 0
BBX 10 14 1 0
BITMAP
0000007700
000009E500
00004A1076
00000000A6
003AEEBA80
04E7119E10
1E50000D70
8C00000AA0
D6000009A0
F400000B80
F400003F30
C80000BA00
5E512BC100
05DFD81000
ENDCHAR
STARTCHAR uni1EDB
ENCODING 7899
SWIDTH 517 0
DWIDTH 8 0
BBX 9 12 0 0
BITMAP
000001A400
00002CA100
00009602B0
00000006A0
002BEDBA20
02E714F300
0B8000B800
3F1000B800
5E0000D600
4E0005E100
1E615E5000
04CFC40000
ENDCHAR
STARTCHAR uni1EDC
ENCODING 7900
SWIDTH 633 0
DWIDTH 10 0
BBX 10 14 1 0
BITMAP
0002B10000
0001BA0000
00001B3076
00000000A6
003AEEBA80
04E7119E10
1E50000D70
8C00000AA0
D6000009A0
F400000B80
F400003F30
C80000BA00
5E512BC100
05DFD81000
ENDCHAR
STARTCHAR uni1EDD
ENCODING 7901
SWIDTH 517 0
DWIDTH 8 0
BBX 9 12 0 0
BITMAP
0002C10000
0000AB0000
00000B32B0
00000006A0
002BEDBA20
02E714F300
0B8000B800
3F1000B800
5E0000D600
4E0005E100
1E615E5000
04CFC40000
ENDCHAR
STARTCHAR uni1EDE
ENCODING 7902
SWIDTH 633 0
DWIDTH 10 0
BBX 10 14 1 0
BITMAP
00007D4000
0000099000
00004A2076
00000000A6
003AEEBA80
04E7119E10
1E50000D70
8C00000AA0
D6000009A0
F400000B80
F400003F30
C80000BA00
5E512BC100
05DFD81000
ENDCHAR
STARTCHAR uni1EDF
ENCODING 7903
SWIDTH 517 0
DWIDTH 8 0
BBX 9 12 0 0
BITMAP
00007D4000
0000099000
00004B32B0
00001006A0
002BEDBA20
02E714F300
0B8000B800
3F1000B800
5E0000D600
4E0005E100
1E615E5000
04CFC40000
ENDCHAR
STARTCHAR uni1EE0
ENCODING 7904
SWIDTH 633 0
DWIDTH 10 0
BBX 10 14 1 0
BITMAP
0001100100
003DE72D00
00942CE576
00000000A6
003AEEBA80
04E7119E10
1E50000D70
8C00000AA0
D6000009A0
F400000B80
F400003F30
C80000BA00
5E512BC100
05DFD81000
ENDCHAR
STARTCHAR uni1EE1
ENCODING 7905
SWIDTH 517 0
DWIDTH 8 0
BBX 9 12 0 0
BITMAP
0004300400
005CD56900
00931CD4B0
00000006A0
002BEDBA20
02E714F300
0B8000B800
3F1000B800
5E0000D600
4E0005E100
1E615E5000
04CFC40000
ENDCHAR
STARTCHAR uni1EE2
ENCODING 7906
SWIDTH 633 0
DWIDTH 10 0
BBX 10 15 1 -3
BITMAP
0000000076
00000000A6
003AEEBA80
04E7119E10
1E50000D70
8C00000AA0
D6000009A0
F400000B80
F400003F30
C80000BA00
5E512BC100
05DFD81000
0000000000
0000000000
00A9000000
ENDCHAR
STARTCHAR uni1EE3
ENCODING 7907
SWIDTH 517 0
DWIDTH 8 0
BBX 9 13 0 -3
BITMAP
00000002B0
00000006A0
002BEDBA20
02E714F300
0B8000B800
3F1000B800
5E0000D600
4E0005E100
1E615E5000
04CFC40000
0000000000
0000000000
02D4000000
ENDCHAR
STARTCHAR uni1EE4
ENCODING 7908
SWIDTH 616 0
DWIDTH 10 0
BBX 9 13 1 -3
BITMAP
08B00008B0
0B80000B80
0E50000E40
2F20002F10
5D00005D00
9A00009A00
B80000D600
A90003F100
5E413D7000
06DED60000
0000000000
0000000000
00C6000000
ENDCHAR
STARTCHAR uni1EE5
ENCODING 7909
SWIDTH 528 0
DWIDTH 8 0
BBX 8 11 0 -3
BITMAP
01F2006C
04E00099
07B000C7
0A8000F4
0D5003F1
1F3007D0
1F617DA0
08ED5970
00000000
00000000
003D2000
ENDCHAR
STARTCHAR uni1EE6
ENCODING 7910
SWIDTH 616 0
DWIDTH 10 0
BBX 9 14 1 0
BITMAP
00007D4000
0000099000
00004A2000
0000000000
08B00008B0
0B80000B80
0E50000E40
2F20002F10
5D00005D00
9A00009A00
B80000D600
A90003F100
5E413D7000
06DED60000
ENDCHAR
STARTCHAR uni1EE7
ENCODING 7911
SWIDTH 528 0
DWIDTH 8 0
BBX 8 12 0 0
BITMAP
00006D40
000008A0
00003B30
00000000
01F2006C
04E00099
07B000C7
0A8000F4
0D5003F1
1F3007D0
1F617DA0
08ED5970
ENDCHAR
STARTCHAR uni1EE8
ENCODING 7912
SWIDTH 629 0
DWIDTH 10 0
BBX 11 14 1 0
BITMAP
000000760000
00000AD40000
00004A1003B0
0000000019A0
08B00008E810
0B80000B8000
0E50000E5000
2F20002F2000
5D00005D0000
9A00009A0000
B80000D60000
A90003F20000
5E413D800000
06DED7000000
ENDCHAR
STARTCHAR uni1EE9
ENCODING 7913
SWIDTH 543 0
DWIDTH 9 0
BBX 10 12 0 0
BITMAP
000001A400
00001CB158
0000870078
00000002C2
01F2006D20
04E0009900
07B000C600
0A8000F300
0D5003F100
1F3007D000
1F617DA000
08ED597000
ENDCHAR
STARTCHAR uni1EEA
ENCODING 7914
SWIDTH 629 0
DWIDTH 10 0
BBX 11 14 1 0
BITMAP
0003B1000000
0001CA000000
00001B2003B0
0000000019A0
08B00008E810
0B80000B8000
0E50000E5000
2F20002F2000
5D00005D0000
9A00009A0000
B80000D60000
A90003F20000
5E413D800000
06DED7000000
ENDCHAR
STARTCHAR uni1EEB
ENCODING 7915
SWIDTH 543 0
DWIDTH 9 0
BBX 10 12 0 0
BITMAP
0002C20000
0000AB0058
00000A4078
00000002C2
01F2006D20
04E0009900
07B000C600
0A8000F300
0D5003F100
1F3007D000
1F617DA000
08ED597000
ENDCHAR
STARTCHAR uni1EEC
ENCODING 7916
SWIDTH 629 0
DWIDTH 10 0
BBX 11 14 1 0
BITMAP
00008C300000
000009800000
00005A1003B0
0000000019A0
08B00008E810
0B80000B8000
0E50000E5000
2F20002F2000
5D00005D0000
9A00009A0000
B80000D60000
A90003F20000
5E413D800000
06DED7000000
ENDCHAR
STARTCHAR uni1EED
ENCODING 7917
SWIDTH 543 0
DWIDTH 9 0
BBX 10 12 0 0
BITMAP
00006D4000
000008A058
00003B3078
00000002C2
01F2006D20
04E0009900
07B000C600
0A8000F300
0D5003F100
1F3007D000
1F617DA000
08ED597000
ENDCHAR
STARTCHAR uni1EEE
ENCODING 7918
SWIDTH 629 0
DWIDTH 10 0
BBX 11 14 1 0
BITMAP
000020010000
000CEB1B4000
004809E903B0
0000000019A0
08B00008E810
0B80000B8000
0E50000E5000
2F20002F2000
5D00005D0000
9A00009A0000
B80000D60000
A90003F20000
5E413D800000
06DED7000000
ENDCHAR
STARTCHAR uni1EEF
ENCODING 7919
SWIDTH 543 0
DWIDTH 9 0
BBX 10 12 0 0
BITMAP
0002500310
001DBA2D58
006709E678
00000002C2
01F2006D20
04E0009900
07B000C600
0A8000F300
0D5003F100
1F3007D000
1F617DA000
08ED597000
ENDCHAR
STARTCHAR uni1EF0
ENCODING 7920
SWIDTH 629 0
DWIDTH 10 0
BBX 11 15 1 -3
BITMAP
0000000003B0
0000000019A0
08B00008E810
0B80000B8000
0E50000E5000
2F20002F2000
5D00005D0000
9A00009A0000
B80000D60000
A90003F20000
5E413D800000
06DED7000000
000000000000
000000000000
00C600000000
ENDCHAR
STARTCHAR uni1EF1
ENCODING 7921
SWIDTH 543 0
DWIDTH 9 0
BBX 10 14 0 -3
BITMAP
0000000058
0000000078
00000002C2
01F2006D20
04E0009900
07B000C600
0A8000F300
0D5003F100
1F3007D000
1F617DA000
08ED597000
0000000000
0000000000
003D200000
ENDCHAR
STARTCHAR Ygrave
ENCODING 7922
SWIDTH 461 0
DWIDTH 7 0
BBX 8 14 1 0
BITMAP
00670000
003E5000
0003B000
00000000
8B0001E5
4E000A90
0E306D10
0A72E300
06BB6000
02FB0000
01F30000
04E00000
07C00000
0A800000
ENDCHAR
STARTCHAR ygrave
ENCODING 7923
SWIDTH 448 0
DWIDTH 7 0
BBX 9 15 -1 -3
BITMAP
0000B40000
00006E1000
0000077000
0000000000
00E4000B70
00C6004D00
009800C500
006A05C000
004C0C4000
001E5B0000
000DD30000
000C900000
003E200000
12D6000000
CD60000000
ENDCHAR
STARTCHAR uni1EF4
ENCODING 7924
SWIDTH 461 0
DWIDTH 7 0
BBX 8 13 1 -3
BITMAP
8B0001E5
4E000A90
0E306D10
0A72E300
06BB6000
02FB0000
01F30000
04E00000
07C00000
0A800000
00000000
00000000
3D300000
ENDCHAR
STARTCHAR uni1EF5
ENCODING 7925
SWIDTH 448 0
DWIDTH 7 0
BBX 9 11 -1 -3
BITMAP
00E4000B70
00C6004D00
009800C500
006A05C000
004C0C4000
001E5B0000
000DD30000
000C900000
003E200000
12D6000000
CD602D3000
ENDCHAR
STARTCHAR uni1EF6
ENCODING 7926
SWIDTH 461 0
DWIDTH 7 0
BBX 8 14 1 0
BITMAP
000CA100
0001E300
00088000
00000000
8B0001E5
4E000A90
0E306D10
0A72E300
06BB6000
02FB0000
01F30000
04E00000
07C00000
0A800000
ENDCHAR
STARTCHAR uni1EF7
ENCODING 7927
SWIDTH 448 0
DWIDTH 7 0
BBX 9 15 -1 -3
BITMAP
00002E7000
000004E000
00001B6000
0000000000
00E4000B70
00C6004D00
009800C500
006A05C000
004C0C4000
001E5B0000
000DD30000
000C900000
003E200000
12D6000000
CD60000000
ENDCHAR
STARTCHAR uni1EF8
ENCODING 7928
SWIDTH 461 0
DWIDTH 7 0
BBX 8 14 1 0
BITMAP
00110010
03DE72D0
0942CE40
00000000
8B0001E5
4E000A90
0E306D10
0A72E300
06BB6000
02FB0000
01F30000
04E00000
07C00000
0A800000
ENDCHAR
STARTCHAR uni1EF9
ENCODING 7929
SWIDTH 448 0
DWIDTH 7 0
BBX 9 15 -1 -3
BITMAP
0000520230
000ABD3960
001C04EB00
0000000000
00E4000B70
00C6004D00
009800C500
006A05C000
004C0C4000
001E5B0000
000DD30000
000C900000
003E200000
12D6000000
CD60000000
ENDCHAR
STARTCHAR uni2007
ENCODING 8199
SWIDTH 480 0
DWIDTH 8 0
BBX 1 1 0 0
BITMAP
00
ENDCHAR
STARTCHAR figuredash
ENCODING 8210
SWIDTH 480 0
DWIDTH 8 0
BBX 7 1 0 4
BITMAP
5FFFFFF0
ENDCHAR
STARTCHAR endash
ENCODING 8211
SWIDTH 463 0
DWIDTH 7 0
BBX 7 1 0 4
BITMAP
5FFFFFB0
ENDCHAR
STARTCHAR emdash
ENCODING 8212
SWIDTH 769 0
DWIDTH 12 0
BBX 12 1 0 4
BITMAP
5FFFFFFFFFFA
ENDCHAR
STARTCHAR uni2015
ENCODING 8213
SWIDTH 769 0
DWIDTH 12 0
BBX 12 1 0 4
BITMAP
5FFFFFFFFFFA
ENDCHAR
STARTCHAR quoteleft
ENCODING 8216
SWIDTH 242 0
DWIDTH 4 0
BBX 3 4 1 7
BITMAP
0040
0780
1B00
2E40
ENDCHAR
STARTCHAR quoteright
ENCODING 8217
SWIDTH 242 0
DWIDTH 4 0
BBX 4 4 1 7
BITMAP
05E1
00C0
1950
0300
ENDCHAR
STARTCHAR quotesinglbase
ENCODING 8218
SWIDTH 242 0
DWIDTH 4 0
BBX 3 4 0 -2
BITMAP
4E20
0B10
8700
4000
ENDCHAR
STARTCHAR quotedblleft
ENCODING 8220
SWIDTH 408 0
DWIDTH 7 0
BBX 6 4 1 7
BITMAP
004003
0781B4
1B0660
2E46D0
ENDCHAR
STARTCHAR quotedblright
ENCODING 8221
SWIDTH 408 0
DWIDTH 7 0
BBX 6 4 1 7
BITMAP
05E1AA
00C039
1952B2
030210
ENDCHAR
STARTCHAR quotedblbase
ENCODING 8222
SWIDTH 408 0
DWIDTH 7 0
BBX 5 4 0 -2
BITMAP
4E29B0
0B12A0
872B20
402200
ENDCHAR
STARTCHAR dagger
ENCODING 8224
SWIDTH 435 0
DWIDTH 7 0
BBX 6 13 1 -2
BITMAP
000A50
000D11
4FEFFE
014900
007600
00B300
00E100
02D000
05A000
087000
0B4000
0E1000
020000
ENDCHAR
STARTCHAR daggerdbl
ENCODING 8225
SWIDTH 435 0
DWIDTH 7 0
BBX 7 13 0 -2
BITMAP
0000A500
0000D110
04FEFEE0
01159000
00087000
000B4000
000E1000
001D0000
004A1100
9EEFFA00
11A50000
00D20000
00700000
ENDCHAR
STARTCHAR bullet
ENCODING 8226
SWIDTH 295 0
DWIDTH 5 0
BBX 5 4 0 2
BITMAP
08E900
3FFF10
4FFE00
1BE500
ENDCHAR
STARTCHAR ellipsis
ENCODING 8230
SWIDTH 960 0
DWIDTH 15 0
BBX 13 2 1 0
BITMAP
5C1002D3000B70
8C0004E3001E60
ENDCHAR
STARTCHAR uni202F
ENCODING 8239
SWIDTH 121 0
DWIDTH 2 0
BBX 1 1 0 0
BITMAP
00
ENDCHAR
STARTCHAR perthousand
ENCODING 8240
SWIDTH 1144 0
DWIDTH 18 0
BBX 17 11 1 0
BITMAP
06EC20007600000000
4C17A003A000000000
A402C00B1000000000
E003B0840000000000
E0078484DD4008EB10
D42D3B2D24D06B1980
4DD4A38700E0D204A0
000670B300D1D00590
002A00C204A2C00950
00B200A71C41E24D00
0750002DE6006ED300
ENDCHAR
STARTCHAR uni2032
ENCODING 8242
SWIDTH 242 0
DWIDTH 4 0
BBX 4 4 1 7
BITMAP
02E1
07A0
0B40
1C00
ENDCHAR
STARTCHAR uni2033
ENCODING 8243
SWIDTH 408 0
DWIDTH 7 0
BBX 6 4 1 7
BITMAP
02E18A
07A0C4
0B42D0
1C0670
ENDCHAR
STARTCHAR guilsinglleft
ENCODING 8249
SWIDTH 252 0
DWIDTH 4 0
BBX 4 6 0 1
BITMAP
0047
04B1
2C10
4B00
0A40
0190
ENDCHAR
STARTCHAR guilsinglright
ENCODING 8250
SWIDTH 252 0
DWIDTH 4 0
BBX 4 6 0 1
BITMAP
0830
02C0
0095
01C4
0A60
6500
ENDCHAR
STARTCHAR fraction
ENCODING 8260
SWIDTH 84 0
DWIDTH 1 0
BBX 9 11 -4 0
BITMAP
00000001B0
0000000A30
0000006700
000002A000
00000B2000
0000850000
0003900000
001B100000
0093000000
0580000000
1B00000000
ENDCHAR
STARTCHAR zero.sups
ENCODING 8304
SWIDTH 357 0
DWIDTH 6 0
BBX 6 7 1 6
BITMAP
01BE80
0B61D2
3C0095
6800A4
7700D1
5B1890
0AEA00
ENDCHAR
STARTCHAR i.sups
ENCODING 8305
SWIDTH 163 0
DWIDTH 3 0
BBX 3 8 1 6
BITMAP
0B20
0000
1500
4A00
7700
A400
D100
9000
ENDCHAR
STARTCHAR four.sups
ENCODING 8308
SWIDTH 354 0
DWIDTH 6 0
BBX 5 6 1 6
BITMAP
0008C0
008890
063850
6FFFF0
000D00
001800
ENDCHAR
STARTCHAR five.sups
ENCODING 8309
SWIDTH 351 0
DWIDTH 6 0
BBX 6 6 1 6
BITMAP
02FFF4
067000
0AEE40
0416B0
751890
2BEB10
ENDCHAR
STARTCHAR six.sups
ENCODING 8310
SWIDTH 353 0
DWIDTH 6 0
BBX 6 7 1 6
BITMAP
019EC2
09A130
1E1000
5DCE50
5B14C0
3C16A0
08EB20
ENDCHAR
STARTCHAR seven.sups
ENCODING 8311
SWIDTH 353 0
DWIDTH 6 0
BBX 5 7 2 5
BITMAP
9FFF80
002B10
00C200
077000
0D1000
5A0000
330000
ENDCHAR
STARTCHAR eight.sups
ENCODING 8312
SWIDTH 353 0
DWIDTH 6 0
BBX 6 7 1 6
BITMAP
02CE90
0971D1
0761B0
07BD20
580580
891880
2CEB10
ENDCHAR
STARTCHAR nine.sups
ENCODING 8313
SWIDTH 353 0
DWIDTH 6 0
BBX 6 7 1 6
BITMAP
03DD40
0C44D0
1C00D1
1E24E0
08EBC0
221850
5EE600
ENDCHAR
STARTCHAR parenleft.sups
ENCODING 8317
SWIDTH 227 0
DWIDTH 4 0
BBX 4 9 1 5
BITMAP
0028
00C2
0680
0C20
1D00
2C00
1C00
0D00
0920
ENDCHAR
STARTCHAR parenright.sups
ENCODING 8318
SWIDTH 226 0
DWIDTH 4 0
BBX 3 9 1 5
BITMAP
0550
03A0
01C0
01C0
03B0
0770
0C20
5900
A000
ENDCHAR
STARTCHAR n.sups
ENCODING 8319
SWIDTH 355 0
DWIDTH 6 0
BBX 5 6 1 5
BITMAP
3AAE60
6D25A0
960680
B30950
E00C20
500600
ENDCHAR
STARTCHAR zero.subs
ENCODING 8320
SWIDTH 357 0
DWIDTH 6 0
BBX 6 7 -1 -3
BITMAP
009EA0
0891A6
0D1068
3B0077
4B00B4
2E15C0
07EC20
ENDCHAR
STARTCHAR one.subs
ENCODING 8321
SWIDTH 356 0
DWIDTH 6 0
BBX 3 6 1 -3
BITMAP
9D70
0B40
0E10
2D00
5A00
8700
ENDCHAR
STARTCHAR two.subs
ENCODING 8322
SWIDTH 353 0
DWIDTH 6 0
BBX 6 7 -1 -3
BITMAP
01BEA0
0451D3
0000C2
0004A0
003B10
05A100
5FFFA0
ENDCHAR
STARTCHAR three.subs
ENCODING 8323
SWIDTH 351 0
DWIDTH 6 0
BBX 6 7 -1 -3
BITMAP
02BEA0
0131D3
0003D1
00BF40
0006B0
4816B0
09EC30
ENDCHAR
STARTCHAR four.subs
ENCODING 8324
SWIDTH 354 0
DWIDTH 6 0
BBX 6 6 -1 -3
BITMAP
0005F1
0059B0
045480
3FFFF4
000A30
000900
ENDCHAR
STARTCHAR five.subs
ENCODING 8325
SWIDTH 351 0
DWIDTH 6 0
BBX 6 6 -1 -3
BITMAP
00DFF7
02B000
07EE70
0323E0
4814D0
09EC30
ENDCHAR
STARTCHAR six.subs
ENCODING 8326
SWIDTH 353 0
DWIDTH 6 0
BBX 6 7 -1 -3
BITMAP
007ED4
06C222
0D3000
1EBE80
2E32E0
0D23D0
05ED40
ENDCHAR
STARTCHAR seven.subs
ENCODING 8327
SWIDTH 353 0
DWIDTH 6 0
BBX 5 7 0 -4
BITMAP
6FFFC0
000B20
009500
03B000
0B4000
1D0000
240000
ENDCHAR
STARTCHAR eight.subs
ENCODING 8328
SWIDTH 353 0
DWIDTH 6 0
BBX 6 7 -1 -3
BITMAP
00AEB1
05A1A4
03A0B2
05BD50
2B02C0
4C15C0
0AEC30
ENDCHAR
STARTCHAR nine.subs
ENCODING 8329
SWIDTH 353 0
DWIDTH 6 0
BBX 6 7 -1 -3
BITMAP
01BE70
0972D2
0C1094
0C42D4
05ECD1
131690
2DE800
ENDCHAR
STARTCHAR parenleft.subs
ENCODING 8333
SWIDTH 227 0
DWIDTH 4 0
BBX 3 9 0 -4
BITMAP
01A0
0950
3B00
8600
C200
D000
D100
B300
6500
ENDCHAR
STARTCHAR parenright.subs
ENCODING 8334
SWIDTH 226 0
DWIDTH 4 0
BBX 4 9 -1 -4
BITMAP
0280
00D0
00D0
00D1
00E0
03B0
0950
2C00
9200
ENDCHAR
STARTCHAR uni0259.sups
ENCODING 8340
SWIDTH 320 0
DWIDTH 5 0
BBX 6 5 0 6
BITMAP
01BEA0
0031B4
1FFFF3
1B03C0
09EB20
ENDCHAR
STARTCHAR colonmonetary
ENCODING 8353
SWIDTH 480 0
DWIDTH 8 0
BBX 8 14 1 -2
BITMAP
00003270
00008370
004BFF80
05D669B1
1E382700
8A096200
C6458000
E4827000
F3963000
D9580000
8F486700
0DFEA200
36800000
41500000
ENDCHAR
STARTCHAR lira
ENCODING 8356
SWIDTH 480 0
DWIDTH 8 0
BBX 8 10 0 0
BITMAP
0004CEC2
002E5178
008A0000
00A80000
0CFFFF10
2EFFFB00
00A70000
01E20000
1B900000
CFFFFF40
ENDCHAR
STARTCHAR uni20A6
ENCODING 8358
SWIDTH 480 0
DWIDTH 8 0
BBX 8 10 0 0
BITMAP
008C0086
00BD00B3
00CB20E0
02BA42C0
6FFFFFFB
CFFFFFF6
0C33BB20
0E01CB00
2C00CA00
5900C800
ENDCHAR
STARTCHAR peseta
ENCODING 8359
SWIDTH 480 0
DWIDTH 8 0
BBX 9 10 0 0
BITMAP
009FFD6000
00D604F200
3EFFFFFF10
04E004D000
07B14D5000
0AFEC50000
0C60000000
1F20000000
3E00000000
6B00000000
ENDCHAR
STARTCHAR dong
ENCODING 8363
SWIDTH 480 0
DWIDTH 8 0
BBX 9 12 0 0
BITMAP
0000001100
0000007900
0000CFFF90
000000D400
003CE8F000
02E619C000
0980079000
0C400A6000
0B816E3000
03DD7C0000
0000000000
6FFFFF1000
ENDCHAR
STARTCHAR Euro
ENCODING 8364
SWIDTH 480 0
DWIDTH 8 0
BBX 9 10 0 0
BITMAP
0003AEE600
005E613D10
02E4000000
4FFFFFD000
09A0000000
9FFFFD0000
0990000000
07C0000000
02F614A000
005DFC4000
ENDCHAR
STARTCHAR uni20B1
ENCODING 8369
SWIDTH 480 0
DWIDTH 8 0
BBX 9 10 0 0
BITMAP
008FFC4000
00C717E100
1FFFFFFF30
5EFFFFFD00
06C14C8000
09FEC60000
0C60000000
0F20000000
3E00000000
6B00000000
ENDCHAR
STARTCHAR uni20B2
ENCODING 8370
SWIDTH 480 0
DWIDTH 8 0
BBX 8 14 0 -2
BITMAP
00000760
00003C40
001AFFF5
00BE515C
06F30000
0C900000
1F300000
3F106FF4
3F0001F1
1F3005C0
0BB22B90
01BFD910
000D0000
00170000
ENDCHAR
STARTCHAR uni20B5
ENCODING 8373
SWIDTH 480 0
DWIDTH 8 0
BBX 7 15 1 -2
BITMAP
00000100
00004800
0005B910
01CDDBB0
0BB0B050
4F21B000
9A048000
D6075000
F40A2000
F30B0000
D61B0000
7C597600
09EEA100
00A20000
00700000
ENDCHAR
STARTCHAR uni20B9
ENCODING 8377
SWIDTH 480 0
DWIDTH 8 0
BBX 8 10 1 0
BITMAP
0BFFFFF1
0003D500
3FFFFF90
0000D600
013AC100
CFF81000
01F30000
00A90000
004E1000
000D7000
ENDCHAR
STARTCHAR uni20BA
ENCODING 8378
SWIDTH 480 0
DWIDTH 8 0
BBX 8 10 0 0
BITMAP
000B8000
000E4160
003FB930
08CD1540
019EB610
3AE70044
00F400B5
03F104E1
06D27E40
09DC8200
ENDCHAR
STARTCHAR uni2113
ENCODING 8467
SWIDTH 394 0
DWIDTH 6 0
BBX 7 11 0 0
BITMAP
0002CE70
000C74E0
004E03D0
009A0880
00C73D10
00F6D300
03FD3000
1AD10000
AD900000
08C14500
02CFB300
ENDCHAR
STARTCHAR uni2117
ENCODING 8471
SWIDTH 665 0
DWIDTH 11 0
BBX 11 11 0 0
BITMAP
0002AEFC6000
005D6103B800
03C100000B20
0B20CFFA0570
2900E01C3280
5503B03D1370
6506FFC40740
570950001C00
1C1A2000A500
06C4015C7000
005CFEA30000
ENDCHAR
STARTCHAR uni2120
ENCODING 8480
SWIDTH 601 0
DWIDTH 10 0
BBX 11 5 0 6
BITMAP
02CE62F21D60
059135C58C40
007708799C10
161B3B2D2C00
0AEA0D003A00
ENDCHAR
STARTCHAR trademark
ENCODING 8482
SWIDTH 611 0
DWIDTH 10 0
BBX 10 6 1 5
BITMAP
AFFF5F50B9
05903C86C6
086068AAA3
0B3094C3D0
0D00C101C0
0200000000
ENDCHAR
STARTCHAR uni2126
ENCODING 8486
SWIDTH 658 0
DWIDTH 11 0
BBX 11 10 0 0
BITMAP
00029DFD7000
003E8215E700
01E600007E00
07C000004F10
0C7000004F10
0E5000007C00
0D500000D500
0A800008A000
03E2007B1000
FFF907FFF200
ENDCHAR
STARTCHAR estimated
ENCODING 8494
SWIDTH 800 0
DWIDTH 13 0
BBX 12 10 1 0
BITMAP
0029DFEB5000
05C620249A00
3F2000000A90
AF2000000AF2
DFFFFFFFFFF5
DF2000000000
AF2000000000
3F4000000000
05E820138900
0029DFEB5000
ENDCHAR
STARTCHAR onethird
ENCODING 8531
SWIDTH 778 0
DWIDTH 12 0
BBX 11 11 1 0
BITMAP
00000001B000
19D6000A2000
00C300760000
00E003A00000
03B00B19ED20
068084051980
095490002B50
001B1006F800
00A300003D10
067001A13D10
2A00006EE600
ENDCHAR
STARTCHAR twothirds
ENCODING 8532
SWIDTH 795 0
DWIDTH 13 0
BBX 12 11 0 0
BITMAP
007EC2000490
018198001B10
000077009300
0001C1057000
001B302B6DE5
02B300A2415C
1EFFF7600189
00003A002FC1
0000B10001B5
0008400931B6
00480003CE90
ENDCHAR
STARTCHAR oneeighth
ENCODING 8539
SWIDTH 773 0
DWIDTH 12 0
BBX 11 11 1 0
BITMAP
00000001B000
19D6000A2000
00C300660000
00E002A00000
03B00B17ED20
0680852D1780
0954901C1850
001B103BC900
009300C10D10
057001E22E10
2B00007ED500
ENDCHAR
STARTCHAR threeeighths
ENCODING 8540
SWIDTH 787 0
DWIDTH 13 0
BBX 12 11 0 0
BITMAP
01AEC1000570
0041A6002A00
0002C300A200
007F70075000
0003D03A5DE4
2A13E1B1D24B
07ED5940B258
00004801ABC0
0001B00A30A3
000A200C41C3
00660005EE80
ENDCHAR
STARTCHAR fiveeighths
ENCODING 8541
SWIDTH 787 0
DWIDTH 13 0
BBX 12 11 0 0
BITMAP
000000000570
009FFB002A00
00C00000A200
03EEA0075000
0131C43A5DE4
1A12D2B1D24B
06ED5940B258
00004801ABC0
0001B00A30A3
000A200C41C3
00660005EE80
ENDCHAR
STARTCHAR seveneighths
ENCODING 8542
SWIDTH 770 0
DWIDTH 12 0
BBX 11 11 1 0
BITMAP
00000002A000
6FFFC00B2000
000B20750000
009503900000
03B01B18EC20
0A40932C1870
1E05801B1940
251B003BC800
00A200C11D00
066001E23E00
2A00008ED500
ENDCHAR
STARTCHAR uni2190
ENCODING 8592
SWIDTH 593 0
DWIDTH 9 0
BBX 10 9 0 0
BITMAP
0000700000
000B800000
00B8000000
0B80000000
7FFFFFFFF3
0B80000000
00B8000000
000B800000
0000700000
ENDCHAR
STARTCHAR arrowup
ENCODING 8593
SWIDTH 593 0
DWIDTH 9 0
BBX 9 9 0 -1
BITMAP
0001B50000
001BEE5000
01B7C5D500
1B70C42D50
3700C40280
0000C40000
0000C40000
0000C40000
0000C40000
ENDCHAR
STARTCHAR uni2192
ENCODING 8594
SWIDTH 593 0
DWIDTH 9 0
BBX 10 9 0 0
BITMAP
0000440000
00002D4000
000002D400
0000002D40
AFFFFFFFE1
0000002D40
000002D400
00002D4000
0000440000
ENDCHAR
STARTCHAR arrowdown
ENCODING 8595
SWIDTH 593 0
DWIDTH 9 0
BBX 9 9 0 -1
BITMAP
0000C40000
0000C40000
0000C40000
0000C40000
3800C40280
1B80C42D50
01B7C5D500
001BEE5000
0001B50000
ENDCHAR
STARTCHAR partialdiff
ENCODING 8706
SWIDTH 519 0
DWIDTH 8 0
BBX 8 10 0 0
BITMAP
0008DEA1
000722C9
0000005D
0000004D
019EE96C
0C9219F8
5C0001E3
980008A0
7D218D10
09EE9100
ENDCHAR
STARTCHAR uni2206
ENCODING 8710
SWIDTH 565 0
DWIDTH 9 0
BBX 9 10 -1 0
BITMAP
000002FA00
00000BAC00
00004D3E00
0000C52F10
0006C00F30
001E300E50
008A000C70
02E2000A90
0A800008B0
3FFFFFFFC0
ENDCHAR
STARTCHAR product
ENCODING 8719
SWIDTH 646 0
DWIDTH 10 0
BBX 9 13 1 -3
BITMAP
7FFFFFFF20
7C00002F20
7C00002F20
7C00002F20
7C00002F20
7C00002F20
7C00002F20
7C00002F20
7C00002F20
7C00002F20
7C00002F20
7C00002F20
0100000100
ENDCHAR
STARTCHAR summation
ENCODING 8721
SWIDTH 485 0
DWIDTH 8 0
BBX 8 12 0 -2
BITMAP
4FFFFFF6
0C700000
03E20000
007C0000
000B7000
0002E300
0004E200
001D6000
009B0000
05E20000
1E500000
7FFFFFFD
ENDCHAR
STARTCHAR minus
ENCODING 8722
SWIDTH 480 0
DWIDTH 8 0
BBX 8 1 0 5
BITMAP
4FFFFFF5
ENDCHAR
STARTCHAR uni2215
ENCODING 8725
SWIDTH 84 0
DWIDTH 1 0
BBX 9 11 -4 0
BITMAP
00000001B0
0000000A30
0000006700
000002A000
00000B2000
0000850000
0003900000
001B100000
0093000000
0580000000
1B00000000
ENDCHAR
STARTCHAR uni2219
ENCODING 8729
SWIDTH 244 0
DWIDTH 4 0
BBX 2 2 1 4
BITMAP
6C
9C
ENDCHAR
STARTCHAR radical
ENCODING 8730
SWIDTH 537 0
DWIDTH 9 0
BBX 10 15 1 -1
BITMAP
0000000022
00000000C2
00000004A0
0000000A30
0000002B00
0000008500
000000C000
0520057000
BD500B1000
0860390000
0680920000
04A1A00000
02C7400000
00DA000000
00C6000000
ENDCHAR
STARTCHAR infinity
ENCODING 8734
SWIDTH 752 0
DWIDTH 12 0
BBX 12 6 0 2
BITMAP
06DD704DFC30
2D23E9E615D1
68004F7000B4
68004F8000B3
2E33D9F714D0
06ED505CFC30
ENDCHAR
STARTCHAR integral
ENCODING 8747
SWIDTH 321 0
DWIDTH 5 0
BBX 8 16 -1 -3
BITMAP
000009F4
00006C10
0000C500
0001F100
0003E000
0005C000
0007A000
00089000
00097000
000B6000
000C4000
000E2000
002F0000
005B0000
01C50000
4F800000
ENDCHAR
STARTCHAR approxequal
ENCODING 8776
SWIDTH 480 0
DWIDTH 8 0
BBX 8 6 0 2
BITMAP
07EC41A1
1A15CE60
00000000
00000000
07EC41A1
1A15CE60
ENDCHAR
STARTCHAR notequal
ENCODING 8800
SWIDTH 480 0
DWIDTH 8 0
BBX 8 8 0 1
BITMAP
000004A0
00000C10
4FFFFFF5
0002B100
000B2000
4FFFFFF5
01C10000
08500000
ENDCHAR
STARTCHAR lessequal
ENCODING 8804
SWIDTH 480 0
DWIDTH 8 0
BBX 8 9 0 0
BITMAP
00000022
00016BE3
049EA500
4FA10000
05BE9300
00027DD3
00000032
00000000
4FFFFFF5
ENDCHAR
STARTCHAR greaterequal
ENCODING 8805
SWIDTH 480 0
DWIDTH 8 0
BBX 8 9 0 0
BITMAP
12000000
2DC61000
004AEA40
000019F5
0028DC61
2CD82000
24000000
00000000
4FFFFFF5
ENDCHAR
STARTCHAR uni231C
ENCODING 8988
SWIDTH 292 0
DWIDTH 5 0
BBX 6 12 0 -1
BITMAP
005FF7
007700
00A400
00D100
01E000
04B000
078000
0A5000
0D2000
1E0000
4B0000
230000
ENDCHAR
STARTCHAR uni231D
ENCODING 8989
SWIDTH 293 0
DWIDTH 5 0
BBX 4 12 1 -1
BITMAP
2FF8
0085
00B2
00D0
02B0
0580
0850
0B30
0E00
2C00
5900
2200
ENDCHAR
STARTCHAR uni231E
ENCODING 8990
SWIDTH 292 0
DWIDTH 5 0
BBX 4 12 0 -1
BITMAP
0023
0076
00A3
00D1
01C0
0490
0760
0A30
0D10
1C00
4900
7FF4
ENDCHAR
STARTCHAR uni231F
ENCODING 8991
SWIDTH 293 0
DWIDTH 5 0
BBX 6 12 -1 -1
BITMAP
000022
0000A5
0000D2
0001E0
0004B0
000780
000A50
000D20
001E00
004B00
007800
6FF500
ENDCHAR
STARTCHAR uni25A0
ENCODING 9632
SWIDTH 895 0
DWIDTH 14 0
BBX 13 13 1 -1
BITMAP
FFFFFFFFFFFFD0
FFFFFFFFFFFFD0
FFFFFFFFFFFFD0
FFFFFFFFFFFFD0
FFFFFFFFFFFFD0
FFFFFFFFFFFFD0
FFFFFFFFFFFFD0
FFFFFFFFFFFFD0
FFFFFFFFFFFFD0
FFFFFFFFFFFFD0
FFFFFFFFFFFFD0
FFFFFFFFFFFFD0
FFFFFFFFFFFFD0
ENDCHAR
STARTCHAR triagup
ENCODING 9650
SWIDTH 895 0
DWIDTH 14 0
BBX 13 13 1 -1
BITMAP
00000080000000
000005F3000000
00000CFB000000
00004FFF300000
0000CFFFA00000
0004FFFFF20000
000BFFFFFA0000
003FFFFFFF2000
00BFFFFFFF9000
03FFFFFFFFF200
0AFFFFFFFFF900
3FFFFFFFFFFF20
AFFFFFFFFFFF90
ENDCHAR
STARTCHAR uni25B3
ENCODING 9651
SWIDTH 895 0
DWIDTH 14 0
BBX 13 13 1 -1
BITMAP
000000A0000000
000006F4000000
00000D5C000000
00005A0B400000
0000C304B00000
0005B000C30000
000C40005A0000
004C00000D3000
00B4000006A000
03C0000000D200
0B500000007900
3D000000001E20
AFFFFFFFFFFF90
ENDCHAR
STARTCHAR uni25B6
ENCODING 9654
SWIDTH 895 0
DWIDTH 14 0
BBX 13 13 1 -1
BITMAP
B4000000000000
FFC50000000000
FFFFC500000000
FFFFFFC5000000
FFFFFFFFD50000
FFFFFFFFFFD600
FFFFFFFFFFFFB0
FFFFFFFFFFD600
FFFFFFFFD50000
FFFFFFC5000000
FFFFC500000000
FFC50000000000
B4000000000000
ENDCHAR
STARTCHAR uni25B7
ENCODING 9655
SWIDTH 895 0
DWIDTH 14 0
BBX 13 13 1 -1
BITMAP
B4000000000000
FDC50000000000
E05CC500000000
E0004BC5000000
E000004BC50000
E00000003AD600
E0000000005FB0
E00000003BD600
E000004BD50000
E0004CC5000000
E05CC500000000
FDC50000000000
B4000000000000
ENDCHAR
STARTCHAR triagdn
ENCODING 9660
SWIDTH 895 0
DWIDTH 14 0
BBX 13 13 1 -1
BITMAP
AFFFFFFFFFFF90
3FFFFFFFFFFF20
0AFFFFFFFFF900
03FFFFFFFFF200
00BFFFFFFF9000
003FFFFFFF2000
000BFFFFFA0000
0004FFFFF20000
0000CFFFA00000
00004FFF300000
00000CFB000000
000005F3000000
00000080000000
ENDCHAR
STARTCHAR uni25BD
ENCODING 9661
SWIDTH 895 0
DWIDTH 14 0
BBX 13 13 1 -1
BITMAP
AFFFFFFFFFFF90
3D000000001E20
0B500000007900
03C0000000D200
00B4000006A000
004C00000D3000
000C40005A0000
0005B000C30000
0000C304B00000
00005A0B400000
00000D5C000000
000006F4000000
000000B0000000
ENDCHAR
STARTCHAR uni25C0
ENCODING 9664
SWIDTH 895 0
DWIDTH 14 0
BBX 14 13 0 -1
BITMAP
0000000000005B
00000000005DFD
000000006DFFFD
0000006DFFFFFD
00006DFFFFFFFD
017DFFFFFFFFFD
1CFFFFFFFFFFFD
006DFFFFFFFFFD
00006DFFFFFFFD
0000006DFFFFFD
000000006DFFFD
00000000005DFD
0000000000005B
ENDCHAR
STARTCHAR uni25C1
ENCODING 9665
SWIDTH 895 0
DWIDTH 14 0
BBX 14 13 0 -1
BITMAP
0000000000005B
00000000005DCD
000000006DB41D
0000006DB4001D
00006DA300001D
017D920000001D
1CE4000000001D
006DA30000001D
00006DA300001D
0000006DB4001D
000000006DB41D
00000000005DCD
0000000000005B
ENDCHAR
STARTCHAR uni25C6
ENCODING 9670
SWIDTH 895 0
DWIDTH 14 0
BBX 14 14 0 -2
BITMAP
0000002B100000
000002DFC10000
00002DFFFC1000
0001DFFFFFC100
001CFFFFFFFB10
01CFFFFFFFFFB0
1CFFFFFFFFFFFB
1CFFFFFFFFFFFA
01CFFFFFFFFFB0
001CFFFFFFFB10
0001DFFFFFC100
00002DFFFC1000
000002DFC10000
0000002B100000
ENDCHAR
STARTCHAR uni25C9
ENCODING 9673
SWIDTH 895 0
DWIDTH 14 0
BBX 15 13 0 -1
BITMAP
00005AEFEA400000
001BC51026CA1000
01C8039A8209B000
07A06FFFFF50C600
0D33FFFFFFE14C00
1E08FFFFFFF60F00
2D0AFFFFFFF80E10
1E08FFFFFFF70F00
0D33FFFFFFE24C00
08A07FFFFF50B600
01D8039B9209B000
002CC51025CB1000
00005BEFEA500000
ENDCHAR
STARTCHAR lozenge
ENCODING 9674
SWIDTH 499 0
DWIDTH 8 0
BBX 7 10 1 0
BITMAP
009E1000
02D88000
0971E100
2D108800
97001E10
97001E10
2D008800
0961D100
02D88000
009E1000
ENDCHAR
STARTCHAR uni2610
ENCODING 9744
SWIDTH 765 0
DWIDTH 12 0
BBX 11 11 1 0
BITMAP
7FFFFFFFFF20
A00000000F20
A00000000F20
A00000000F20
A00000000F20
A00000000F20
A00000000F20
A00000000F20
A00000000F20
A00000000F20
DFFFFFFFFB00
ENDCHAR
STARTCHAR uni2611
ENCODING 9745
SWIDTH 766 0
DWIDTH 12 0
BBX 12 13 1 0
BITMAP
00000000003A
0000000003D4
7FFFFFFFFF40
A0000002DF20
A000000C4F20
A00000970F20
A1D004B00F20
A0C41C200F20
A07777000F20
A04BC0000F20
A01C50000F20
A00000000F20
DFFFFFFFFB00
ENDCHAR
STARTCHAR uni266A
ENCODING 9834
SWIDTH 480 0
DWIDTH 8 0
BBX 8 12 0 0
BITMAP
00015000
0001F600
0001FF70
0001B4E2
0001B086
0001B056
0001B062
0001B000
0001B000
09EEA000
6FFF7000
3DE90000
ENDCHAR
STARTCHAR uni2713
ENCODING 10003
SWIDTH 542 0
DWIDTH 9 0
BBX 12 12 -1 -1
BITMAP
000000000092
000000001B90
00000000B700
000000098000
0000007A0000
000003C00000
1A001C300000
0D3087000000
0882C0000000
04B950000000
01EC00000000
004100000000
ENDCHAR
STARTCHAR uni2752
ENCODING 10066
SWIDTH 895 0
DWIDTH 14 0
BBX 13 13 1 -1
BITMAP
8FFFFFFFFFFFD0
B00000000005D0
B00000000005D0
B00000000005D0
B00000000005D0
B00000000005D0
B00000000005D0
B00000000005D0
B00000000005D0
B00000000005D0
B00000000005D0
B00000000005D0
FFFFFFFFFFFF60
ENDCHAR
STARTCHAR uni2E22
ENCODING 11810
SWIDTH 292 0
DWIDTH 5 0
BBX 5 8 1 3
BITMAP
03FF80
069000
096000
0C3000
0E0000
3C0000
690000
110000
ENDCHAR
STARTCHAR uni2E23
ENCODING 11811
SWIDTH 293 0
DWIDTH 5 0
BBX 4 8 1 3
BITMAP
2FF9
0076
00A3
00D1
01D0
04A0
0770
0110
ENDCHAR
STARTCHAR uni2E24
ENCODING 11812
SWIDTH 292 0
DWIDTH 5 0
BBX 3 8 0 -3
BITMAP
0110
0950
0C20
0D00
3B00
6800
9500
CFE0
ENDCHAR
STARTCHAR uni2E25
ENCODING 11813
SWIDTH 293 0
DWIDTH 5 0
BBX 5 8 -1 -3
BITMAP
000210
000B30
000E00
002C00
005900
008600
00B400
BFF100
ENDCHAR
STARTCHAR f_f
ENCODING 64256
SWIDTH 552 0
DWIDTH 9 0
BBX 11 11 0 0
BITMAP
0007EE44DE60
004E311E7110
0099004E0000
0CFFFFFFF400
01F300B70000
04F000E50000
07C002F20000
0A9005E00000
0C6008B00000
1F300A800000
3F000D500000
ENDCHAR
STARTCHAR fi
ENCODING 64257
SWIDTH 519 0
DWIDTH 8 0
BBX 9 12 0 0
BITMAP
0000000830
0008EE4E50
004E320000
0099000000
0CFFE08B00
01F300B800
04E000E500
07C002F200
0A9005E000
0C6008B000
1F300A8000
3F000D5000
ENDCHAR
STARTCHAR fl
ENCODING 64258
SWIDTH 530 0
DWIDTH 8 0
BBX 9 11 0 0
BITMAP
0008EE2C60
004E321F30
0099004F00
0CFFE07C00
01F300A800
04E000D500
07C001F200
0A9004E000
0C6008B000
1F300A8000
3F0008E000
ENDCHAR
STARTCHAR uniFEFF
ENCODING 65279
SWIDTH 0 0
DWIDTH 0 0
BBX 1 1 0 0
BITMAP
00
ENDCHAR
STARTCHAR .notdef
ENCODING -1
SWIDTH 628 0
DWIDTH 10 0
BBX 10 10 0 0
BITMAP
007FFFFFFD
00AD7006DA
00D5C03B86
01E0C4C2B3
04B08F40E1
0781CD33C0
0A59678690
0E8902D960
2FB000CE30
5FFFFFFE00
ENDCHAR
STARTCHAR uni00470303
ENCODING -1
SWIDTH 588 0
DWIDTH 9 0
BBX 10 14 0 0
BITMAP
0000020001
00008ED378
0001B06EB1
0000000000
00029DFC30
003E9206C0
01E7000000
08D0000000
0D60000000
1F300BFF90
1F40000B50
0D80000F20
05E6117E00
005CFEA300
ENDCHAR
STARTCHAR uni00670303
ENCODING -1
SWIDTH 531 0
DWIDTH 9 0
BBX 9 15 0 -3
BITMAP
0002510310
001DAB1D20
004807E700
0000000000
003BED5D00
03E714EA00
0C7000B700
3F1000E400
5E0004F100
3F415DD000
08EE899000
00000C6000
00003F2000
A513C90000
4CFD800000
ENDCHAR
STARTCHAR iogonek.d
ENCODING -1
SWIDTH 237 0
DWIDTH 4 0
BBX 5 11 -1 -3
BITMAP
001F30
004F00
007C00
009900
00C600
00F300
03F000
06C000
192000
861000
7E7000
ENDCHAR
STARTCHAR f_t
ENCODING -1
SWIDTH 561 0
DWIDTH 9 0
BBX 10 11 0 0
BITMAP
0008EE3200
004E327A00
009900B600
0CFFFFFFF3
01F303F000
04F006C000
07C00A9000
0A900D6000
0C601F3000
1F301F5100
3F0009ED10
ENDCHAR
STARTCHAR I.a
ENCODING -1
SWIDTH 324 0
DWIDTH 5 0
BBX 6 10 0 0
BITMAP
02FFFA
001F30
004E00
007B00
00A800
00D500
02F200
05E000
08B000
FFFC00
ENDCHAR
STARTCHAR Igrave.a
ENCODING -1
SWIDTH 324 0
DWIDTH 5 0
BBX 6 14 0 0
BITMAP
007700
004E40
0004A0
000000
02FFFA
001F30
004E00
007B00
00A800
00D500
02F200
05E000
08B000
FFFC00
ENDCHAR
STARTCHAR Iacute.a
ENCODING -1
SWIDTH 324 0
DWIDTH 5 0
BBX 7 14 0 0
BITMAP
00001B10
0003DB10
00096000
00000000
02FFFA00
001F3000
004E0000
007B0000
00A80000
00D50000
02F20000
05E00000
08B00000
FFFC0000
ENDCHAR
STARTCHAR Icircumflex.a
ENCODING -1
SWIDTH 324 0
DWIDTH 5 0
BBX 7 14 0 0
BITMAP
001CF500
01C84D10
01300310
00000000
02FFFA00
001F3000
004E0000
007B0000
00A80000
00D50000
02F20000
05E00000
08B00000
FFFC0000
ENDCHAR
STARTCHAR Itilde.a
ENCODING -1
SWIDTH 324 0
DWIDTH 5 0
BBX 7 14 0 0
BITMAP
00110010
04DE62D0
0A32CE40
00000000
02FFFA00
001F3000
004E0000
007B0000
00A80000
00D50000
02F20000
05E00000
08B00000
FFFC0000
ENDCHAR
STARTCHAR Idieresis.a
ENCODING -1
SWIDTH 324 0
DWIDTH 5 0
BBX 7 13 0 0
BITMAP
01D21D20
00000000
00000000
02FFFA00
001F3000
004E0000
007B0000
00A80000
00D50000
02F20000
05E00000
08B00000
FFFC0000
ENDCHAR
STARTCHAR Imacron.a
ENCODING -1
SWIDTH 324 0
DWIDTH 5 0
BBX 7 13 0 0
BITMAP
01FFFF10
00000000
00000000
02FFFA00
001F3000
004E0000
007B0000
00A80000
00D50000
02F20000
05E00000
08B00000
FFFC0000
ENDCHAR
STARTCHAR Idotaccent.a
ENCODING -1
SWIDTH 324 0
DWIDTH 5 0
BBX 6 13 0 0
BITMAP
0009A0
000000
000000
02FFFA
001F30
004E00
007B00
00A800
00D500
02F200
05E000
08B000
FFFC00
ENDCHAR
STARTCHAR uni01CF.a
ENCODING -1
SWIDTH 324 0
DWIDTH 5 0
BBX 7 14 0 0
BITMAP
00400320
00C66D20
003FD200
00000000
02FFFA00
001F3000
004E0000
007B0000
00A80000
00D50000
02F20000
05E00000
08B00000
FFFC0000
ENDCHAR
STARTCHAR uni1EC8.a
ENCODING -1
SWIDTH 324 0
DWIDTH 5 0
BBX 6 14 0 0
BITMAP
000DA0
0001E2
000970
000000
02FFFA
001F30
004E00
007B00
00A800
00D500
02F200
05E000
08B000
FFFC00
ENDCHAR
STARTCHAR uni1ECA.a
ENCODING -1
SWIDTH 324 0
DWIDTH 5 0
BBX 6 13 0 -3
BITMAP
02FFFA
001F30
004E00
007B00
00A800
00D500
02F200
05E000
08B000
FFFC00
000000
000000
4D2000
ENDCHAR
STARTCHAR Iogonek.a
ENCODING -1
SWIDTH 324 0
DWIDTH 5 0
BBX 6 13 0 -3
BITMAP
02FFFA
001F30
004E00
007B00
00A800
00D500
02F200
05E000
08B000
FFFC00
391000
D20000
BE4000
ENDCHAR
STARTCHAR a.a
ENCODING -1
SWIDTH 492 0
DWIDTH 8 0
BBX 7 8 0 0
BITMAP
007CED40
008218D0
000004E0
016BDFD0
1DB429A0
6D000C70
6D229F40
1BFC4F10
ENDCHAR
STARTCHAR agrave.a
ENCODING -1
SWIDTH 492 0
DWIDTH 8 0
BBX 7 12 0 0
BITMAP
0004B000
0001C800
00002C10
00000000
007CED40
008218D0
000004E0
016BDFD0
1DB429A0
6D000C70
6D229F40
1BFC4F10
ENDCHAR
STARTCHAR aacute.a
ENCODING -1
SWIDTH 492 0
DWIDTH 8 0
BBX 8 12 0 0
BITMAP
000002B2
00003E80
0000B400
00000000
007CED40
008218D0
000004E0
016BDFD0
1DB429A0
6D000C70
6D229F40
1BFC4F10
ENDCHAR
STARTCHAR acircumflex.a
ENCODING -1
SWIDTH 492 0
DWIDTH 8 0
BBX 8 12 0 0
BITMAP
0000BF50
000AA4D1
00370063
00000000
007CED40
008218D0
000004E0
016BDFD0
1DB429A0
6D000C70
6D229F40
1BFC4F10
ENDCHAR
STARTCHAR atilde.a
ENCODING -1
SWIDTH 492 0
DWIDTH 8 0
BBX 8 12 0 0
BITMAP
00035004
003DC82D
00850AE4
00000000
007CED40
008218D0
000004E0
016BDFD0
1DB429A0
6D000C70
6D229F40
1BFC4F10
ENDCHAR
STARTCHAR adieresis.a
ENCODING -1
SWIDTH 492 0
DWIDTH 8 0
BBX 8 11 0 0
BITMAP
000D30D2
00000000
00000000
007CED40
008218D0
000004E0
016BDFD0
1DB429A0
6D000C70
6D229F40
1BFC4F10
ENDCHAR
STARTCHAR amacron.a
ENCODING -1
SWIDTH 492 0
DWIDTH 8 0
BBX 8 10 0 0
BITMAP
000EFFF2
00000000
007CED40
008218D0
000004E0
016BDFD0
1DB429A0
6D000C70
6D229F40
1BFC4F10
ENDCHAR
STARTCHAR abreve.a
ENCODING -1
SWIDTH 492 0
DWIDTH 8 0
BBX 8 12 0 0
BITMAP
00170017
001E31A6
0006ED70
00000000
007CED40
008218D0
000004E0
016BDFD0
1DB429A0
6D000C70
6D229F40
1BFC4F10
ENDCHAR
STARTCHAR aring.a
ENCODING -1
SWIDTH 492 0
DWIDTH 8 0
BBX 7 12 0 0
BITMAP
0001BE80
000783C0
0003ED40
00000000
007CED40
008218D0
000004E0
016BDFD0
1DB429A0
6D000C70
6D229F40
1BFC4F10
ENDCHAR
STARTCHAR uni01CE.a
ENCODING -1
SWIDTH 492 0
DWIDTH 8 0
BBX 8 12 0 0
BITMAP
00180046
000B77D1
0002FD20
00000000
007CED40
008218D0
000004E0
016BDFD0
1DB429A0
6D000C70
6D229F40
1BFC4F10
ENDCHAR
STARTCHAR uni1EA1.a
ENCODING -1
SWIDTH 492 0
DWIDTH 8 0
BBX 7 11 0 -3
BITMAP
007CED40
008218D0
000004E0
016BDFD0
1DB429A0
6D000C70
6D229F40
1BFC4F10
00000000
00000000
00C70000
ENDCHAR
STARTCHAR uni1EA3.a
ENCODING -1
SWIDTH 492 0
DWIDTH 8 0
BBX 7 12 0 0
BITMAP
00009C30
00001A80
00005B20
00001000
007CED40
008218D0
000004E0
016BDFD0
1DB429A0
6D000C70
6D229F40
1BFC4F10
ENDCHAR
STARTCHAR uni1EA5.a
ENCODING -1
SWIDTH 492 0
DWIDTH 8 0
BBX 9 13 0 0
BITMAP
0000000040
0000000990
0001BF5700
000B74C100
0001001000
007CED4000
008218D000
000004E000
016BDFD000
1DB429A000
6D000C7000
6D229F4000
1BFC4F1000
ENDCHAR
STARTCHAR uni1EA7.a
ENCODING -1
SWIDTH 492 0
DWIDTH 8 0
BBX 8 13 0 0
BITMAP
02400000
02D10000
0055BF40
000B74C1
00010010
007CED40
008218D0
000004E0
016BDFD0
1DB429A0
6D000C70
6D229F40
1BFC4F10
ENDCHAR
STARTCHAR uni1EA9.a
ENCODING -1
SWIDTH 492 0
DWIDTH 8 0
BBX 9 13 0 0
BITMAP
0000002D40
0000000690
0001BF4920
000B74C100
0001001000
007CED4000
008218D000
000004E000
016BDFD000
1DB429A000
6D000C7000
6D229F4000
1BFC4F1000
ENDCHAR
STARTCHAR uni1EAB.a
ENCODING -1
SWIDTH 492 0
DWIDTH 8 0
BBX 8 13 0 0
BITMAP
0004E939
000A29E3
0001CF40
000B64C1
00000000
007CED40
008218D0
000004E0
016BDFD0
1DB429A0
6D000C70
6D229F40
1BFC4F10
ENDCHAR
STARTCHAR uni1EAD.a
ENCODING -1
SWIDTH 492 0
DWIDTH 8 0
BBX 8 15 0 -3
BITMAP
0000BF50
000AA4D1
00370063
00000000
007CED40
008218D0
000004E0
016BDFD0
1DB429A0
6D000C70
6D229F40
1BFC4F10
00000000
00000000
00B70000
ENDCHAR
STARTCHAR uni1EAF.a
ENCODING -1
SWIDTH 492 0
DWIDTH 8 0
BBX 8 14 0 0
BITMAP
00000040
000008B1
00171717
001D31A5
0006ED60
00000000
007CED40
008218D0
000004E0
016BDFD0
1DB429A0
6D000C70
6D229F40
1BFC4F10
ENDCHAR
STARTCHAR uni1EB1.a
ENCODING -1
SWIDTH 492 0
DWIDTH 8 0
BBX 8 14 0 0
BITMAP
00005100
0000A700
00171917
001D31A5
0006ED60
00000000
007CED40
008218D0
000004E0
016BDFD0
1DB429A0
6D000C70
6D229F40
1BFC4F10
ENDCHAR
STARTCHAR uni1EB3.a
ENCODING -1
SWIDTH 492 0
DWIDTH 8 0
BBX 8 14 0 0
BITMAP
00004D50
00000790
00172927
001D21A5
0006ED60
00000000
007CED40
008218D0
000004E0
016BDFD0
1DB429A0
6D000C70
6D229F40
1BFC4F10
ENDCHAR
STARTCHAR uni1EB5.a
ENCODING -1
SWIDTH 492 0
DWIDTH 8 0
BBX 8 14 0 0
BITMAP
0004C829
000B4AE4
00000000
000C2195
0007EE80
00000000
007CED40
008218D0
000004E0
016BDFD0
1DB429A0
6D000C70
6D229F40
1BFC4F10
ENDCHAR
STARTCHAR uni1EB7.a
ENCODING -1
SWIDTH 492 0
DWIDTH 8 0
BBX 8 15 0 -3
BITMAP
00170017
001E31A6
0006ED70
00000000
007CED40
008218D0
000004E0
016BDFD0
1DB429A0
6D000C70
6D229F40
1BFC4F10
00000000
00000000
00B70000
ENDCHAR
STARTCHAR aogonek.a
ENCODING -1
SWIDTH 492 0
DWIDTH 8 0
BBX 7 11 0 -3
BITMAP
007CED40
008218D0
000004E0
016BDFD0
1DB429A0
6D000C70
6D229F40
1BEC6F10
00019300
00095100
0008E600
ENDCHAR
STARTCHAR g.a
ENCODING -1
SWIDTH 477 0
DWIDTH 8 0
BBX 9 11 -1 -3
BITMAP
0005CFFFF0
004E419900
00A7006A00
008A14D400
002EEC5000
00A5000000
00C7100000
01AEFD8000
1C4014E500
2E4116E200
07DFEA3000
ENDCHAR
STARTCHAR gcircumflex.a
ENCODING -1
SWIDTH 477 0
DWIDTH 8 0
BBX 9 15 -1 -3
BITMAP
00002EE200
0002D68A00
0007300910
0000000000
0005CFFFF0
004E419900
00A7006A00
008A14D400
002EEC5000
00A5000000
00C7100000
01AEFD8000
1C4014E500
2E4116E200
07DFEA3000
ENDCHAR
STARTCHAR gbreve.a
ENCODING -1
SWIDTH 477 0
DWIDTH 8 0
BBX 9 15 -1 -3
BITMAP
0004400440
0005C13D20
00009EC400
0000000000
0005CFFFF0
004E419900
00A7006A00
008A14D400
002EEC5000
00A5000000
00C7100000
01AEFD8000
1C4014E500
2E4116E200
07DFEA3000
ENDCHAR
STARTCHAR gdotaccent.a
ENCODING -1
SWIDTH 477 0
DWIDTH 8 0
BBX 9 14 -1 -3
BITMAP
00000C6000
0000000000
0000000000
0005CFFFF0
004E419900
00A7006A00
008A14D400
002EEC5000
00A5000000
00C7100000
01AEFD8000
1C4014E500
2E4116E200
07DFEA3000
ENDCHAR
STARTCHAR uni0123.a
ENCODING -1
SWIDTH 477 0
DWIDTH 8 0
BBX 9 15 -1 -3
BITMAP
000007D800
00004D2000
00002C7000
0000000000
0005CFFFF0
004E419900
00A7006A00
008A14D400
002EEC5000
00A5000000
00C7100000
01AEFD8000
1C4014E500
2E4116E200
07DFEA3000
ENDCHAR
STARTCHAR gcaron.a
ENCODING -1
SWIDTH 477 0
DWIDTH 8 0
BBX 9 15 -1 -3
BITMAP
0004500820
0001E4B900
00006FA000
0000000000
0005CFFFF0
004E419900
00A7006A00
008A14D400
002EEC5000
00A5000000
00C7100000
01AEFD8000
1C4014E500
2E4116E200
07DFEA3000
ENDCHAR
STARTCHAR uni1E21.a
ENCODING -1
SWIDTH 477 0
DWIDTH 8 0
BBX 9 13 -1 -3
BITMAP
0004FFFC00
0000000000
0005CFFFF0
004E419900
00A7006A00
008A14D400
002EEC5000
00A5000000
00C7100000
01AEFD8000
1C4014E500
2E4116E200
07DFEA3000
ENDCHAR
STARTCHAR uni00670303.a
ENCODING -1
SWIDTH 477 0
DWIDTH 8 0
BBX 9 15 -1 -3
BITMAP
0000530140
0007BD4690
000B12DC20
0000000000
0005CFFFF0
004E419900
00A7006A00
008A14D400
002EEC5000
00A5000000
00C7100000
01AEFD8000
1C4014E500
2E4116E200
07DFEA3000
ENDCHAR
STARTCHAR l.a
ENCODING -1
SWIDTH 238 0
DWIDTH 4 0
BBX 4 11 0 0
BITMAP
005D
008A
00B7
00E4
02F1
06D0
09A0
0C70
0F40
3F10
6C00
ENDCHAR
STARTCHAR lacute.a
ENCODING -1
SWIDTH 238 0
DWIDTH 4 0
BBX 6 15 0 0
BITMAP
000049
0006E7
001B30
000000
005D00
008A00
00B700
00E400
02F100
06D000
09A000
0C7000
0F4000
3F1000
6C0000
ENDCHAR
STARTCHAR lcaron.a
ENCODING -1
SWIDTH 242 0
DWIDTH 4 0
BBX 6 12 0 0
BITMAP
00003A
005D66
008A91
00B700
00E400
02F100
06D000
09A000
0C7000
0F4000
3F1000
6C0000
ENDCHAR
STARTCHAR ldot.a
ENCODING -1
SWIDTH 331 0
DWIDTH 5 0
BBX 6 11 0 0
BITMAP
005D00
008A00
00B700
00E400
02F1B7
06D0D7
09A000
0C7000
0F4000
3F1000
6C0000
ENDCHAR
STARTCHAR uni013C.a
ENCODING -1
SWIDTH 238 0
DWIDTH 4 0
BBX 5 15 -1 -4
BITMAP
0005D0
0008A0
000B70
000E40
002F10
006D00
009A00
00C700
00F400
03F100
06C000
000000
0C9000
05E000
DC4000
ENDCHAR
STARTCHAR uni1E37.a
ENCODING -1
SWIDTH 238 0
DWIDTH 4 0
BBX 5 14 -1 -3
BITMAP
0005D0
0008A0
000B70
000E40
002F10
006D00
009A00
00C700
00F400
03F100
06C000
000000
000000
1D5000
ENDCHAR
STARTCHAR uni1E39.a
ENCODING -1
SWIDTH 238 0
DWIDTH 4 0
BBX 7 17 -1 -3
BITMAP
004FFFC0
00000000
00000000
0005D000
0008A000
000B7000
000E4000
002F1000
006D0000
009A0000
00C70000
00F40000
03F10000
06C00000
00000000
00000000
1D500000
ENDCHAR
STARTCHAR uni1E3B.a
ENCODING -1
SWIDTH 238 0
DWIDTH 4 0
BBX 6 14 -2 -3
BITMAP
00005D
00008A
0000B7
0000E4
0002F1
0006D0
0009A0
000C70
000F40
003F10
006C00
000000
000000
4FFFC0
ENDCHAR
STARTCHAR lslash.a
ENCODING -1
SWIDTH 246 0
DWIDTH 4 0
BBX 5 11 0 0
BITMAP
004E00
007B00
00A800
00D840
02FC20
3DE000
49B000
0B7000
0E4000
2F1000
5D0000
ENDCHAR
STARTCHAR zero.pnum
ENCODING -1
SWIDTH 504 0
DWIDTH 8 0
BBX 8 10 0 0
BITMAP
0007EE70
009B22D4
04E10089
0B80007A
1F200099
4F0000B7
5D0002F2
3E0009A0
0D617E20
03CEB200
ENDCHAR
STARTCHAR one.pnum
ENCODING -1
SWIDTH 340 0
DWIDTH 5 0
BBX 4 10 1 0
BITMAP
04BC
6FF9
00C5
00E2
03E0
06B0
0A80
0D50
1F20
4E00
ENDCHAR
STARTCHAR two.pnum
ENCODING -1
SWIDTH 467 0
DWIDTH 7 0
BBX 9 10 -1 0
BITMAP
0005CEC300
002C318D00
0000002F10
0000005D00
000000C700
00000AA000
0001AB1000
001C900000
03D8000000
1EFFFFF100
ENDCHAR
STARTCHAR three.pnum
ENCODING -1
SWIDTH 461 0
DWIDTH 7 0
BBX 9 10 -1 0
BITMAP
0006CED600
0019316F10
0000002F20
000014C900
0007FF6000
000027E300
000000B800
020000C800
1E7118E200
02BEEA2000
ENDCHAR
STARTCHAR four.pnum
ENCODING -1
SWIDTH 485 0
DWIDTH 8 0
BBX 8 10 0 0
BITMAP
000008F2
00006DE0
0005D7B0
003D2980
02D30D50
1D401F10
9FFFFFF3
00007A00
0000A800
0000C500
ENDCHAR
STARTCHAR five.pnum
ENCODING -1
SWIDTH 461 0
DWIDTH 7 0
BBX 8 10 0 0
BITMAP
007FFFF5
00B60000
00E20000
03D00000
07EEE900
03413D70
000009A0
20000B80
D7118D10
2BED9200
ENDCHAR
STARTCHAR six.pnum
ENCODING -1
SWIDTH 480 0
DWIDTH 8 0
BBX 8 10 0 0
BITMAP
0005CFC2
007D4177
03F20000
0A900000
0E8CEB20
2FA31AB0
2F0003D0
1F1006B0
0B914E40
02BED500
ENDCHAR
STARTCHAR seven.pnum
ENCODING -1
SWIDTH 456 0
DWIDTH 7 0
BBX 7 10 1 0
BITMAP
5FFFFFC0
00003D20
0002D300
000B7000
005D0000
00C60000
03E10000
09900000
0D500000
3F100000
ENDCHAR
STARTCHAR eight.pnum
ENCODING -1
SWIDTH 480 0
DWIDTH 8 0
BBX 8 10 0 0
BITMAP
002AEE80
00B912C5
00D30097
006C35F3
02CFFE50
1DA28D30
5D0007C0
6B0004E0
2E513C80
04CED700
ENDCHAR
STARTCHAR nine.pnum
ENCODING -1
SWIDTH 480 0
DWIDTH 8 0
BBX 8 10 0 0
BITMAP
004CEB20
03E518C0
0A7000F2
0C5000D4
0AB129F3
02BEC7F1
000007B0
00002E40
5813D900
2CFD6000
ENDCHAR
STARTCHAR zero.tnum
ENCODING -1
SWIDTH 480 0
DWIDTH 8 0
BBX 8 9 0 0
BITMAP
002BEC30
01E717D0
08A000F2
1E3000E3
4E0001F2
5C0006D0
5D000C60
1E519C10
05DEA100
ENDCHAR
STARTCHAR one.tnum
ENCODING -1
SWIDTH 480 0
DWIDTH 8 0
BBX 7 9 0 0
BITMAP
0005C900
008FF600
0000E300
0002F000
0006C000
00099000
000C6000
001F2000
7FFFFF10
ENDCHAR
STARTCHAR two.tnum
ENCODING -1
SWIDTH 480 0
DWIDTH 8 0
BBX 8 9 -1 0
BITMAP
0008DEB2
006A21BB
0000004E
0000008A
000004D2
00005D30
0008C200
02C90000
1EFFFFF4
ENDCHAR
STARTCHAR three.tnum
ENCODING -1
SWIDTH 480 0
DWIDTH 8 0
BBX 9 10 -1 -1
BITMAP
0017DED500
0019318E00
0000003F10
000015D700
0009FE4000
000029D100
000000D600
030000E500
2E612AD100
03BED92000
ENDCHAR
STARTCHAR four.tnum
ENCODING -1
SWIDTH 480 0
DWIDTH 8 0
BBX 8 11 -1 -2
BITMAP
000000BE
000008DB
00005C98
0002E3C5
001D50F2
00A803E0
07B006C0
1FFFFFFD
00000B60
00000E30
00002F10
ENDCHAR
STARTCHAR five.tnum
ENCODING -1
SWIDTH 480 0
DWIDTH 8 0
BBX 9 10 -1 -1
BITMAP
0009FFFF30
000D400000
002E000000
006B000000
009EEE7000
004315F500
000000B700
020000D500
2E512AB000
03CED81000
ENDCHAR
STARTCHAR six.tnum
ENCODING -1
SWIDTH 480 0
DWIDTH 8 0
BBX 8 10 0 0
BITMAP
0005CFC2
007D4177
03F20000
0A900000
0E8CEB20
2FA31AB0
2F0003D0
1F1006B0
0B914E40
02BED500
ENDCHAR
STARTCHAR seven.tnum
ENCODING -1
SWIDTH 480 0
DWIDTH 8 0
BBX 7 11 1 -2
BITMAP
6FFFFFD0
00002D30
0001C400
00099000
003E1000
00B70000
02F10000
08A00000
0D600000
2F200000
15000000
ENDCHAR
STARTCHAR eight.tnum
ENCODING -1
SWIDTH 480 0
DWIDTH 8 0
BBX 8 10 0 0
BITMAP
002AEE80
00B912C5
00D30097
006C35F3
02CFFE50
1DA28D30
5D0007C0
6B0004E0
2E513C80
04CED700
ENDCHAR
STARTCHAR nine.tnum
ENCODING -1
SWIDTH 480 0
DWIDTH 8 0
BBX 8 10 0 -1
BITMAP
007DEA10
08C31AA0
1F2002F0
2F0001F1
0E713AF0
04DEB9C0
00000B80
00005E20
9515E500
4DEC4000
ENDCHAR
STARTCHAR zero.onum
ENCODING -1
SWIDTH 480 0
DWIDTH 8 0
BBX 8 9 0 0
BITMAP
002BEC30
01E717D0
08A000F2
1E3000E3
4E0001F2
5C0006D0
5D000C60
1E519C10
05DEA100
ENDCHAR
STARTCHAR one.onum
ENCODING -1
SWIDTH 342 0
DWIDTH 5 0
BBX 4 9 1 0
BITMAP
15D7
BFF4
01F1
04D0
08A0
0B70
0E30
3F10
6C00
ENDCHAR
STARTCHAR two.onum
ENCODING -1
SWIDTH 462 0
DWIDTH 7 0
BBX 8 9 -1 0
BITMAP
0008DEA1
006A22C8
0000007B
000000A8
000006D1
00007C20
0019B100
02C80000
1EFFFFF0
ENDCHAR
STARTCHAR three.onum
ENCODING -1
SWIDTH 480 0
DWIDTH 8 0
BBX 9 10 -1 -1
BITMAP
0017DED500
0019318E00
0000003F10
000015D700
0009FE4000
000029D100
000000D600
030000E500
2E612AD100
03BED92000
ENDCHAR
STARTCHAR four.onum
ENCODING -1
SWIDTH 480 0
DWIDTH 8 0
BBX 8 11 -1 -2
BITMAP
000000BE
000008DB
00005C98
0002E3C5
001D50F2
00A803E0
07B006C0
1FFFFFFD
00000B60
00000E30
00002F10
ENDCHAR
STARTCHAR five.onum
ENCODING -1
SWIDTH 480 0
DWIDTH 8 0
BBX 9 10 -1 -1
BITMAP
0009FFFF30
000D400000
002E000000
006B000000
009EEE7000
004315F500
000000B700
020000D500
2E512AB000
03CED81000
ENDCHAR
STARTCHAR six.onum
ENCODING -1
SWIDTH 480 0
DWIDTH 8 0
BBX 8 10 0 0
BITMAP
0005CFC2
007D4177
03F20000
0A900000
0E8CEB20
2FA31AB0
2F0003D0
1F1006B0
0B914E40
02BED500
ENDCHAR
STARTCHAR seven.onum
ENCODING -1
SWIDTH 456 0
DWIDTH 7 0
BBX 7 11 1 -2
BITMAP
9FFFFF80
00006B00
0004C100
001E3000
008A0000
01F20000
07B00000
0D500000
2F100000
6D000000
33000000
ENDCHAR
STARTCHAR eight.onum
ENCODING -1
SWIDTH 480 0
DWIDTH 8 0
BBX 8 10 0 0
BITMAP
002AEE80
00B912C5
00D30097
006C35F3
02CFFE50
1DA28D30
5D0007C0
6B0004E0
2E513C80
04CED700
ENDCHAR
STARTCHAR nine.onum
ENCODING -1
SWIDTH 480 0
DWIDTH 8 0
BBX 8 10 0 -1
BITMAP
007DEA10
08C31AA0
1F2002F0
2F0001F1
0E713AF0
04DEB9C0
00000B80
00005E20
9515E500
4DEC4000
ENDCHAR
STARTCHAR at.case
ENCODING -1
SWIDTH 802 0
DWIDTH 13 0
BBX 12 11 1 0
BITMAP
00007CEEB400
002DA3115D50
01D5000002D0
09702CE960B3
1D00D62D3094
5905A00D00A3
6707702C00D0
6906A1AD1880
2E21CE5AE900
07D511420000
005CFEA20000
ENDCHAR
STARTCHAR period.sups
ENCODING -1
SWIDTH 170 0
DWIDTH 3 0
BBX 2 1 1 6
BITMAP
96
ENDCHAR
STARTCHAR comma.sups
ENCODING -1
SWIDTH 170 0
DWIDTH 3 0
BBX 3 3 0 4
BITMAP
0980
0680
3A10
ENDCHAR
STARTCHAR period.subs
ENCODING -1
SWIDTH 170 0
DWIDTH 3 0
BBX 2 1 -1 -3
BITMAP
69
ENDCHAR
STARTCHAR comma.subs
ENCODING -1
SWIDTH 170 0
DWIDTH 3 0
BBX 2 3 -1 -5
BITMAP
5B
2B
B2
ENDCHAR
STARTCHAR zero.dnom
ENCODING -1
SWIDTH 357 0
DWIDTH 6 0
BBX 6 7 0 0
BITMAP
03DE50
1D33E0
6800D1
A400E0
B403C0
981B50
2CE700
ENDCHAR
STARTCHAR one.dnom
ENCODING -1
SWIDTH 356 0
DWIDTH 6 0
BBX 3 6 1 0
BITMAP
4AE0
03C0
0690
0960
0C30
0E00
ENDCHAR
STARTCHAR two.dnom
ENCODING -1
SWIDTH 353 0
DWIDTH 6 0
BBX 5 7 0 0
BITMAP
05ED40
0826B0
0004A0
000B30
009600
1A5000
DFFF30
ENDCHAR
STARTCHAR three.dnom
ENCODING -1
SWIDTH 351 0
DWIDTH 6 0
BBX 5 7 0 0
BITMAP
07DE40
0416B0
001980
03FB00
002C40
A22B40
3DE900
ENDCHAR
STARTCHAR four.dnom
ENCODING -1
SWIDTH 354 0
DWIDTH 6 0
BBX 5 6 0 0
BITMAP
001B90
00A950
071B10
AFFFC0
002B00
003600
ENDCHAR
STARTCHAR five.dnom
ENCODING -1
SWIDTH 351 0
DWIDTH 6 0
BBX 5 6 0 0
BITMAP
05FFF0
093000
0DEC20
041980
A31A60
3DE800
ENDCHAR
STARTCHAR six.dnom
ENCODING -1
SWIDTH 353 0
DWIDTH 6 0
BBX 5 7 0 0
BITMAP
02BEB0
0D7130
5B0000
8BDD30
991780
691960
1AEA00
ENDCHAR
STARTCHAR seven.dnom
ENCODING -1
SWIDTH 353 0
DWIDTH 6 0
BBX 5 7 1 -1
BITMAP
DFFF50
004900
02C000
0A4000
3C0000
870000
520000
ENDCHAR
STARTCHAR eight.dnom
ENCODING -1
SWIDTH 353 0
DWIDTH 6 0
BBX 5 7 0 0
BITMAP
04DE50
0C33C0
0A3490
1AAC00
940950
B61B50
4DE900
ENDCHAR
STARTCHAR nine.dnom
ENCODING -1
SWIDTH 353 0
DWIDTH 6 0
BBX 5 7 0 0
BITMAP
05EC20
1D27A0
4901C0
4B17C0
0BEB80
312B20
8ED300
ENDCHAR
STARTCHAR parenleft.dnom
ENCODING -1
SWIDTH 227 0
DWIDTH 4 0
BBX 4 9 0 -1
BITMAP
0055
02C0
0A50
1D00
4A00
5800
5900
3B00
0A00
ENDCHAR
STARTCHAR parenright.dnom
ENCODING -1
SWIDTH 226 0
DWIDTH 4 0
BBX 4 9 -1 -1
BITMAP
0092
0076
0058
0059
0068
00A4
01D0
0950
2900
ENDCHAR
STARTCHAR period.dnom
ENCODING -1
SWIDTH 170 0
DWIDTH 3 0
BBX 2 1 0 0
BITMAP
C3
ENDCHAR
STARTCHAR comma.dnom
ENCODING -1
SWIDTH 170 0
DWIDTH 3 0
BBX 3 3 -1 -2
BITMAP
0C50
0940
6800
ENDCHAR
STARTCHAR zero.numr
ENCODING -1
SWIDTH 357 0
DWIDTH 6 0
BBX 5 7 1 4
BITMAP
05ED30
3D26B0
9501D0
D102C0
E10690
C52D30
3DE500
ENDCHAR
STARTCHAR one.numr
ENCODING -1
SWIDTH 356 0
DWIDTH 6 0
BBX 3 6 2 4
BITMAP
6BC0
0690
0960
0C30
0E00
3B00
ENDCHAR
STARTCHAR two.numr
ENCODING -1
SWIDTH 353 0
DWIDTH 6 0
BBX 6 7 0 4
BITMAP
007EC2
018198
000077
0001C1
001B30
02B300
1EFFF0
ENDCHAR
STARTCHAR three.numr
ENCODING -1
SWIDTH 351 0
DWIDTH 6 0
BBX 6 7 0 4
BITMAP
009ED2
005198
0002B5
006F80
0003D1
1A13D1
06EE60
ENDCHAR
STARTCHAR four.numr
ENCODING -1
SWIDTH 354 0
DWIDTH 6 0
BBX 5 6 1 4
BITMAP
002D60
02AB20
171C00
DFFF90
005800
005400
ENDCHAR
STARTCHAR five.numr
ENCODING -1
SWIDTH 351 0
DWIDTH 6 0
BBX 6 6 0 4
BITMAP
008FFC
00C100
02EEB1
0141B5
1A12D3
06EE60
ENDCHAR
STARTCHAR six.numr
ENCODING -1
SWIDTH 353 0
DWIDTH 6 0
BBX 5 7 1 4
BITMAP
03CE80
2E4130
880000
BBEC10
C61A50
961B30
2CE700
ENDCHAR
STARTCHAR seven.numr
ENCODING -1
SWIDTH 353 0
DWIDTH 6 0
BBX 6 7 1 3
BITMAP
1FFFF2
000760
004A00
00C100
069000
0B4000
060000
ENDCHAR
STARTCHAR eight.numr
ENCODING -1
SWIDTH 353 0
DWIDTH 6 0
BBX 5 7 1 4
BITMAP
06ED30
0D2690
0C1760
2ABA00
B10C20
E32D20
6EE600
ENDCHAR
STARTCHAR nine.numr
ENCODING -1
SWIDTH 353 0
DWIDTH 6 0
BBX 5 7 1 4
BITMAP
08EA10
4B1A70
760490
791990
1CEC50
313B10
AEB200
ENDCHAR
STARTCHAR parenleft.numr
ENCODING -1
SWIDTH 227 0
DWIDTH 4 0
BBX 4 9 1 3
BITMAP
0083
04A0
0C20
3B00
7700
8500
8600
6700
1900
ENDCHAR
STARTCHAR parenright.numr
ENCODING -1
SWIDTH 226 0
DWIDTH 4 0
BBX 4 9 0 3
BITMAP
00A0
00A3
0085
0086
0094
00D1
04A0
0B20
5600
ENDCHAR
STARTCHAR period.numr
ENCODING -1
SWIDTH 170 0
DWIDTH 3 0
BBX 3 1 0 4
BITMAP
2D10
ENDCHAR
STARTCHAR comma.numr
ENCODING -1
SWIDTH 170 0
DWIDTH 3 0
BBX 3 3 0 2
BITMAP
1D20
0C20
8500
ENDCHAR
STARTCHAR ordfeminine.a
ENCODING -1
SWIDTH 333 0
DWIDTH 5 0
BBX 6 5 0 6
BITMAP
03CEA0
05DEF1
1D42D0
4B19A0
1DD640
ENDCHAR
STARTCHAR q.sups
ENCODING -1
SWIDTH 356 0
DWIDTH 6 0
BBX 5 7 1 4
BITMAP
08E970
8A17B0
D10780
E23D40
9E9D10
002D00
004900
ENDCHAR
STARTCHAR egrave.sups
ENCODING -1
SWIDTH 323 0
DWIDTH 5 0
BBX 5 9 1 6
BITMAP
005000
00B500
001600
000000
19EB10
961850
EFFF50
E21200
6ED500
ENDCHAR
STARTCHAR eacute.sups
ENCODING -1
SWIDTH 323 0
DWIDTH 5 0
BBX 5 9 1 6
BITMAP
000120
002C40
005200
000000
19EB10
961850
EFFF50
E21200
6ED500
ENDCHAR
STARTCHAR a.supa
ENCODING -1
SWIDTH 333 0
DWIDTH 5 0
BBX 6 5 0 6
BITMAP
01AEC1
02DEF4
0C61D1
1E16D0
0AE660
ENDCHAR
STARTCHAR g.supa
ENCODING -1
SWIDTH 324 0
DWIDTH 5 0
BBX 6 7 0 4
BITMAP
01BFFE
0872D0
07FE70
073000
066860
7516B0
5EEB30
ENDCHAR
STARTCHAR l.supa
ENCODING -1
SWIDTH 164 0
DWIDTH 3 0
BBX 3 8 1 6
BITMAP
0B30
0D10
1D00
4A00
7700
A400
C100
D000
ENDCHAR
STARTCHAR slash.frac
ENCODING -1
SWIDTH 84 0
DWIDTH 1 0
BBX 9 11 -4 0
BITMAP
00000001B0
0000000A30
0000006700
000002A000
00000B2000
0000850000
0003900000
001B100000
0093000000
0580000000
1B00000000
ENDCHAR
STARTCHAR uni0300.cap
ENCODING -1
SWIDTH 0 0
DWIDTH 0 0
BBX 3 3 0 11
BITMAP
5800
3E60
03B0
ENDCHAR
STARTCHAR uni0301.cap
ENCODING -1
SWIDTH 0 0
DWIDTH 0 0
BBX 4 3 1 11
BITMAP
01A2
2CC2
8700
ENDCHAR
STARTCHAR uni0302.cap
ENCODING -1
SWIDTH 0 0
DWIDTH 0 0
BBX 6 3 -1 11
BITMAP
01BF60
0B94D2
140031
ENDCHAR
STARTCHAR uni0303.cap
ENCODING -1
SWIDTH 0 0
DWIDTH 0 0
BBX 6 3 -1 11
BITMAP
012001
2DE72D
851BE5
ENDCHAR
STARTCHAR uni0304.cap
ENCODING -1
SWIDTH 0 0
DWIDTH 0 0
BBX 5 1 0 12
BITMAP
EFFF20
ENDCHAR
STARTCHAR uni0306.cap
ENCODING -1
SWIDTH 0 0
DWIDTH 0 0
BBX 5 3 0 11
BITMAP
400130
D31B50
5EE700
ENDCHAR
STARTCHAR uni0307.cap
ENCODING -1
SWIDTH 0 0
DWIDTH 0 0
BBX 2 1 1 12
BITMAP
7C
ENDCHAR
STARTCHAR uni0308.cap
ENCODING -1
SWIDTH 0 0
DWIDTH 0 0
BBX 5 1 0 12
BITMAP
C30C30
ENDCHAR
STARTCHAR uni0309.cap
ENCODING -1
SWIDTH 0 0
DWIDTH 0 0
BBX 3 3 1 11
BITMAP
BB10
1D40
8900
ENDCHAR
STARTCHAR uni030A.cap
ENCODING -1
SWIDTH 0 0
DWIDTH 0 0
BBX 4 3 0 11
BITMAP
0AE7
493B
1DE4
ENDCHAR
STARTCHAR uni030B.cap
ENCODING -1
SWIDTH 0 0
DWIDTH 0 0
BBX 6 3 0 11
BITMAP
01B076
0B64C1
480710
ENDCHAR
STARTCHAR uni030C.cap
ENCODING -1
SWIDTH 0 0
DWIDTH 0 0
BBX 5 3 0 11
BITMAP
400230
B75D20
2EE300
ENDCHAR
STARTCHAR uni030F.cap
ENCODING -1
SWIDTH 0 0
DWIDTH 0 0
BBX 5 3 -1 11
BITMAP
A43B00
690C30
0B0450
ENDCHAR
STARTCHAR uni0327.cap
ENCODING -1
SWIDTH 0 0
DWIDTH 0 0
BBX 4 4 -3 -4
BITMAP
00A3
01B7
018A
2EA2
ENDCHAR
STARTCHAR uni0328.cap
ENCODING -1
SWIDTH 0 0
DWIDTH 0 0
BBX 3 4 -2 -3
BITMAP
0530
4900
B610
7E70
ENDCHAR
STARTCHAR uni03080304
ENCODING -1
SWIDTH 0 0
DWIDTH 0 0
BBX 6 3 -1 10
BITMAP
08FFF8
000000
1D11D1
ENDCHAR
STARTCHAR uni03080304.cap
ENCODING -1
SWIDTH 0 0
DWIDTH 0 0
BBX 5 3 0 12
BITMAP
8FFF90
000000
B30C20
ENDCHAR
STARTCHAR uni03080301
ENCODING -1
SWIDTH 0 0
DWIDTH 0 0
BBX 6 4 -1 10
BITMAP
000030
0007A0
001600
1D11D1
ENDCHAR
STARTCHAR uni03080301.cap
ENCODING -1
SWIDTH 0 0
DWIDTH 0 0
BBX 5 4 0 12
BITMAP
000300
005C20
008100
B30C20
ENDCHAR
STARTCHAR uni0308030C
ENCODING -1
SWIDTH 0 0
DWIDTH 0 0
BBX 6 4 -1 10
BITMAP
000001
05A2A6
00AF60
1D11D1
ENDCHAR
STARTCHAR uni0308030C.cap
ENCODING -1
SWIDTH 0 0
DWIDTH 0 0
BBX 5 3 0 12
BITMAP
2C3970
08F800
B30C20
ENDCHAR
STARTCHAR uni03080300
ENCODING -1
SWIDTH 0 0
DWIDTH 0 0
BBX 6 4 -1 10
BITMAP
004000
009600
001700
1D11D1
ENDCHAR
STARTCHAR uni03080300.cap
ENCODING -1
SWIDTH 0 0
DWIDTH 0 0
BBX 5 4 0 12
BITMAP
040000
0A6000
019000
B30C20
ENDCHAR
STARTCHAR uni03020301
ENCODING -1
SWIDTH 0 0
DWIDTH 0 0
BBX 7 5 -1 8
BITMAP
00000040
00000A80
01CE5600
1C64C000
01001000
ENDCHAR
STARTCHAR uni03020301.cap
ENCODING -1
SWIDTH 0 0
DWIDTH 0 0
BBX 6 3 0 11
BITMAP
000069
0BF670
A74C00
ENDCHAR
STARTCHAR uni03020300
ENCODING -1
SWIDTH 0 0
DWIDTH 0 0
BBX 6 5 -2 8
BITMAP
330000
3C0000
064CE3
01C64C
001001
ENDCHAR
STARTCHAR uni03020300.cap
ENCODING -1
SWIDTH 0 0
DWIDTH 0 0
BBX 5 4 -1 11
BITMAP
100000
A50000
06BF40
0A74C0
ENDCHAR
STARTCHAR uni03020309
ENCODING -1
SWIDTH 0 0
DWIDTH 0 0
BBX 7 5 -1 8
BITMAP
00004D30
00000880
01CE4910
1C64C000
01001000
ENDCHAR
STARTCHAR uni03020309.cap
ENCODING -1
SWIDTH 0 0
DWIDTH 0 0
BBX 6 4 0 11
BITMAP
0002D5
000069
0BF582
A74C00
ENDCHAR
STARTCHAR uni03020303
ENCODING -1
SWIDTH 0 0
DWIDTH 0 0
BBX 6 4 -1 9
BITMAP
05E848
0A2AE2
02CE30
1C54C0
ENDCHAR
STARTCHAR uni03020303.cap
ENCODING -1
SWIDTH 0 0
DWIDTH 0 0
BBX 5 4 0 11
BITMAP
4EA2A0
A29E50
1BF400
A73C00
ENDCHAR
STARTCHAR uni03060301
ENCODING -1
SWIDTH 0 0
DWIDTH 0 0
BBX 6 5 -1 9
BITMAP
000040
0009A0
262727
1D22B4
07ED50
ENDCHAR
STARTCHAR uni03060301.cap
ENCODING -1
SWIDTH 0 0
DWIDTH 0 0
BBX 5 5 0 11
BITMAP
000200
006D10
419230
D31A40
5DD600
ENDCHAR
STARTCHAR uni03060300
ENCODING -1
SWIDTH 0 0
DWIDTH 0 0
BBX 6 5 -1 9
BITMAP
005000
00B600
261827
1D22B4
07ED50
ENDCHAR
STARTCHAR uni03060300.cap
ENCODING -1
SWIDTH 0 0
DWIDTH 0 0
BBX 5 5 0 11
BITMAP
030000
0B6000
41B130
D31A40
5DD600
ENDCHAR
STARTCHAR uni03060309
ENCODING -1
SWIDTH 0 0
DWIDTH 0 0
BBX 6 5 -1 9
BITMAP
005D40
000880
263937
1D22B4
07ED50
ENDCHAR
STARTCHAR uni03060309.cap
ENCODING -1
SWIDTH 0 0
DWIDTH 0 0
BBX 5 4 0 11
BITMAP
03D400
408930
D49C40
5ED600
ENDCHAR
STARTCHAR uni03060303
ENCODING -1
SWIDTH 0 0
DWIDTH 0 0
BBX 6 5 -1 9
BITMAP
05C738
0B4BE3
000000
1B11A4
08ED70
ENDCHAR
STARTCHAR uni03060303.cap
ENCODING -1
SWIDTH 0 0
DWIDTH 0 0
BBX 5 5 0 11
BITMAP
5EA2A0
A29E60
000000
C21860
6EE800
ENDCHAR
STARTCHAR uni030C.a
ENCODING -1
SWIDTH 0 0
DWIDTH 0 0
BBX 2 3 0 9
BITMAP
1C
47
83
ENDCHAR
STARTCHAR uni0326.a
ENCODING -1
SWIDTH 0 0
DWIDTH 0 0
BBX 4 3 0 9
BITMAP
08D7
5C20
3D60
ENDCHAR
STARTCHAR space.frac
ENCODING -1
SWIDTH 132 0
DWIDTH 2 0
BBX 1 1 0 0
BITMAP
00
ENDCHAR
STARTCHAR nbspace.frac
ENCODING -1
SWIDTH 132 0
DWIDTH 2 0
BBX 1 1 0 0
BITMAP
00
ENDCHAR
STARTCHAR uni03020306
ENCODING -1
SWIDTH 0 0
DWIDTH 0 0
BBX 5 4 0 9
BITMAP
650740
2CE800
2DE200
B55A00
ENDCHAR
STARTCHAR uni03020306.cap
ENCODING -1
SWIDTH 0 0
DWIDTH 0 0
BBX 5 4 0 11
BITMAP
570490
1BEB20
0BF400
974C00
ENDCHAR
STARTCHAR zero.0
ENCODING -1
SWIDTH 480 0
DWIDTH 8 0
BBX 8 10 0 0
BITMAP
0008ED40
00AA14E1
05D000C4
0B6000B6
1F19D0C5
4E0BB1E2
5C0005C0
3D000C60
0E519B00
04DE9100
ENDCHAR
STARTCHAR zero.0s
ENCODING -1
SWIDTH 480 0
DWIDTH 8 0
BBX 8 10 0 0
BITMAP
0008ED40
00AB15E1
05F400D4
0B9B00C6
1F2940D5
4E02B1F2
5D009AC0
3E002F60
0E61AB00
04DE9100
ENDCHAR
STARTCHAR zero.0p
ENCODING -1
SWIDTH 504 0
DWIDTH 8 0
BBX 8 10 0 0
BITMAP
0007EE70
009B22D4
04E10089
0B80007A
1F27E199
4F08D1B7
5D0002F2
3E0009A0
0D617E20
03CEB200
ENDCHAR
STARTCHAR zero.0ps
ENCODING -1
SWIDTH 504 0
DWIDTH 8 0
BBX 8 10 0 0
BITMAP
0007EE70
009C22D4
04F50089
0B9C007A
1F276089
4E01C1B7
5D0069F2
3E000DA0
0D617E20
03CEB200
ENDCHAR
STARTCHAR uni03040301
ENCODING -1
SWIDTH 0 0
DWIDTH 0 0
BBX 5 5 -1 9
BITMAP
000030
000890
001600
000000
1FFFF0
ENDCHAR
STARTCHAR uni03040301.cap
ENCODING -1
SWIDTH 0 0
DWIDTH 0 0
BBX 5 4 0 12
BITMAP
000300
005C20
008100
EFFF20
ENDCHAR
ENDFONT
